<svg width="273" height="197" viewBox="0 0 273 197" fill="none" xmlns="http://www.w3.org/2000/svg">
  <path
    d="M100.735 188.137C111.989 188.951 123.224 186.304 132.931 180.549C140.97 188.237 151.057 193.44 161.982 195.532C172.906 197.624 184.202 196.517 194.513 192.343C206.031 187.429 217.687 180.156 224.842 170.466C227.672 166.535 232.095 160.324 232.704 155.763C238.601 153.798 261.244 143.97 268.576 125.356C274.335 110.771 273.804 93.3759 264.35 80.8355C259.542 74.6076 253.141 69.7946 245.823 66.9056C238.506 64.0165 230.543 63.1587 222.778 64.4228C216.504 53.2584 207.744 43.6876 197.178 36.4515C186.612 29.2153 174.522 24.5078 161.845 22.6935C149.285 20.9834 136.076 22.32 124.872 28.2168C113.668 34.1135 104.843 45.0225 102.877 57.4843C96.7829 49.7411 88.2443 44.2919 78.6546 42.026C69.0649 39.76 58.9904 40.8111 50.0749 45.0077C41.1595 49.2043 33.9295 56.2986 29.5648 65.133C25.2002 73.9673 23.9585 84.0202 26.0424 93.651C21.1214 95.5761 16.7055 98.6003 13.1319 102.493C9.55842 106.385 6.92185 111.043 5.42365 116.111C3.92545 121.178 3.60526 126.521 4.48755 131.731C5.36985 136.941 7.43125 141.88 10.5143 146.171C15.8214 153.523 23.7624 158.515 31.8802 162.564C38.0598 164.999 44.8886 165.235 51.2215 163.233C55.251 170.112 74.0616 185.896 100.735 188.137Z"
    fill="white" />
  <path
    d="M126.396 27.5109C126.399 29.3526 126.956 31.1506 127.996 32.6709C128.522 33.4238 129.197 34.0601 129.98 34.5401C130.763 35.0201 131.636 35.3336 132.546 35.4609C134.13 33.9983 135.229 32.0861 135.696 29.9809C135.984 28.8855 136.019 27.7387 135.797 26.6278C135.576 25.517 135.103 24.4714 134.416 23.5709C133.689 22.7078 132.679 22.1327 131.565 21.9493C130.452 21.766 129.311 21.9864 128.346 22.5709C127.654 23.1821 127.117 23.9483 126.778 24.8069C126.439 25.6655 126.308 26.5921 126.396 27.5109Z"
    fill="white" />
  <path
    d="M138.795 15.3117C138.98 16.3099 139.368 17.2595 139.935 18.1017C140.505 18.9468 141.328 19.5906 142.285 19.9417C142.759 20.1236 143.272 20.1821 143.775 20.1117C144.067 20.0606 144.346 19.9518 144.595 19.7917L144.435 19.9317C145.364 19.5371 146.193 18.9385 146.859 18.1803C147.525 17.4222 148.013 16.5238 148.285 15.5517C148.457 15.0152 148.514 14.4483 148.452 13.8882C148.39 13.3281 148.211 12.7875 147.925 12.3017C147.505 11.7516 146.96 11.3094 146.335 11.0117C145.074 10.2715 143.608 9.95926 142.155 10.1217C141.431 10.212 140.744 10.4928 140.164 10.9356C139.585 11.3783 139.133 11.9671 138.855 12.6417C138.6 13.5108 138.579 14.432 138.795 15.3117Z"
    fill="white" />
  <path
    d="M264.632 85.8673C262.476 83.1202 259.764 80.8592 256.674 79.2322C254.605 78.1572 252.343 77.5053 250.02 77.3145C249.433 77.2674 248.843 77.2674 248.255 77.3145C246.875 76.1447 245.494 75.0324 244.075 74.0544C236.589 68.9549 227.998 65.7079 219.011 64.581C216.709 64.2934 214.581 64.1399 212.567 64.0824C211.937 61.6392 211.156 59.2375 210.228 56.8911C206.775 48.3766 201.4 40.7762 194.522 34.6843C185.949 27.2608 175.476 22.3732 164.28 20.5701C161.07 20.0546 157.827 19.7726 154.576 19.7263C156.168 19.5921 157.837 19.4771 159.543 19.4387C162.796 19.3912 166.048 19.5257 169.285 19.8414C171.953 20.1272 174.603 20.5562 177.224 21.1263C178.356 21.3372 179.353 21.6441 180.254 21.855C181.025 22.0339 181.787 22.2515 182.536 22.507L184.454 23.1015L182.709 22.0084C182.026 21.5826 181.322 21.1922 180.599 20.8386C179.756 20.4359 178.816 19.9181 177.704 19.4962C175.124 18.4014 172.447 17.5538 169.707 16.9649C166.326 16.2683 162.879 15.9468 159.428 16.006C155.98 16.106 152.552 16.5819 149.207 17.4251C146.497 18.1305 143.858 19.0871 141.325 20.2825C140.616 20.5893 140.021 20.9153 139.408 21.2413C136.545 21.8608 133.732 22.6876 130.989 23.7152C122.45 26.9556 114.631 31.8423 107.977 38.0978C103.859 41.9663 100.21 46.3043 97.1034 51.023C95.8826 49.9837 94.6019 49.0168 93.2681 48.1273C86.7765 43.9902 79.3957 41.4533 71.7325 40.725C67.2372 40.2731 62.708 40.2731 58.2128 40.725C53.3419 41.0865 48.5323 42.033 43.8877 43.544C34.7091 46.7208 27.1379 53.3628 22.7931 62.0497C19.2818 69.0197 18.1695 76.9539 19.629 84.6208C19.9261 86.1375 20.3102 87.6357 20.7796 89.1082L19.3605 89.952C18.625 85.9776 18.2146 81.95 18.1332 77.9089C17.9821 72.4069 19.1112 66.945 21.4316 61.9538C22.1821 60.4144 23.0882 58.9557 24.1355 57.6006C24.8834 56.6418 25.3628 56.124 25.3628 56.124C24.8062 56.4655 24.2685 56.8368 23.752 57.2362C22.3001 58.3287 21.009 59.6198 19.9166 61.0716C16.3522 65.9802 14.4932 71.9209 14.6238 77.9856C14.7387 82.564 15.5802 87.0951 17.1168 91.4094C11.4921 95.1807 6.88197 100.278 3.69297 106.252C1.63361 110.173 0.400062 114.474 0.0685491 118.89C-0.224939 123.631 0.426916 128.383 1.98621 132.87C5.05286 141.359 10.0945 148.997 16.6949 155.153C19.5115 157.894 22.7486 160.167 26.2833 161.884C33.3923 165.211 41.467 165.845 49.0079 163.668C51.6015 168.138 54.8314 172.208 58.5963 175.749C64.2196 181.227 71.0731 185.278 78.5834 187.564C86.0936 189.849 94.042 190.302 101.763 188.885C108.01 187.824 114.013 185.641 119.483 182.442C120.787 181.675 121.976 180.889 123.069 180.122C129.345 184.795 136.288 188.499 143.665 191.11C153.375 194.432 163.754 195.307 173.883 193.658C184.012 192.009 193.578 187.886 201.732 181.656C208.287 176.542 213.757 170.172 217.822 162.92C218.723 161.309 219.49 159.737 220.18 158.241C221.082 158.107 222.328 157.896 223.882 157.608C223.172 159.219 222.386 160.868 221.485 162.498C219.889 165.304 218.081 167.984 216.077 170.514C214.386 172.564 212.546 174.487 210.573 176.267C209.748 177.072 208.905 177.686 208.195 178.281C207.584 178.791 206.944 179.265 206.277 179.7L204.609 180.889L206.527 180.179C207.289 179.903 208.032 179.577 208.751 179.201C209.719 178.736 210.66 178.217 211.57 177.648C213.967 176.168 216.187 174.417 218.186 172.432C220.639 169.882 222.753 167.027 224.476 163.936C225.749 161.591 226.783 159.124 227.564 156.572C232.564 155.487 237.423 153.826 242.042 151.625C245.831 149.838 249.349 147.527 252.493 144.759C254.252 143.169 255.863 141.423 257.307 139.543C258.814 137.531 260.136 135.388 261.257 133.138C266.249 122.944 267.162 111.228 263.808 100.384C260.92 91.4914 255.606 83.5813 248.466 77.5446C248.947 77.6268 249.421 77.7422 249.885 77.8898C251.986 78.4969 253.965 79.4637 255.734 80.7471C258.3 82.65 260.513 84.9863 262.274 87.6508C264.417 90.8974 266.047 94.4549 267.106 98.1981C269.138 105.071 269.604 112.312 268.468 119.389C268.081 121.574 267.556 123.732 266.895 125.851L266.071 128.191C266.071 128.191 266.569 127.462 267.375 126.081C269.777 121.708 271.281 116.898 271.799 111.935C272.316 106.973 271.835 101.956 270.386 97.1817C269.232 93.0679 267.277 89.2227 264.632 85.8673ZM260.548 101.343C263.64 111.402 262.958 122.242 258.63 131.834C254.982 139.675 248.875 146.112 241.237 150.167C236.976 152.521 232.476 154.411 227.813 155.805C227.966 155.326 228.12 154.827 228.235 154.329C228.874 151.588 229.196 148.782 229.194 145.968C229.21 144.891 229.152 143.815 229.021 142.746C228.979 141.939 228.87 141.137 228.695 140.349L228.311 138.431L228.158 140.464C228.133 141.254 228.063 142.041 227.947 142.823C227.813 143.724 227.736 144.74 227.487 145.891C227.001 148.495 226.321 151.059 225.454 153.562C225.051 154.655 224.591 155.786 224.112 156.937C222.501 157.378 221.197 157.704 220.276 157.934C221.821 154.546 223.047 151.021 223.939 147.406C224.361 145.488 224.668 144.012 224.802 142.995C224.936 141.979 225.051 141.461 225.051 141.461L224.668 142.976C224.438 143.973 223.997 145.411 223.421 147.252C219.118 160.072 210.936 171.237 200.006 179.201C192.065 184.832 182.94 188.572 173.331 190.135C163.722 191.697 153.882 191.04 144.566 188.214C137.536 185.983 130.835 182.823 124.641 178.818C126.358 177.531 127.974 176.114 129.474 174.579C130.567 173.582 131.257 172.662 131.794 172.086L132.581 171.185L131.679 171.971C131.085 172.47 130.299 173.314 129.11 174.196C127.347 175.61 125.481 176.892 123.529 178.031L122.992 177.686C118.445 174.668 114.089 171.37 109.952 167.81C108.475 166.564 107.325 165.566 106.577 164.876L105.407 163.84L106.481 164.972C107.171 165.739 108.207 166.89 109.588 168.213C113.423 172.094 117.531 175.695 121.88 178.99C120.883 179.565 119.809 180.122 118.658 180.678C113.22 183.3 107.39 185.017 101.399 185.76C94.1073 186.767 86.6839 186.179 79.6415 184.036C72.5992 181.894 66.1058 178.249 60.6099 173.352C57.0165 170.246 53.8331 166.696 51.1365 162.786C52.2419 162.387 53.3239 161.926 54.3774 161.405L55.6047 160.772L54.3199 161.271C53.1824 161.689 52.0238 162.047 50.8489 162.345C50.1969 161.386 49.5832 160.427 49.0462 159.487C46.9278 155.942 45.241 152.157 44.0219 148.211C43.5233 146.831 43.3315 145.699 43.1206 144.951L42.8138 143.801L42.9672 144.97C43.1014 145.737 43.1589 146.888 43.4849 148.346C44.3089 152.487 45.6691 156.503 47.5313 160.293C47.9148 161.117 48.3559 161.942 48.8161 162.786C44.7616 163.559 40.5975 163.559 36.5429 162.786C33.3814 162.181 30.3297 161.101 27.4914 159.583C24.2761 157.793 21.3478 155.531 18.8043 152.871C12.8445 146.821 8.26505 139.553 5.38053 131.566C3.96412 127.495 3.31391 123.197 3.46284 118.89C3.68241 114.898 4.68592 110.988 6.41611 107.384C9.11665 101.799 13.0511 96.9003 17.9222 93.0586C18.1715 93.7298 18.4208 94.3818 18.6701 94.9763C19.5749 97.2001 20.5926 99.3764 21.7192 101.496L20.3193 94.4777L19.7632 91.6396L21.374 90.5081C22.4257 93.3762 23.8437 96.0963 25.593 98.6007C26.3681 99.7432 27.227 100.826 28.1627 101.842L29.1407 102.896L28.2777 101.765C25.6342 98.1536 23.6835 94.0831 22.5247 89.7602C25.5855 87.8114 28.791 86.0997 32.1131 84.64C35.2197 83.2593 37.0032 82.7223 37.0032 82.7223C37.0032 82.7223 35.0855 83.1634 31.9213 84.2373C28.5685 85.3467 25.3159 86.7388 22.1986 88.3987C20.1771 79.9668 21.3522 71.0848 25.4971 63.4688C29.7461 55.7029 36.7215 49.7865 45.0766 46.8616C49.4695 45.4454 54.0023 44.5067 58.5963 44.0618C62.8937 43.5769 67.226 43.4806 71.5407 43.7741C78.8664 44.1901 86.0072 46.2341 92.4435 49.7573C93.8385 50.5356 95.1834 51.4002 96.4706 52.3462C95.3392 54.2639 94.5529 55.5871 94.016 56.6035L93.2105 58.1184C93.2105 58.1184 93.5174 57.6198 94.131 56.6802C94.7447 55.7405 95.6652 54.3598 96.8925 52.653C97.3336 52.979 97.7555 53.3051 98.139 53.6311C96.4485 55.8992 94.9293 58.2901 93.5941 60.784C92.584 62.6402 91.6999 64.5623 90.9477 66.5371L95.0132 61.8004C96.4898 60.0745 98.3883 57.965 100.479 55.7021C101.672 56.8321 102.793 58.0362 103.835 59.3074C104.691 60.3686 105.478 61.4831 106.193 62.6442L106.941 63.8715L106.328 62.5675C105.702 61.3357 105.011 60.1386 104.256 58.9814C103.31 57.5794 102.266 56.2465 101.131 54.9926L104.966 50.8887C108.936 46.7273 112.637 43.0454 115.417 40.4182L119.943 36.1226C118.022 36.9723 116.158 37.9459 114.363 39.0374C110.003 41.654 106.011 44.8398 102.492 48.5108C101.22 49.8489 100.017 51.2506 98.8869 52.7106L97.6979 51.6366C101.082 47.2086 104.941 43.1638 109.204 39.5744C116.011 33.8821 123.813 29.4998 132.216 26.6492C142.33 23.2016 153.132 22.2734 163.685 23.9453C174.297 25.6455 184.276 30.1025 192.623 36.8705C199.404 42.5199 204.868 49.5816 208.636 57.5623C209.599 59.6767 210.451 61.8403 211.187 64.0441C207.785 64.0168 204.387 64.254 201.023 64.7536C198.913 65.0604 197.303 65.3865 196.229 65.6358L194.579 66.0193L196.248 65.7892C197.341 65.6166 198.971 65.4248 201.08 65.2906C204.585 65.0315 208.104 65.0315 211.608 65.2906C212.571 68.3553 213.258 71.5001 213.66 74.6873C213.89 76.7967 214.044 78.5226 214.044 79.5773C214.044 80.6321 214.044 81.3033 214.044 81.3033C214.044 81.3033 214.044 80.7088 214.044 79.5965C214.132 77.9421 214.132 76.2841 214.044 74.6297C213.874 71.5221 213.432 68.4355 212.721 65.4056C214.638 65.5782 216.556 65.8467 218.57 66.2303C227.11 67.7922 235.191 71.2525 242.215 76.3556C250.785 82.5618 257.191 91.3019 260.529 101.343L260.548 101.343Z"
    fill="#3A261B" />
  <path
    d="M79.7505 190.528C75.5478 188.809 71.5423 186.642 67.8033 184.066C63.3926 181.112 59.4997 178.121 56.6232 175.973C53.7467 173.825 51.9057 172.502 51.9057 172.502C51.9057 172.502 53.133 174.42 55.4343 177.219C58.4332 180.947 61.9607 184.216 65.9048 186.923C69.9314 189.657 74.5174 191.459 79.3286 192.197C80.7694 192.408 82.2267 192.485 83.6818 192.427C84.6981 192.427 85.2734 192.331 85.2734 192.331L83.7393 191.909C82.7613 191.621 81.3805 191.18 79.7505 190.528Z"
    fill="#3A261B" />
  <path
    d="M10.3298 126.33C9.54352 122.131 8.96822 118.276 8.66139 115.419C8.35456 112.561 8.20114 110.701 8.20114 110.701L7.77924 111.929C6.45674 116.231 6.07369 120.767 6.65598 125.23C7.23827 129.693 8.77233 133.979 11.1544 137.798C11.7705 138.799 12.4494 139.76 13.1871 140.675L14.0117 141.672L12.746 137.127C11.979 134.327 11.116 130.53 10.3298 126.33Z"
    fill="#3A261B" />
  <path
    d="M25.9244 27.6728L26.2844 27.8828C27.3278 28.8199 28.546 29.5417 29.8691 30.0068C31.1922 30.4718 32.5941 30.671 33.9944 30.5928C35.1449 30.5359 36.2791 30.2962 37.3544 29.8828C37.7435 29.7341 38.1212 29.557 38.4844 29.3528C38.0732 29.4589 37.6557 29.5391 37.2344 29.5928C36.1531 29.7686 35.0529 29.7955 33.9644 29.6728C33.1265 29.5759 32.3016 29.3881 31.5044 29.1128C31.9741 29.0441 32.434 28.9199 32.8744 28.7428C34.004 28.2969 34.9922 27.5541 35.7344 26.5928C36.5543 25.5018 37.0375 24.1948 37.1244 22.8328C37.2078 21.3656 36.9007 19.9026 36.2344 18.5928C35.634 17.3482 34.7474 16.2634 33.6472 15.4274C32.547 14.5913 31.2643 14.0278 29.9044 13.7828C29.5437 13.7252 29.1795 13.6918 28.8144 13.6828C29.1358 13.516 29.4702 13.3756 29.8144 13.2628C30.096 13.1552 30.3874 13.0748 30.6844 13.0228L30.9944 12.9528L30.6744 12.9528C30.3649 12.9265 30.0538 12.9265 29.7444 12.9528C28.8853 13.072 28.0552 13.3465 27.2944 13.7628C26.9886 13.8101 26.6875 13.8837 26.3944 13.9828C25.4099 14.3018 24.5153 14.8502 23.7844 15.5828C22.7384 16.5945 22.0653 17.9302 21.8744 19.3728C21.8335 19.7517 21.8335 20.1339 21.8744 20.5128C21.8744 20.7628 21.9244 20.9028 21.9244 20.9028L21.9244 20.5028C21.9507 20.1365 22.0178 19.7742 22.1244 19.4228C22.5097 18.1603 23.2873 17.0534 24.3444 16.2628C24.4403 16.1872 24.5405 16.117 24.6444 16.0528C24.0953 16.8024 23.6886 17.6464 23.4444 18.5428C22.8641 20.7194 23.1062 23.0335 24.1244 25.0428C24.5235 25.8273 25.0319 26.5511 25.6344 27.1928L24.6344 26.7828C24.6344 26.7828 25.0844 27.1728 25.9244 27.6728ZM24.9244 18.9728C25.1766 17.5574 25.8491 16.2507 26.8544 15.2228C27.7668 15.054 28.7049 15.0847 29.6044 15.3128C30.6859 15.5946 31.6932 16.1081 32.5565 16.8177C33.4199 17.5274 34.1186 18.4163 34.6044 19.4228C35.1215 20.3971 35.3768 21.489 35.3453 22.5916C35.3137 23.6942 34.9964 24.7697 34.4244 25.7128C33.9492 26.4999 33.2788 27.1509 32.4782 27.6029C31.6776 28.0549 30.7738 28.2926 29.8544 28.2928C29.7344 28.2928 29.6244 28.2928 29.5044 28.2928C27.8868 27.3624 26.5659 25.9929 25.6944 24.3428C24.8745 22.6795 24.6182 20.7946 24.9644 18.9728L24.9244 18.9728Z"
    fill="#3A261B" />
  <path
    d="M17.5821 9.80204C18.2577 9.08864 18.7397 8.21428 18.9821 7.26206C19.2494 6.16195 19.0923 5.00148 18.5421 4.01206C17.9893 3.07329 17.1622 2.32641 16.1721 1.87205C15.3346 1.47132 14.4204 1.25641 13.4921 1.24204C13.6812 1.14189 13.8786 1.05825 14.0821 0.992042C14.7279 0.733326 15.4164 0.597666 16.1121 0.592048C16.3085 0.578757 16.5056 0.578757 16.7021 0.592048L16.9121 0.592048L16.7221 0.502052C16.5396 0.405198 16.3488 0.324886 16.1521 0.262062C15.4114 0.0181796 14.6255 -0.0569891 13.8521 0.0420604C12.401 0.217294 11.0551 0.888487 10.0421 1.94205C9.67206 2.12205 9.31207 2.31204 9.04206 2.49204C8.1994 3.00233 7.40005 3.58096 6.65207 4.22205L5.84206 4.92203L6.84206 4.46204C7.39206 4.19204 8.16206 3.81204 9.11206 3.46204C8.80791 4.08883 8.62471 4.76735 8.57206 5.46204C8.45532 6.98568 8.87252 8.50245 9.75206 9.75205C10.2838 10.4922 10.9652 11.1123 11.7521 11.5721L10.5821 11.902L9.58206 12.172L10.5721 12.172C11.2743 12.1699 11.9757 12.1231 12.6721 12.0321C13.3094 12.2911 13.9852 12.4432 14.6721 12.4821C14.9482 12.506 15.2259 12.506 15.5021 12.4821C15.5021 12.4821 15.2121 12.4021 14.7321 12.2221C14.4308 12.1032 14.1369 11.9663 13.8521 11.812C14.4146 11.6801 14.9637 11.4959 15.4921 11.2621C16.2753 10.9128 16.9846 10.4172 17.5821 9.80204ZM10.9821 8.99204C10.4553 7.9617 10.2234 6.80584 10.3121 5.65205C10.3883 4.60576 10.8024 3.61258 11.4921 2.82206C12.092 2.71009 12.7047 2.68314 13.3121 2.74204C14.0445 2.80236 14.7539 3.02698 15.3875 3.39921C16.0212 3.77143 16.5628 4.28168 16.9721 4.89204C17.2782 5.52833 17.3893 6.24094 17.2914 6.94022C17.1936 7.6395 16.8911 8.29424 16.4221 8.82206C15.595 9.84996 14.5021 10.6316 13.2621 11.082L12.9021 11.212C12.1038 10.6253 11.4476 9.86658 10.9821 8.99204Z"
    fill="#3A261B" />

      <text x="50%" y="50%" dominant-baseline="middle" text-anchor="middle" font-size="20" fill="green" font-weight="bold">Text goes here</text>
</svg>