<svg width="53" height="54" xmlns="http://www.w3.org/2000/svg" xmlns:xlink="http://www.w3.org/1999/xlink" xml:space="preserve" overflow="hidden"><g transform="translate(-300 -360)"><g><g><g><g><path d="M333.727 391.505 333.727 388.052 332.623 388.052 332.623 392.608 333.727 391.505Z" fill="#294294" fill-rule="nonzero" fill-opacity="1"/><path d="M335.936 389.295 335.936 380.323C335.936 380.018 335.689 379.771 335.384 379.771 335.079 379.771 334.832 380.018 334.832 380.323L334.832 390.4Z" fill="#294294" fill-rule="nonzero" fill-opacity="1"/><path d="M331.52 393.711 331.52 380.323C331.52 380.018 331.272 379.771 330.967 379.771 330.663 379.771 330.415 380.018 330.415 380.323L330.415 394.816Z" fill="#294294" fill-rule="nonzero" fill-opacity="1"/><path d="M323.968 390.678 323.968 380.323C323.968 380.018 323.721 379.771 323.416 379.771 323.111 379.771 322.864 380.018 322.864 380.323L322.864 389.574Z" fill="#294294" fill-rule="nonzero" fill-opacity="1"/><path d="M319.551 388.565 319.551 380.323C319.551 380.018 319.304 379.771 318.999 379.771 318.694 379.771 318.447 380.018 318.447 380.323L318.447 389.669Z" fill="#294294" fill-rule="nonzero" fill-opacity="1"/><path d="M303.667 388.172C303.94 388.309 304.272 388.2 304.409 387.927 304.545 387.656 304.437 387.327 304.168 387.188 303.874 387.019 303.719 386.683 303.781 386.349L305.165 378.486C305.196 378.382 305.253 378.289 305.331 378.215 305.917 377.775 306.581 377.45 307.288 377.257 307.862 377.103 308.453 377.02 309.048 377.01 309.623 377.016 310.194 377.098 310.747 377.255 311.458 377.447 312.126 377.773 312.714 378.216 312.793 378.274 312.848 378.359 312.871 378.454L314.592 387.602C314.648 387.902 314.937 388.099 315.237 388.042 315.46 387.999 315.634 387.825 315.676 387.602L317.388 378.487C317.408 378.379 317.467 378.283 317.553 378.216 318.144 377.773 318.812 377.447 319.524 377.254 320.077 377.098 320.647 377.016 321.221 377.01 321.813 377.02 322.401 377.102 322.972 377.255 323.69 377.45 324.365 377.781 324.96 378.228 325.017 378.29 325.063 378.361 325.095 378.439L326.555 387.587C326.598 387.852 326.824 388.048 327.092 388.052 327.359 388.049 327.587 387.862 327.644 387.602L329.356 378.487C329.376 378.379 329.435 378.283 329.522 378.216 330.112 377.773 330.78 377.447 331.492 377.254 332.045 377.098 332.615 377.016 333.188 377.01 333.78 377.02 334.368 377.102 334.94 377.255 335.659 377.45 336.333 377.781 336.928 378.228 336.985 378.291 337.031 378.363 337.064 378.441L338.425 386.808 339.385 385.844 338.143 378.216C338.055 377.865 337.853 377.554 337.57 377.33 336.866 376.802 336.067 376.413 335.217 376.183 334.555 376.008 333.873 375.915 333.188 375.906 332.518 375.912 331.851 376.007 331.205 376.188 330.358 376.417 329.561 376.806 328.859 377.332 328.563 377.56 328.358 377.885 328.28 378.25L327.151 384.25C327.148 384.267 327.143 384.267 327.14 384.25L326.175 378.218C326.086 377.868 325.885 377.556 325.602 377.332 324.898 376.804 324.099 376.415 323.249 376.186 322.587 376.01 321.906 375.916 321.221 375.906 320.55 375.912 319.883 376.007 319.237 376.188 318.391 376.417 317.595 376.806 316.894 377.332 316.597 377.559 316.392 377.885 316.315 378.25L315.14 384.485C315.14 384.501 315.132 384.501 315.129 384.485L313.95 378.219C313.87 377.865 313.667 377.551 313.377 377.332 312.676 376.806 311.881 376.418 311.034 376.189 310.388 376.007 309.719 375.912 309.047 375.906 308.359 375.916 307.676 376.011 307.011 376.188 306.174 376.413 305.387 376.796 304.692 377.314 304.387 377.549 304.172 377.882 304.085 378.256L302.692 386.162C302.548 386.972 302.942 387.784 303.667 388.172Z" fill="#294294" fill-rule="nonzero" fill-opacity="1"/><path d="M321.207 374.802C319.682 374.802 318.446 373.566 318.446 372.042 318.446 370.517 319.682 369.281 321.207 369.281 322.731 369.281 323.967 370.517 323.967 372.042 323.965 373.565 322.73 374.8 321.207 374.802ZM321.207 370.385C320.292 370.385 319.55 371.127 319.55 372.042 319.55 372.956 320.292 373.698 321.207 373.698 322.121 373.698 322.863 372.956 322.863 372.042 322.863 371.127 322.121 370.385 321.207 370.385Z" fill="#294294" fill-rule="nonzero" fill-opacity="1"/><path d="M309.061 374.802C307.536 374.802 306.3 373.566 306.3 372.042 306.3 370.517 307.536 369.281 309.061 369.281 310.585 369.281 311.821 370.517 311.821 372.042 311.819 373.565 310.585 374.8 309.061 374.802ZM309.061 370.385C308.146 370.385 307.405 371.127 307.405 372.042 307.405 372.956 308.146 373.698 309.061 373.698 309.976 373.698 310.717 372.956 310.717 372.042 310.717 371.127 309.976 370.385 309.061 370.385Z" fill="#294294" fill-rule="nonzero" fill-opacity="1"/><path d="M333.175 374.802C331.65 374.802 330.414 373.566 330.414 372.042 330.414 370.517 331.65 369.281 333.175 369.281 334.699 369.281 335.935 370.517 335.935 372.042 335.933 373.565 334.698 374.8 333.175 374.802ZM333.175 370.385C332.26 370.385 331.518 371.127 331.518 372.042 331.518 372.956 332.26 373.698 333.175 373.698 334.089 373.698 334.831 372.956 334.831 372.042 334.831 371.127 334.089 370.385 333.175 370.385Z" fill="#294294" fill-rule="nonzero" fill-opacity="1"/><path d="M306.302 391.926 306.302 400.21 307.907 400.21 309.613 398.504 309.613 391.926 310.717 391.926 310.717 397.398 311.821 396.294 311.821 391.926 313.928 391.926 311.823 384.34 311.823 380.323C311.823 380.018 311.576 379.771 311.271 379.771 310.966 379.771 310.719 380.018 310.719 380.323L310.719 384.415 312.478 390.82 305.648 390.82 307.406 384.488 307.406 380.321C307.406 380.016 307.159 379.769 306.854 379.769 306.549 379.769 306.302 380.016 306.302 380.321L306.302 384.338 304.196 391.926ZM307.406 391.926 308.51 391.926 308.51 399.106 307.406 399.106Z" fill="#294294" fill-rule="nonzero" fill-opacity="1"/><path d="M341.958 378.667C341.653 378.667 341.406 378.914 341.406 379.219 341.406 379.524 341.653 379.771 341.958 379.771L347.789 379.771C347.797 379.771 347.798 379.775 347.793 379.78L329.26 398.313 320.703 389.756 304.578 405.88C304.359 406.092 304.353 406.442 304.565 406.661 304.777 406.88 305.126 406.887 305.345 406.675 305.35 406.67 305.355 406.666 305.359 406.661L320.703 391.317 329.26 399.874 348.574 380.561C348.579 380.556 348.583 380.558 348.583 380.565L348.583 386.396C348.583 386.701 348.831 386.948 349.135 386.948 349.44 386.948 349.688 386.701 349.688 386.396L349.688 378.667Z" fill="#294294" fill-rule="nonzero" fill-opacity="1"/></g></g></g></g></g></svg>