<svg width="55" height="55" xmlns="http://www.w3.org/2000/svg" xmlns:xlink="http://www.w3.org/1999/xlink" xml:space="preserve" overflow="hidden"><g transform="translate(-613 -361)"><g><g><g><g><path d="M640.5 373.042C641.567 373.042 642.432 372.177 642.432 371.109 642.432 370.042 641.567 369.177 640.5 369.177L640.445 369.177C639.394 369.196 638.556 370.059 638.568 371.109 638.57 372.176 639.434 373.04 640.5 373.042ZM640.464 370.281 640.5 370.281C640.957 370.281 641.328 370.652 641.328 371.109 641.328 371.567 640.957 371.938 640.5 371.938 640.043 371.938 639.672 371.567 639.672 371.109 639.672 371.107 639.672 371.104 639.672 371.102 639.665 370.657 640.019 370.29 640.464 370.281Z" fill="#294294" fill-rule="nonzero" fill-opacity="1"/><path d="M632.081 384.405 630.263 382.588 629.483 383.368 632.081 385.967 636.888 381.16 636.108 380.379 632.081 384.405Z" fill="#294294" fill-rule="nonzero" fill-opacity="1"/><path d="M639.948 382.426 651.542 382.426 651.542 383.53 639.948 383.53Z" fill="#294294" fill-rule="nonzero" fill-opacity="1"/><path d="M631.943 390.754 630.263 389.075 629.483 389.855 631.943 392.316 636.474 387.785 635.694 387.004 631.943 390.754Z" fill="#294294" fill-rule="nonzero" fill-opacity="1"/><path d="M639.948 389.051 651.542 389.051 651.542 390.155 639.948 390.155Z" fill="#294294" fill-rule="nonzero" fill-opacity="1"/><path d="M639.948 395.676 651.542 395.676 651.542 396.78 639.948 396.78Z" fill="#294294" fill-rule="nonzero" fill-opacity="1"/><path d="M639.948 402.301 651.542 402.301 651.542 403.405 639.948 403.405Z" fill="#294294" fill-rule="nonzero" fill-opacity="1"/><path d="M634.313 393.629 632.495 395.447 630.677 393.629 629.897 394.41 631.715 396.228 629.897 398.046 630.677 398.827 632.495 397.009 634.313 398.827 635.094 398.046 633.276 396.228 635.094 394.41 634.313 393.629Z" fill="#294294" fill-rule="nonzero" fill-opacity="1"/><path d="M634.313 400.254 632.495 402.072 630.677 400.254 629.897 401.035 631.715 402.853 629.897 404.671 630.677 405.452 632.495 403.634 634.313 405.452 635.094 404.671 633.276 402.853 635.094 401.035 634.313 400.254Z" fill="#294294" fill-rule="nonzero" fill-opacity="1"/><path d="M657.062 372.478C657.062 371.258 656.074 370.27 654.854 370.27L646.573 370.27 646.573 369.165C646.571 367.642 645.336 366.407 643.812 366.405L637.188 366.405C635.664 366.407 634.429 367.642 634.427 369.165L634.427 370.27 626.146 370.27C624.927 370.271 623.939 371.259 623.938 372.478L623.938 408.375C623.938 409.595 624.926 410.583 626.146 410.583L654.854 410.583C656.074 410.583 657.062 409.595 657.062 408.375ZM633.323 371.374 635.531 371.374 635.531 369.165C635.531 368.251 636.273 367.509 637.188 367.509L643.812 367.509C644.727 367.509 645.469 368.251 645.469 369.165L645.469 371.374 647.677 371.374 647.677 375.802 633.323 375.802ZM654.854 409.479 626.146 409.479C625.536 409.479 625.042 408.985 625.042 408.375L625.042 372.478C625.042 371.868 625.536 371.374 626.146 371.374L632.219 371.374 632.219 376.906 648.781 376.906 648.781 371.374 654.854 371.374C655.464 371.374 655.958 371.868 655.958 372.478L655.958 408.375C655.958 408.985 655.464 409.479 654.854 409.479Z" fill="#294294" fill-rule="nonzero" fill-opacity="1"/></g></g></g></g></g></svg>