<svg width="75" height="75" viewBox="0 0 75 75" fill="none" xmlns="http://www.w3.org/2000/svg">
<rect x="0.320312" y="0.666016" width="74.1331" height="74.1331" rx="10.018" fill="white"/>
<g clip-path="url(#clip0_1171_5010)">
<path d="M42.2402 35.1907C41.8042 35.6019 41.5288 36.1563 41.4676 36.7655C41.3909 37.5291 41.6613 38.2751 42.2094 38.8121C43.5108 40.0875 45.6284 40.0877 46.9298 38.8121C47.478 38.275 47.7483 37.5289 47.6716 36.7653C47.6103 36.1561 47.3348 35.6018 46.8989 35.1906V34.6605H55.514C56.1556 34.6605 56.6776 34.1385 56.6776 33.4968V15.5018C56.6776 12.8504 54.5206 10.6934 51.8692 10.6934H15.1366C12.4852 10.6934 10.3281 12.8504 10.3281 15.5018V52.2343C10.3281 54.8857 12.4852 57.0428 15.1366 57.0428H33.0144C33.7208 57.0428 34.2953 56.4682 34.2953 55.7619V47.4916C34.2953 46.5794 33.5533 45.8372 32.641 45.8372H31.7989C31.5303 45.8372 31.28 45.9733 31.1339 46.1987C30.9796 46.4366 30.7293 46.5894 30.4471 46.6179C30.1646 46.6459 29.8892 46.5462 29.6907 46.3437C29.0148 45.6539 29.0148 44.5317 29.6907 43.842C29.8891 43.6394 30.1645 43.5394 30.4471 43.5678C30.7293 43.5961 30.9796 43.7489 31.1339 43.9869C31.28 44.2123 31.5303 44.3484 31.7989 44.3484H32.641C33.5533 44.3484 34.2953 43.6063 34.2953 42.6941V34.6605H42.2402V35.1907ZM32.641 42.7635H32.1803C31.7691 42.3275 31.2148 42.0521 30.6056 41.9909C29.8418 41.9141 29.0959 42.1846 28.5589 42.7328C27.2833 44.0342 27.2833 46.1517 28.5589 47.4531C29.0959 48.0013 29.8419 48.2715 30.6056 48.1949C31.2148 48.1338 31.7692 47.8582 32.1803 47.4223H32.641C32.6793 47.4223 32.7104 47.4534 32.7104 47.4918V55.4581H15.1366C13.3592 55.4579 11.913 54.0118 11.913 52.2344V34.6606H19.8793C20.7915 34.6606 21.5335 33.9185 21.5335 33.0064V32.1641C21.5335 31.8956 21.3975 31.6452 21.1721 31.4992C20.9341 31.345 20.7814 31.0947 20.7529 30.8124C20.7246 30.5302 20.8246 30.2544 21.0271 30.056C21.717 29.38 22.8393 29.3801 23.5288 30.056C23.7315 30.2546 23.8313 30.5303 23.8031 30.8125C23.7747 31.0948 23.6219 31.3451 23.384 31.4993C23.1586 31.6454 23.0225 31.8957 23.0225 32.1642V33.0065C23.0225 33.9186 23.7645 34.6607 24.6768 34.6607H27.7048C28.1426 34.6607 28.4973 34.3059 28.4973 33.8682C28.4973 33.4306 28.1426 33.0758 27.7048 33.0758H24.6768C24.6386 33.0758 24.6074 33.0447 24.6074 33.0065V32.5457C25.0433 32.1345 25.3188 31.5802 25.38 30.9709C25.4567 30.2073 25.1863 29.4613 24.6381 28.9241C23.3369 27.6489 21.2194 27.6487 19.9177 28.9241C19.3695 29.4613 19.0992 30.2073 19.1759 30.9709C19.237 31.5802 19.5126 32.1345 19.9484 32.5457V33.0065C19.9484 33.0447 19.9174 33.0758 19.8791 33.0758H11.913V15.5018C11.913 13.7243 13.3592 12.2783 15.1366 12.2783H32.7104V20.7433C32.7104 21.4676 33.2997 22.057 34.0241 22.057H35.2069C35.4754 22.057 35.7257 21.9209 35.8719 21.6955C36.0261 21.4575 36.2764 21.3048 36.5587 21.2763C36.8413 21.248 37.1165 21.348 37.3151 21.5505C37.9909 22.2403 37.9909 23.3625 37.3151 24.0522C37.1167 24.2548 36.8412 24.3545 36.5587 24.3264C36.2764 24.2981 36.0261 24.1453 35.8719 23.9073C35.7257 23.6819 35.4754 23.5458 35.2069 23.5458H34.0241C33.2998 23.5458 32.7104 24.1352 32.7104 24.8595V33.0756H31.082C30.6443 33.0756 30.2896 33.4304 30.2896 33.868C30.2896 34.3057 30.6443 34.6605 31.082 34.6605H32.7104V42.6941C32.7104 42.7324 32.6793 42.7635 32.641 42.7635ZM34.2953 33.0757V25.1308H34.8255C35.2368 25.5668 35.791 25.8422 36.4003 25.9034C37.164 25.9798 37.9098 25.7097 38.447 25.1615C39.7223 23.8601 39.7223 21.7426 38.447 20.4412C37.9099 19.893 37.164 19.6226 36.4003 19.6994C35.791 19.7605 35.2366 20.0361 34.8255 20.4719H34.2953V12.2783H51.8691C53.6465 12.2783 55.0926 13.7243 55.0926 15.5018V33.0757H46.6277C45.9034 33.0757 45.3139 33.665 45.3139 34.3893V35.5721C45.3139 35.8407 45.45 36.091 45.6754 36.2371C45.9135 36.3914 46.0662 36.6417 46.0946 36.9239C46.123 37.2061 46.023 37.4818 45.8205 37.6803C45.1305 38.3563 44.0084 38.3561 43.3186 37.6803C43.116 37.4819 43.0162 37.2062 43.0445 36.924C43.0728 36.6418 43.2256 36.3914 43.4636 36.2371C43.689 36.0911 43.8251 35.8408 43.8251 35.5722V34.3894C43.8251 33.6651 43.2357 33.0758 42.5113 33.0758H34.2953V33.0757Z" fill="#D09C0A"/>
<path d="M63.5816 40.8028H54.377C53.6527 40.8028 53.0633 41.3922 53.0633 42.1165V43.2992C53.0633 43.5677 53.1992 43.818 53.4247 43.9641C53.6628 44.1183 53.8155 44.3687 53.8439 44.651C53.8723 44.9332 53.7723 45.2088 53.5698 45.4074C52.8802 46.0832 51.7577 46.0834 51.068 45.4074C50.8653 45.2088 50.7655 44.9331 50.7938 44.6509C50.8221 44.3686 50.9749 44.1183 51.213 43.9641C51.4383 43.8179 51.5744 43.5676 51.5744 43.299V42.1164C51.5744 41.3921 50.985 40.8027 50.2606 40.8027H41.3049C40.8389 40.8027 40.4597 41.1819 40.4597 41.648V44.2809C40.4597 44.7186 40.8144 45.0734 41.2521 45.0734C41.6898 45.0734 42.0445 44.7186 42.0445 44.2809V42.3876H49.9894V42.9177C49.5535 43.329 49.278 43.8832 49.2168 44.4925C49.14 45.2561 49.4104 46.0021 49.9587 46.5393C51.2601 47.8148 53.3776 47.8147 54.6791 46.5393C55.2272 46.0022 55.4976 45.2562 55.4208 44.4926C55.3597 43.8832 55.0841 43.329 54.6483 42.9177V42.3876H62.8421V59.9615C62.8421 61.739 61.3959 63.185 59.6185 63.185H42.0447V55.2187C42.0447 54.3066 41.3026 53.5645 40.3903 53.5645H39.5482C39.2796 53.5645 39.0293 53.7006 38.8832 53.926C38.7289 54.1639 38.4786 54.3167 38.1964 54.345C37.9153 54.3736 37.6384 54.2735 37.4399 54.0708C36.764 53.3811 36.7641 52.2589 37.44 51.5691C37.6385 51.3666 37.9148 51.2671 38.1964 51.295C38.4786 51.3233 38.7289 51.476 38.8832 51.714C39.0293 51.9394 39.2796 52.0755 39.5482 52.0755H40.3903C41.3026 52.0755 42.0447 51.3334 42.0447 50.4213V47.6583C42.0447 47.2206 41.69 46.8658 41.2522 46.8658C40.8145 46.8658 40.4598 47.2206 40.4598 47.6583V50.4213C40.4598 50.4595 40.4286 50.4906 40.3903 50.4906H39.9297C39.5184 50.0546 38.9641 49.7792 38.355 49.718C37.5912 49.6413 36.8454 49.9115 36.3081 50.4598C35.0327 51.7612 35.0328 53.8788 36.3082 55.1802C36.8452 55.7283 37.5911 55.9984 38.3549 55.922C38.9642 55.8608 39.5185 55.5854 39.9297 55.1494H40.3903C40.4286 55.1494 40.4598 55.1805 40.4598 55.2187V63.4014C40.4598 64.1561 41.0737 64.77 41.8283 64.77H59.6184C62.2698 64.77 64.4269 62.613 64.4269 59.9616V41.6481C64.4269 41.1821 64.0476 40.8028 63.5816 40.8028Z" fill="#D09C0A"/>
</g>
<defs>
<clipPath id="clip0_1171_5010">
<rect width="54.0971" height="54.0971" fill="white" transform="translate(10.3359 10.6836)"/>
</clipPath>
</defs>
</svg>
