<svg width="75" height="75" viewBox="0 0 75 75" fill="none" xmlns="http://www.w3.org/2000/svg">
<rect x="0.757812" y="0.666016" width="74.1331" height="74.1331" rx="10.018" fill="white"/>
<g clip-path="url(#clip0_1171_5001)">
<path d="M59.4121 17.3598C55.8916 13.8392 51.2109 11.9004 46.2321 11.9004C41.2534 11.9004 36.5726 13.8392 33.0521 17.3598C29.5315 20.8802 27.5927 25.561 27.5927 30.5397C27.5927 33.3103 28.1939 35.9883 29.3332 38.4258L27.3628 40.3962C26.2941 41.465 26.2941 43.204 27.3628 44.2727L27.574 44.4839L24.393 47.6648L21.7689 45.0409C21.0982 44.3702 20.0069 44.3703 19.3359 45.0409L17.0366 47.3402C16.5137 47.8631 16.5137 48.714 17.0366 49.2368L17.8932 50.0934C17.9248 50.125 17.9248 50.1764 17.8932 50.2078L16.4363 51.6646C16.4048 51.6962 16.3535 51.6962 16.3219 51.6646L15.4653 50.8081C15.2121 50.5548 14.8752 50.4153 14.517 50.4153C14.1588 50.4153 13.822 50.5548 13.5687 50.8081L11.2695 53.1076C10.9446 53.4326 10.7656 53.8645 10.7656 54.3241C10.7656 54.7837 10.9447 55.2157 11.2695 55.5405L13.8935 58.1646L13.6711 58.3869C12.7083 59.3499 12.7083 60.9166 13.6711 61.8795L14.6374 62.8457C15.1039 63.3121 15.7241 63.5691 16.3838 63.5691C17.0433 63.5691 17.6635 63.3121 18.13 62.8457L32.033 48.9428L32.2751 49.1849C32.7928 49.7026 33.4812 49.9877 34.2134 49.9877C34.9456 49.9877 35.6339 49.7026 36.1516 49.1849L38.0435 47.2931C40.5611 48.5264 43.3462 49.179 46.2319 49.179C51.2108 49.179 55.8915 47.2401 59.412 43.7196C66.6795 36.4522 66.6795 24.6273 59.4121 17.3598ZM17.0103 61.7262C16.665 62.0715 16.1025 62.0717 15.7572 61.7262L14.791 60.7599C14.6236 60.5926 14.5314 60.3701 14.5314 60.1333C14.5314 59.8966 14.6236 59.6741 14.791 59.5066L17.2478 57.0498L19.4673 59.2692L17.0103 61.7262ZM19.3725 54.9253L21.5919 57.1447L20.5871 58.1495L18.3677 55.9301L19.3725 54.9253ZM22.7115 56.025L20.4921 53.8055L21.1168 53.1808C21.426 52.8716 21.426 52.3702 21.1168 52.0611C20.8076 51.7519 20.3064 51.7519 19.9971 52.0611L15.0132 57.0449L12.3892 54.4209C12.3562 54.3878 12.3491 54.35 12.3491 54.3241C12.3491 54.2982 12.3561 54.2604 12.3893 54.2273L14.5172 52.0993L15.2024 52.7845C15.5169 53.0989 15.9348 53.272 16.3793 53.272C16.8239 53.272 17.2419 53.0989 17.5563 52.7845L19.0131 51.3277C19.662 50.6788 19.662 49.6228 19.0131 48.9739L18.3279 48.2886L20.4558 46.1607C20.5091 46.1074 20.5961 46.1073 20.6494 46.1607L23.2734 48.7847L22.3865 49.6715C22.0773 49.9807 22.0773 50.4821 22.3865 50.7912C22.5411 50.9458 22.7437 51.0231 22.9464 51.0231C23.149 51.0231 23.3517 50.9458 23.5063 50.7912L28.6939 45.6036L30.9133 47.8231L22.7115 56.025ZM35.032 48.0652C34.8135 48.2839 34.5227 48.4043 34.2135 48.4043C33.9042 48.4043 33.6135 48.2839 33.395 48.0652L28.4827 43.153C28.0314 42.7017 28.0314 41.9673 28.4827 41.5159L30.1033 39.8953C30.9068 41.2752 31.8932 42.5606 33.0522 43.7197C34.1321 44.7996 35.3218 45.7301 36.5952 46.5021L35.032 48.0652ZM58.2924 42.6C55.071 45.8214 50.788 47.5955 46.2322 47.5955C41.6764 47.5955 37.3933 45.8213 34.172 42.6C30.9505 39.3785 29.1764 35.0955 29.1764 30.5397C29.1764 25.984 30.9506 21.7009 34.172 18.4795C37.3934 15.258 41.6764 13.484 46.2322 13.484C50.788 13.484 55.0711 15.2581 58.2924 18.4795C64.9424 25.1296 64.9424 35.9499 58.2924 42.6Z" fill="#D09C0A"/>
<path d="M60.4233 27.9338C59.8957 25.0463 58.5159 22.4191 56.4329 20.3362C53.7072 17.6105 50.0834 16.1094 46.2287 16.1094C42.3742 16.1094 38.7502 17.6104 36.0245 20.3362C30.3981 25.9627 30.3981 35.1178 36.0245 40.7444C38.7502 43.47 42.3742 44.9711 46.2287 44.9711C50.0834 44.9711 53.7072 43.4701 56.4328 40.7445C56.8583 40.319 57.2615 39.8625 57.6308 39.3875C57.8992 39.0423 57.837 38.545 57.4919 38.2765C57.1466 38.0081 56.6493 38.0702 56.3808 38.4155C56.0518 38.8387 55.6925 39.2455 55.3132 39.6247C54.8658 40.0721 54.3911 40.4821 53.893 40.8538C53.2903 39.9224 52.4068 39.184 51.3702 38.7681L48.718 37.7039V37.0344C49.2432 36.7447 49.7122 36.366 50.1062 35.9192C50.2977 35.9416 50.4882 35.9529 50.6771 35.9529C52.1401 35.9529 53.5021 35.2887 54.4212 34.0971C55.4956 32.704 55.7191 30.9088 55.0191 29.2949L53.8283 26.5491C53.7387 26.3425 53.6771 26.1249 53.6452 25.9024C53.3884 24.1187 52.4971 22.4866 51.1353 21.3066C49.7734 20.1266 48.0309 19.4768 46.2289 19.4768C45.0469 19.4768 43.866 19.762 42.8142 20.3013C42.4249 20.5008 42.2713 20.978 42.4709 21.3671C42.6704 21.7561 43.1476 21.9098 43.5367 21.7103C44.3779 21.279 45.2837 21.0602 46.2289 21.0602C49.1476 21.0602 51.6621 23.2388 52.0777 26.1277C52.1298 26.4896 52.23 26.8433 52.3755 27.179L53.5663 29.9249C54.0336 31.0021 53.8844 32.2001 53.1673 33.1299C52.6368 33.8177 51.8852 34.2416 51.0599 34.3437C51.2783 33.7718 51.3991 33.1521 51.3991 32.5045V27.4562C51.3991 26.7114 50.816 26.1126 50.0714 26.093L46.9677 26.0112C45.9627 25.9848 44.9799 25.6207 44.1999 24.9862L43.9953 24.8199C43.754 24.6236 43.4507 24.534 43.1416 24.5668C42.8324 24.5999 42.5551 24.7517 42.3608 24.9946C41.5211 26.0437 41.0587 27.3614 41.0587 28.7049V32.5044C41.0587 33.1519 41.1795 33.7716 41.3979 34.3433C40.5731 34.2411 39.8211 33.8176 39.2907 33.13C38.5736 32.2002 38.4243 31.0021 38.8914 29.9249L40.0823 27.179C40.2278 26.8435 40.328 26.4898 40.38 26.1278C40.5056 25.2544 40.8163 24.4394 41.3031 23.7057C41.5449 23.3414 41.4455 22.85 41.0811 22.6083C40.717 22.3665 40.2255 22.4658 39.9836 22.8303C39.3659 23.761 38.972 24.7945 38.8125 25.9024C38.7804 26.1252 38.7188 26.3428 38.6294 26.5489L37.4385 29.2948C36.7386 30.9088 36.9622 32.7041 38.0366 34.0971C38.9558 35.2887 40.3175 35.9529 41.7806 35.9528C41.9694 35.9528 42.16 35.9415 42.3515 35.9191C42.7084 36.324 43.1272 36.6727 43.5935 36.9501V37.7037L40.9413 38.7678C39.9182 39.1783 39.0633 39.8771 38.464 40.777C38.0027 40.4256 37.5615 40.0415 37.1444 39.6245C32.1353 34.6154 32.1353 26.4649 37.1444 21.4557C39.5709 19.0291 42.7972 17.6928 46.2288 17.6928C49.6605 17.6928 52.8867 19.0291 55.3132 21.4557C57.1677 23.3102 58.3962 25.6487 58.8656 28.2183C59.3245 30.7298 59.0354 33.2917 58.0296 35.6271C57.8566 36.0287 58.0419 36.4946 58.4436 36.6675C58.8452 36.8405 59.3109 36.6553 59.4839 36.2536C60.6137 33.6305 60.9385 30.7536 60.4233 27.9338ZM42.642 28.7051C42.642 27.8625 42.8901 27.0337 43.347 26.3302C44.3719 27.1128 45.6354 27.5602 46.9258 27.5943L49.8154 27.6705V32.5046C49.8154 34.4823 48.2064 36.0913 46.2286 36.0913C44.2508 36.0913 42.6419 34.4824 42.6419 32.5046V28.7051H42.642ZM46.2287 37.6747C46.5378 37.6747 46.84 37.6459 47.1344 37.5936V38.2393C47.1344 38.779 46.6953 39.2181 46.1557 39.2181C45.616 39.2181 45.1768 38.7791 45.1768 38.2394V37.5669C45.5166 37.6374 45.8683 37.6747 46.2287 37.6747ZM41.5308 40.2376L43.8308 39.3148C44.238 40.1917 45.1267 40.8016 46.1555 40.8016C47.1844 40.8016 48.0731 40.1917 48.4803 39.3148L50.7804 40.2375C51.5161 40.5327 52.1422 41.0581 52.5685 41.7205C50.6572 42.8083 48.4875 43.3875 46.2287 43.3875C43.9273 43.3875 41.7187 42.7856 39.7813 41.6577C40.2047 41.0219 40.808 40.5276 41.5308 40.2376Z" fill="#D09C0A"/>
</g>
<defs>
<clipPath id="clip0_1171_5001">
<rect width="54.0971" height="54.0971" fill="white" transform="translate(10.7734 10.6836)"/>
</clipPath>
</defs>
</svg>
