<svg width="10" height="10" viewBox="0 0 10 10" fill="none" xmlns="http://www.w3.org/2000/svg">
<path d="M9.03963 7.94689C9.00406 7.94691 8.96882 7.93992 8.93595 7.92631C8.90307 7.9127 8.8732 7.89275 8.84804 7.86759C8.82289 7.84243 8.80293 7.81256 8.78933 7.77969C8.77572 7.74682 8.76873 7.71158 8.76875 7.676L8.76875 1.43791L0.807694 9.39897C0.756921 9.44974 0.688058 9.47826 0.616254 9.47826C0.544449 9.47826 0.475587 9.44974 0.424813 9.39897C0.37404 9.34819 0.345516 9.27933 0.345516 9.20753C0.345515 9.13572 0.37404 9.06686 0.424813 9.01609L8.38587 1.05503L2.14778 1.05503C2.1122 1.05503 2.07698 1.04803 2.04411 1.03441C2.01125 1.0208 1.98138 1.00085 1.95623 0.975692C1.93108 0.950537 1.91112 0.920675 1.89751 0.887809C1.8839 0.854943 1.87689 0.819718 1.87689 0.784145C1.87689 0.748571 1.8839 0.713346 1.89751 0.68048C1.91112 0.647615 1.93108 0.617752 1.95623 0.592598C1.98138 0.567444 2.01125 0.54749 2.04411 0.533877C2.07698 0.520263 2.1122 0.513256 2.14778 0.513256L9.03963 0.513256C9.07521 0.513237 9.11045 0.52023 9.14332 0.533836C9.1762 0.547443 9.20607 0.567396 9.23123 0.592554C9.25638 0.617712 9.27634 0.647583 9.28994 0.680458C9.30355 0.713332 9.31054 0.748566 9.31052 0.784145L9.31052 7.676C9.31054 7.71158 9.30355 7.74682 9.28994 7.77969C9.27634 7.81257 9.25638 7.84244 9.23123 7.86759C9.20607 7.89275 9.1762 7.91271 9.14332 7.92631C9.11045 7.93992 9.07521 7.94691 9.03963 7.94689Z" fill="#585858"/>
</svg>
