<svg width="34" height="35" viewBox="0 0 34 35" fill="none" xmlns="http://www.w3.org/2000/svg">
<path d="M0 4.387C0 1.96413 1.96412 0 4.38699 0L34.1881 0V35.3569H0L0 4.387Z" fill="#FDD9BF"/>
<path d="M16.195 9.89963C16.0763 10.0263 15.9821 10.177 15.9179 10.343C15.8536 10.509 15.8205 10.6871 15.8205 10.867C15.8205 11.0469 15.8536 11.225 15.9179 11.391C15.9821 11.557 16.0763 11.7077 16.195 11.8344L20.3735 16.317L10.763 16.317C10.4272 16.317 10.1051 16.4606 9.86769 16.7161C9.63023 16.9716 9.49683 17.3182 9.49683 17.6795C9.49683 18.0409 9.63023 18.3874 9.86769 18.643C10.1051 18.8985 10.4272 19.042 10.763 19.042L20.3735 19.042L16.195 23.5247C15.9566 23.7812 15.8226 24.1292 15.8226 24.492C15.8226 24.8549 15.9566 25.2028 16.195 25.4594C16.4335 25.716 16.7568 25.8601 17.094 25.8601C17.4312 25.8601 17.7546 25.716 17.993 25.4594L24.324 18.6469C24.4393 18.5173 24.5297 18.3645 24.5899 18.1973C24.6569 18.0342 24.6915 17.8578 24.6915 17.6795C24.6915 17.5012 24.6569 17.3249 24.5899 17.1618C24.5297 16.9945 24.4393 16.8417 24.324 16.7121L17.993 9.89963C17.8753 9.77192 17.7353 9.67056 17.581 9.60138C17.4267 9.53221 17.2612 9.4966 17.094 9.4966C16.9269 9.4966 16.7614 9.53221 16.6071 9.60138C16.4528 9.67056 16.3127 9.77192 16.195 9.89963Z" fill="white"/>
</svg>
