<svg width="67" height="67" viewBox="0 0 67 67" fill="none" xmlns="http://www.w3.org/2000/svg">
<rect width="67" height="67" rx="33.5" fill="#585858"/>
<path d="M47.4149 19.653C46.9967 19.2349 46.4295 19 45.8382 19C45.2468 19 44.6797 19.2349 44.2615 19.653L34.0339 29.8805L23.8064 19.653C23.3882 19.2349 22.821 19 22.2297 19C21.6383 19 21.0712 19.2349 20.653 19.653C20.2349 20.0712 20 20.6383 20 21.2297C20 21.821 20.2349 22.3882 20.653 22.8064L30.8805 33.0339L20.653 43.2615C20.2349 43.6797 20 44.2468 20 44.8382C20 45.4295 20.2349 45.9967 20.653 46.4149C21.0712 46.833 21.6383 47.0679 22.2297 47.0679C22.821 47.0679 23.3882 46.833 23.8064 46.4149L34.0339 36.1874L44.2615 46.4149C44.6797 46.833 45.2468 47.0679 45.8382 47.0679C46.4295 47.0679 46.9967 46.833 47.4149 46.4149C47.833 45.9967 48.0679 45.4295 48.0679 44.8382C48.0679 44.2468 47.833 43.6797 47.4149 43.2615L37.1874 33.0339L47.4149 22.8064C47.833 22.3882 48.0679 21.821 48.0679 21.2297C48.0679 20.6383 47.833 20.0712 47.4149 19.653Z" fill="white"/>
</svg>
