<svg width="32" height="32" viewBox="0 0 32 32" fill="none" xmlns="http://www.w3.org/2000/svg">
<path d="M13.0813 6.84635H10.7739C9.33821 6.84635 8.62035 6.84635 8.0717 7.1258C7.58926 7.37152 7.19705 7.76374 6.95133 8.24617C6.67187 8.79482 6.67188 9.51268 6.67188 10.9484V20.6908C6.67188 22.1265 6.67187 22.8444 6.95133 23.393C7.19712 23.8754 7.58932 24.2676 8.0717 24.5134C8.61907 24.7928 9.33693 24.7928 10.7701 24.7928H20.5202C21.9533 24.7928 22.6699 24.7928 23.2173 24.5134C23.7005 24.2673 24.0928 23.875 24.3389 23.393C24.6184 22.8444 24.6184 22.1278 24.6184 20.6946V18.3834M25.9003 11.9739V5.56445M25.9003 5.56445H19.4908M25.9003 5.56445L16.927 14.5377" stroke="#D09C0A" stroke-width="2.56379" stroke-linecap="round" stroke-linejoin="round"/>
</svg>
