<svg width="28" height="28" viewBox="0 0 28 28" fill="none" xmlns="http://www.w3.org/2000/svg">
<g clip-path="url(#clip0_940_19021)">
<path d="M15.2559 0.447266C16.7197 0.451169 17.4627 0.458976 18.1041 0.477192L18.3566 0.4863C18.648 0.496709 18.9356 0.50972 19.283 0.525334C20.6674 0.590391 21.612 0.808982 22.4408 1.13036C23.2996 1.46085 24.023 1.90844 24.7465 2.63058C25.4081 3.28101 25.92 4.0678 26.2467 4.93619C26.568 5.76502 26.7866 6.70964 26.8517 8.09535C26.8673 8.44146 26.8803 8.72901 26.8907 9.02177L26.8985 9.27419C26.9181 9.91435 26.9259 10.6573 26.9285 12.1211L26.9298 13.0917V14.7962C26.933 15.7453 26.923 16.6943 26.8998 17.6431L26.892 17.8955C26.8816 18.1883 26.8686 18.4758 26.853 18.8219C26.7879 20.2076 26.5667 21.151 26.2467 21.9811C25.921 22.85 25.4089 23.637 24.7465 24.2867C24.0958 24.9481 23.3091 25.46 22.4408 25.7869C21.612 26.1083 20.6674 26.3269 19.283 26.392C18.9742 26.4065 18.6654 26.4195 18.3566 26.431L18.1041 26.4388C17.4627 26.457 16.7197 26.4661 15.2559 26.4687L14.2853 26.47H12.5821C11.6326 26.4733 10.6831 26.4633 9.73392 26.4401L9.4815 26.4323C9.17262 26.4206 8.86381 26.4072 8.55509 26.392C7.17068 26.3269 6.22605 26.1083 5.39593 25.7869C4.52764 25.4608 3.74116 24.9488 3.09161 24.2867C2.42939 23.6365 1.91698 22.8497 1.5901 21.9811C1.26872 21.1523 1.05013 20.2076 0.985069 18.8219C0.970573 18.5132 0.957561 18.2044 0.946035 17.8955L0.939529 17.6431C0.915552 16.6943 0.904708 15.7453 0.907001 14.7962V12.1211C0.903369 11.172 0.912912 10.223 0.935626 9.27419L0.944734 9.02177C0.955143 8.72901 0.968154 8.44146 0.983768 8.09535C1.04882 6.70964 1.26742 5.76632 1.5888 4.93619C1.91553 4.06691 2.42897 3.27987 3.09291 2.63058C3.7423 1.96891 4.52825 1.45693 5.39593 1.13036C6.22605 0.808982 7.16938 0.590391 8.55509 0.525334C8.90119 0.50972 9.19005 0.496709 9.4815 0.4863L9.73392 0.478493C10.6827 0.455375 11.6318 0.445399 12.5808 0.448567L15.2559 0.447266ZM13.9184 6.95296C12.193 6.95296 10.5382 7.63837 9.31816 8.85843C8.09811 10.0785 7.41269 11.7332 7.41269 13.4586C7.41269 15.1841 8.09811 16.8388 9.31816 18.0589C10.5382 19.2789 12.193 19.9643 13.9184 19.9643C15.6438 19.9643 17.2985 19.2789 18.5186 18.0589C19.7387 16.8388 20.4241 15.1841 20.4241 13.4586C20.4241 11.7332 19.7387 10.0785 18.5186 8.85843C17.2985 7.63837 15.6438 6.95296 13.9184 6.95296ZM13.9184 9.55523C14.431 9.55515 14.9386 9.65603 15.4122 9.85211C15.8858 10.0482 16.3162 10.3357 16.6787 10.6981C17.0412 11.0605 17.3288 11.4907 17.5251 11.9643C17.7213 12.4378 17.8224 12.9454 17.8224 13.458C17.8225 13.9706 17.7216 14.4782 17.5256 14.9518C17.3295 15.4254 17.042 15.8558 16.6796 16.2183C16.3172 16.5808 15.887 16.8684 15.4134 17.0647C14.9399 17.2609 14.4323 17.362 13.9197 17.3621C12.8844 17.3621 11.8916 16.9508 11.1596 16.2188C10.4275 15.4867 10.0163 14.4939 10.0163 13.4586C10.0163 12.4234 10.4275 11.4305 11.1596 10.6985C11.8916 9.96648 12.8844 9.55523 13.9197 9.55523M20.7507 5.00125C20.3193 5.00125 19.9056 5.1726 19.6006 5.47762C19.2956 5.78263 19.1242 6.19632 19.1242 6.62767C19.1242 7.05903 19.2956 7.47271 19.6006 7.77773C19.9056 8.08274 20.3193 8.25409 20.7507 8.25409C21.182 8.25409 21.5957 8.08274 21.9007 7.77773C22.2057 7.47271 22.3771 7.05903 22.3771 6.62767C22.3771 6.19632 22.2057 5.78263 21.9007 5.47762C21.5957 5.1726 21.182 5.00125 20.7507 5.00125Z" fill="#1E2833"/>
</g>
<defs>
<clipPath id="clip0_940_19021">
<rect width="27.0243" height="27.0243" fill="white" transform="translate(0.40625 0.447266)"/>
</clipPath>
</defs>
</svg>
