<svg width="28" height="29" viewBox="0 0 28 29" fill="none" xmlns="http://www.w3.org/2000/svg">
<path fill-rule="evenodd" clip-rule="evenodd" d="M14.0259 0.445312C21.6859 0.445312 27.8955 6.65497 27.8955 14.315C27.8955 21.2377 22.8236 26.9757 16.193 28.0161V18.3242H19.4248L20.0397 14.315H20.0382L20.0385 14.3132H16.193V11.7133C16.193 10.6164 16.7303 9.54728 18.4533 9.54728H20.2022V6.13404C20.2022 6.13404 20.2018 6.13397 20.201 6.13383V6.13221C20.201 6.13221 18.6138 5.86133 17.0963 5.86133C13.9282 5.86133 11.8575 7.7814 11.8575 11.2575V14.3132H8.33594V18.3223H8.33718V18.3242H11.8575V28.0143C11.8579 28.0144 11.8583 28.0144 11.8588 28.0145V28.0161C5.22817 26.9757 0.15625 21.2377 0.15625 14.315C0.15625 6.65497 6.36589 0.445312 14.0259 0.445312Z" fill="#1E2833"/>
</svg>
