<svg width="29" height="29" viewBox="0 0 29 29" fill="none" xmlns="http://www.w3.org/2000/svg">
<path d="M25.5869 0.447266C26.4043 0.447266 27.1883 0.771991 27.7663 1.35001C28.3443 1.92802 28.6691 2.71198 28.6691 3.52942V25.1045C28.6691 25.9219 28.3443 26.7059 27.7663 27.2839C27.1883 27.8619 26.4043 28.1866 25.5869 28.1866H4.01184C3.1944 28.1866 2.41044 27.8619 1.83243 27.2839C1.25441 26.7059 0.929688 25.9219 0.929688 25.1045V3.52942C0.929688 2.71198 1.25441 1.92802 1.83243 1.35001C2.41044 0.771991 3.1944 0.447266 4.01184 0.447266H25.5869ZM24.8164 24.3339V16.1662C24.8164 14.8338 24.2871 13.556 23.3449 12.6138C22.4027 11.6716 21.1249 11.1423 19.7925 11.1423C18.4825 11.1423 16.9569 11.9437 16.2172 13.1457V11.4351H11.9176V24.3339H16.2172V16.7364C16.2172 15.5498 17.1726 14.5789 18.3593 14.5789C18.9315 14.5789 19.4802 14.8062 19.8848 15.2109C20.2895 15.6155 20.5168 16.1642 20.5168 16.7364V24.3339H24.8164ZM6.90906 9.01565C7.59571 9.01565 8.25424 8.74288 8.73977 8.25735C9.2253 7.77181 9.49807 7.11329 9.49807 6.42664C9.49807 4.99344 8.34226 3.82222 6.90906 3.82222C6.21833 3.82222 5.55588 4.09662 5.06746 4.58504C4.57904 5.07346 4.30464 5.73591 4.30464 6.42664C4.30464 7.85984 5.47586 9.01565 6.90906 9.01565ZM9.05116 24.3339V11.4351H4.78238V24.3339H9.05116Z" fill="#1E2833"/>
</svg>
