<svg width="29" height="29" viewBox="0 0 29 29" fill="none" xmlns="http://www.w3.org/2000/svg">
<path d="M18.9303 14.0467C16.4929 12.7566 11.7734 10.332 11.7734 10.332L18.0657 14.5211C18.0662 14.5211 16.9195 15.1508 18.9303 14.0467Z" fill="#1E2833"/>
<path d="M12.2363 23.5403C7.17354 23.448 5.44438 23.3649 4.38153 23.148C3.66244 23.0039 3.03755 22.6839 2.57936 22.2198C2.22524 21.8686 1.94362 21.3327 1.72514 20.5892C1.53772 19.9697 1.46472 19.4543 1.36066 18.1954C1.20135 15.3542 1.16338 13.0312 1.36066 10.4357C1.52342 9.00242 1.60233 7.3009 2.68343 6.30822C3.19389 5.84364 3.78771 5.54467 4.45452 5.42107C5.49616 5.22517 9.934 5.07031 14.5282 5.07031C19.112 5.07031 23.5597 5.22517 24.6023 5.42107C25.4354 5.57593 26.2166 6.04003 26.6753 6.63846C27.6617 8.17535 27.6789 10.0864 27.7791 11.5813C27.8205 12.2936 27.8205 16.338 27.7791 17.0503C27.6232 19.4128 27.4979 20.2487 27.1438 21.1153C26.9248 21.6624 26.7379 21.9512 26.4144 22.2711C25.9069 22.7635 25.2601 23.0911 24.5599 23.2101C20.1788 23.5364 16.4586 23.6072 12.2363 23.5403ZM18.9453 14.0474C16.5079 12.7572 14.1741 11.5608 11.7884 10.3224V17.7313C14.2988 16.3796 16.9454 15.1412 18.9557 14.0371L18.9453 14.0474Z" fill="#1E2833"/>
</svg>
