<svg width="14" height="11" viewBox="0 0 14 11" fill="none" xmlns="http://www.w3.org/2000/svg">
<path d="M7.90641 10.2383C7.88124 10.2131 7.86127 10.1833 7.84764 10.1504C7.83402 10.1176 7.82701 10.0823 7.82701 10.0467C7.82701 10.0112 7.83402 9.97593 7.84764 9.94307C7.86127 9.9102 7.88124 9.88034 7.90641 9.8552L12.3174 5.4442L1.05878 5.4442C0.986973 5.4442 0.918109 5.41568 0.867336 5.3649C0.816562 5.31413 0.788039 5.24527 0.788039 5.17346C0.788039 5.10166 0.816562 5.0328 0.867336 4.98202C0.918109 4.93125 0.986973 4.90273 1.05878 4.90273L12.3174 4.90273L7.90641 0.491732C7.88126 0.466578 7.8613 0.436715 7.84769 0.403849C7.83408 0.370984 7.82707 0.335758 7.82707 0.300185C7.82707 0.264611 7.83408 0.229386 7.84769 0.19652C7.8613 0.163655 7.88126 0.133792 7.90641 0.108638C7.93156 0.0834835 7.96143 0.0635301 7.99429 0.0499167C8.02716 0.0363033 8.06238 0.0292966 8.09796 0.0292967C8.13353 0.0292967 8.16876 0.0363033 8.20162 0.0499167C8.23449 0.0635301 8.26435 0.0834835 8.28951 0.108638L13.1628 4.98192C13.188 5.00706 13.2079 5.03692 13.2215 5.06979C13.2352 5.10265 13.2422 5.13789 13.2422 5.17346C13.2422 5.20904 13.2352 5.24427 13.2215 5.27714C13.2079 5.31001 13.188 5.33987 13.1628 5.36501L8.2895 10.2383C8.26436 10.2635 8.2345 10.2834 8.20163 10.2971C8.16877 10.3107 8.13354 10.3177 8.09796 10.3177C8.06238 10.3177 8.02715 10.3107 7.99428 10.2971C7.96141 10.2834 7.93155 10.2635 7.90641 10.2383Z" fill="#D09C0A"/>
</svg>
