<svg id="Layer_1" data-name="Layer 1" xmlns="http://www.w3.org/2000/svg" viewBox="0 0 500 500" height="150" width="150">
  <defs>
    <style>
      .cls-1 {
        fill: #316b29;
      }

      .cls-2 {
        fill: #a4c69f;
      }
    </style>
  </defs>
  <g>
    <path class="cls-1" d="M49.2,411.92h6.93q6.72,0,10,1.66A13,13,0,0,1,71.48,419a19,19,0,0,1,.93,15.28,13.55,13.55,0,0,1-3.27,5,11.42,11.42,0,0,1-4.5,2.72,32.23,32.23,0,0,1-8.4.75h-7ZM55,417.57V437h2.72a13.71,13.71,0,0,0,5.83-.92,7,7,0,0,0,3-3.1,11.45,11.45,0,0,0,1.15-5.36c0-3.27-.92-5.8-2.74-7.6q-2.48-2.43-7.93-2.43Z"/>
    <path class="cls-1" d="M95.34,419.93h5.71v22.76H95.34v-2.4A11.19,11.19,0,0,1,92,442.58a9.53,9.53,0,0,1-3.65.7,10.14,10.14,0,0,1-7.63-3.42,12,12,0,0,1-3.21-8.51,12.27,12.27,0,0,1,3.11-8.64,9.94,9.94,0,0,1,7.56-3.36,9.56,9.56,0,0,1,3.85.77,10.58,10.58,0,0,1,3.32,2.32Zm-6,4.69a5.76,5.76,0,0,0-4.4,1.87,7.48,7.48,0,0,0,0,9.65,5.78,5.78,0,0,0,4.39,1.91,5.91,5.91,0,0,0,4.46-1.87,6.87,6.87,0,0,0,1.77-4.91,6.65,6.65,0,0,0-1.77-4.81A6,6,0,0,0,89.34,424.62Z"/>
    <path class="cls-1" d="M107.52,411.54h5.71v8.39h3.39v4.92h-3.39v17.84h-5.71V424.85h-2.93v-4.92h2.93Z"/>
    <path class="cls-1" d="M136.47,419.93h5.71v22.76h-5.71v-2.4a11.35,11.35,0,0,1-3.36,2.29,9.48,9.48,0,0,1-3.64.7,10.14,10.14,0,0,1-7.63-3.42,12,12,0,0,1-3.22-8.51,12.23,12.23,0,0,1,3.12-8.64,9.91,9.91,0,0,1,7.56-3.36,9.48,9.48,0,0,1,3.84.77,10.62,10.62,0,0,1,3.33,2.32Zm-6,4.69a5.77,5.77,0,0,0-4.4,1.87,7.46,7.46,0,0,0,0,9.65,5.76,5.76,0,0,0,4.38,1.91,5.93,5.93,0,0,0,4.47-1.87,6.87,6.87,0,0,0,1.77-4.91,6.65,6.65,0,0,0-1.77-4.81A6,6,0,0,0,130.46,424.62Z"/>
    <path class="cls-1" d="M160.58,411.92h6.94q6.72,0,10,1.66a13,13,0,0,1,5.38,5.41,18.9,18.9,0,0,1,.92,15.28,13.41,13.41,0,0,1-3.26,5,11.42,11.42,0,0,1-4.5,2.72,32.23,32.23,0,0,1-8.4.75h-7Zm5.82,5.65V437h2.72a13.71,13.71,0,0,0,5.83-.92,7,7,0,0,0,3-3.1,11.45,11.45,0,0,0,1.15-5.36c0-3.27-.92-5.8-2.74-7.6q-2.48-2.43-7.93-2.43Z"/>
    <path class="cls-1" d="M188.59,419.93h4.9v2.87a6.05,6.05,0,0,1,2.11-2.57,5.07,5.07,0,0,1,2.89-.88,5.33,5.33,0,0,1,2.32.58L199,424.85a3.84,3.84,0,0,0-1.65-.5,2.61,2.61,0,0,0-2.23,1.63c-.6,1.09-.91,3.22-.91,6.4l0,1.11v9.2h-5.67Z"/>
    <path class="cls-1" d="M205.86,410.56a3.49,3.49,0,0,1,2.58,1.09,3.62,3.62,0,0,1,1.07,2.64,3.57,3.57,0,0,1-1.06,2.6A3.46,3.46,0,0,1,205.9,418a3.49,3.49,0,0,1-2.59-1.1,3.66,3.66,0,0,1-1.08-2.67,3.65,3.65,0,0,1,3.63-3.64ZM203,419.93h5.71v22.76H203Z"/>
    <path class="cls-1" d="M211.47,419.93h5.82L223,433.36l5.73-13.43h5.79l-9.68,22.76h-3.71Z"/>
    <path class="cls-1" d="M260.7,433H242.35a6.12,6.12,0,0,0,2.13,3.86,6.64,6.64,0,0,0,4.4,1.44,7.62,7.62,0,0,0,5.5-2.24l4.81,2.26a11.26,11.26,0,0,1-4.31,3.77,13.4,13.4,0,0,1-6,1.23,11.78,11.78,0,0,1-8.72-3.38,11.47,11.47,0,0,1-3.37-8.46,11.86,11.86,0,0,1,3.36-8.65,11.25,11.25,0,0,1,8.42-3.44,11.66,11.66,0,0,1,8.74,3.44,12.41,12.41,0,0,1,3.37,9.09ZM255,428.47a5.77,5.77,0,0,0-2.23-3.1,6.51,6.51,0,0,0-3.87-1.19,6.85,6.85,0,0,0-4.19,1.34,7.48,7.48,0,0,0-2.09,3Z"/>
    <path class="cls-1" d="M265.32,419.93H271v2.33a13.61,13.61,0,0,1,3.52-2.27,8.46,8.46,0,0,1,3.23-.64,7.77,7.77,0,0,1,5.74,2.36q2,2,2,5.94v15h-5.65v-10a25.65,25.65,0,0,0-.36-5.41,3.69,3.69,0,0,0-1.28-2,3.53,3.53,0,0,0-2.24-.7,4.19,4.19,0,0,0-3,1.16,6.23,6.23,0,0,0-1.72,3.2,26.61,26.61,0,0,0-.25,4.62v9.13h-5.71Z"/>
    <path class="cls-1" d="M304,411.92h6.21q5.1,0,7.26.91a7.52,7.52,0,0,1,3.48,3,9.34,9.34,0,0,1,1.31,5,8.52,8.52,0,0,1-1.45,5.08,8.84,8.84,0,0,1-4.38,3.08l7.29,13.68h-6.41l-6.92-13h-.53v13H304Zm5.86,12h1.83a7.14,7.14,0,0,0,3.85-.74,2.76,2.76,0,0,0,1.05-2.43,2.94,2.94,0,0,0-.52-1.75,2.8,2.8,0,0,0-1.39-1.07,10.53,10.53,0,0,0-3.22-.33h-1.6Z"/>
    <path class="cls-1" d="M350.67,433H332.32a6.12,6.12,0,0,0,2.13,3.86,6.64,6.64,0,0,0,4.4,1.44,7.62,7.62,0,0,0,5.5-2.24l4.81,2.26a11.26,11.26,0,0,1-4.31,3.77,13.4,13.4,0,0,1-6,1.23,11.78,11.78,0,0,1-8.72-3.38,11.47,11.47,0,0,1-3.37-8.46,11.86,11.86,0,0,1,3.36-8.65,11.25,11.25,0,0,1,8.42-3.44,11.66,11.66,0,0,1,8.74,3.44,12.41,12.41,0,0,1,3.37,9.09ZM345,428.47a5.77,5.77,0,0,0-2.23-3.1,6.51,6.51,0,0,0-3.87-1.19,6.85,6.85,0,0,0-4.19,1.34,7.48,7.48,0,0,0-2.09,3Z"/>
    <path class="cls-1" d="M352.85,419.93h5.82l5.75,13.43,5.74-13.43H376l-9.69,22.76h-3.7Z"/>
    <path class="cls-1" d="M381.51,410.56a3.49,3.49,0,0,1,2.58,1.09,3.62,3.62,0,0,1,1.07,2.64,3.57,3.57,0,0,1-1.06,2.6,3.46,3.46,0,0,1-2.55,1.08,3.49,3.49,0,0,1-2.59-1.1,3.66,3.66,0,0,1-1.08-2.67,3.65,3.65,0,0,1,3.63-3.64Zm-2.85,9.37h5.71v22.76h-5.71Z"/>
    <path class="cls-1" d="M412.36,433H394a6.11,6.11,0,0,0,2.12,3.86,6.67,6.67,0,0,0,4.41,1.44A7.64,7.64,0,0,0,406,436l4.81,2.26a11.33,11.33,0,0,1-4.31,3.77,13.4,13.4,0,0,1-6,1.23,11.78,11.78,0,0,1-8.72-3.38,11.47,11.47,0,0,1-3.37-8.46,11.86,11.86,0,0,1,3.36-8.65,11.23,11.23,0,0,1,8.42-3.44,11.68,11.68,0,0,1,8.74,3.44,12.45,12.45,0,0,1,3.37,9.09Zm-5.71-4.49a5.79,5.79,0,0,0-2.24-3.1,6.5,6.5,0,0,0-3.86-1.19,6.85,6.85,0,0,0-4.19,1.34,7.49,7.49,0,0,0-2.1,3Z"/>
    <path class="cls-1" d="M414.46,419.93h5.59l4.58,12.95,4.92-12.95H433l4.83,12.8,4.59-12.8H448l-8.3,22.76h-3.62l-4.85-13-5,13h-3.58Z"/>
    <path class="cls-1" d="M465.17,423.11l-3.53,3.54q-2.16-2.14-3.91-2.14a2.49,2.49,0,0,0-1.51.41,1.22,1.22,0,0,0-.2,1.86,6.46,6.46,0,0,0,1.71,1.06l2.09,1.05a12.24,12.24,0,0,1,4.54,3.32,7,7,0,0,1-1,9,8.56,8.56,0,0,1-6,2,9.5,9.5,0,0,1-7.95-3.89l3.52-3.83a8.09,8.09,0,0,0,2.35,1.89,5.23,5.23,0,0,0,2.4.72,2.88,2.88,0,0,0,1.82-.54,1.57,1.57,0,0,0,.69-1.26c0-.87-.83-1.73-2.49-2.57l-1.93-1q-5.52-2.79-5.52-7a6,6,0,0,1,2.08-4.61,7.54,7.54,0,0,1,5.33-1.91,9.21,9.21,0,0,1,7.48,3.76Z"/>
  </g>
  <g>
    <path class="cls-2" d="M216.66,69.11H380.22c10.86,0,16.33,5.46,16.33,16.29V326.51c0,10.64-5.53,16.2-16.12,16.2q-97.44,0-194.88,0c-15.72,0-25.51-9.82-25.51-25.58,0-23.09,0-46.18.06-69.27,0-2.41-.75-3.31-2.95-4.09-33.86-11.94-55.87-44.29-53.53-80,2-30.56,17.21-53,44.36-67.24,1.92-1,2.7-2,2.67-4.17-.13-9-.08-18.08-.05-27.12s6-14.94,15-15c11.79,0,23.58,0,35.38,0,10,0,15.65,5.67,15.69,15.74Zm92.08,101.63c1.09,4.06,2.51,7.3,2.75,10.62.71,9.79-6.33,18.11-16.15,19.67-9.19,1.45-18.3-4.7-20.83-14-.24-.9-.87-2.24-1.53-2.37-3.23-.66-6.54-1-9.91-1.42-6.89,31.4-26.59,50.82-55.85,61.88v3.07q0,30.81,0,61.61c0,8,.94,16.18-4.95,23.47H380.18c5.62,0,6.94-1.32,6.94-6.93V85.5c0-5.63-1.32-7-6.91-7H216.66c0,4.88.11,9.48-.06,14.07-.07,2,.65,2.91,2.42,3.73,10.61,4.88,19.48,12.24,27,20.93,10.51,12.1,16.3,26.49,17.86,42.48.45,4.64.47,9.33.69,14.1,3.09.43,6.08.94,9.1,1.19a2.88,2.88,0,0,0,2.18-1.23c5.65-9.19,13.27-12.14,23.6-9.08.62.18,1.7.19,2-.19,3.72-4.25,7.35-8.6,10.95-12.86-15-17.15-12.39-39.15.55-52.38a37.65,37.65,0,0,1,49-4.14c15.42,11.34,20.16,31.74,11.15,48.35A36.81,36.81,0,0,1,353.22,161c-11.58,4.33-22.73,2.91-33.42-3.32Zm-92.08-42.07c0,3.68,0,6.91,0,10.14,0,9.36-5.91,15.2-15.33,15.21q-17.55,0-35.09,0c-9.84,0-15.61-5.74-15.63-15.5,0-3.18,0-6.36,0-9.85-13.88,10.74-23.59,32.58-16.5,55.09a51.93,51.93,0,0,0,99,.26C240.37,161.31,230.49,139.38,216.66,128.67ZM150.59,106.1C127.34,117,107.4,147,114.18,181.9c6.65,34.24,37.58,58.34,72.87,57,33.44-1.28,64.49-29.29,67.71-64.21,2.95-32-17-58.66-38.1-68.5,0,2.42.18,4.79,0,7.11s.73,3.84,2.72,5.23c14.48,10.13,22.07,24.67,25.55,41.51,1.4,6.8.54,13.64-1,20.57-7.14,31.46-35.53,52-67.69,48.39-29.71-3.3-53.48-29.27-53.81-59.17-.24-21.78,8.78-39.07,26.33-51.95.79-.57,1.77-1.51,1.83-2.33C150.72,112.45,150.59,109.33,150.59,106.1Zm9.44-4q0,18.12,0,36.26c0,4.62,1.57,6.18,6.19,6.19H201c4.61,0,6.18-1.58,6.19-6.2V65.87c0-4.62-1.58-6.18-6.2-6.19h-34.8c-4.62,0-6.18,1.57-6.18,6.2Q160,84,160,102.14Zm9.48,145.65c0,24-.08,48.26.07,72.51,0,5.66,4.46,10.69,9.87,12.34,9.35,2.86,18.3-4,18.32-14.18q.06-34.33,0-68.68c0-.84-.1-1.68-.12-2ZM339.93,154a28.3,28.3,0,1,0-28.3-28.3A28.39,28.39,0,0,0,339.93,154Zm-47.25,37.73a9.43,9.43,0,1,0-9.36-9.41A9.52,9.52,0,0,0,292.68,191.75Z"/>
    <path class="cls-2" d="M221.51,285.9v-9.15h9.19V239.12h28.93v37.33h18.91V210.78h28.23v65.7h18.9V173.13H354V276.54h9.28v9.36Zm122.93-9.36v-94h-9.08v94ZM288.23,220.2v56.24h9.08V220.2Zm-38.07,28.4h-9.77v27.9h9.77Z"/>
    <path class="cls-2" d="M269.28,323.63V295.7H316.1v27.93Zm9.45-18.54v9.16h28v-9.16Z"/>
    <path class="cls-2" d="M221.59,295.66h38V323.6h-38Zm28.62,9.51H231v9h19.18Z"/>
    <path class="cls-2" d="M325.9,323.63V295.7h37.38v27.93Zm9.44-9.43h18.51v-9.07H335.34Z"/>
    <path class="cls-2" d="M150.47,173v9.09h-9.14V173Z"/>
    <path class="cls-2" d="M160.26,173h9v9.18h-9Z"/>
    <path class="cls-2" d="M179,182.11v-9.05h9.17v9.05Z"/>
    <path class="cls-2" d="M207,182.27h-9V173.1h9Z"/>
    <path class="cls-2" d="M216.8,173h9.1v9.15h-9.1Z"/>
    <path class="cls-2" d="M197.66,69.33v9.06h-28V69.33Z"/>
    <path class="cls-2" d="M169.6,97.21V88.14h27.94v9.07Z"/>
    <path class="cls-2" d="M169.68,107h27.95v9.08H169.68Z"/>
    <path class="cls-2" d="M169.69,125.84h27.93v9.08H169.69Z"/>
    <path class="cls-2" d="M334.85,145.75l-12-12,7.12-6.39c1.31,1.71,3,3.87,4.81,6.24l20.57-20.66,6.09,6.39Z"/>
  </g>
</svg>
