<svg id="Layer_1" data-name="Layer 1" xmlns="http://www.w3.org/2000/svg" viewBox="0 0 500 500" height="150" width="150">
  <defs>
    <style>
      .cls-1 {
        fill: #316b29;
      }

      .cls-2 {
        fill: #a4c69f;
      }
    </style>
  </defs>
  <g>
    <path class="cls-1" d="M104.84,411.92h5.94v11.61h10.27V411.92H127v30.77h-5.92V429.2H110.78v13.49h-5.94Z"/>
    <path class="cls-1" d="M135.6,410.56a3.46,3.46,0,0,1,2.57,1.09,3.73,3.73,0,0,1,0,5.24,3.42,3.42,0,0,1-2.54,1.08,3.53,3.53,0,0,1-2.6-1.1A3.69,3.69,0,0,1,132,414.2a3.64,3.64,0,0,1,3.63-3.64Zm-2.86,9.37h5.71v22.76h-5.71Z"/>
    <path class="cls-1" d="M160.46,419.93h5.69v19.5q0,5.77-2.32,8.49-3.12,3.69-9.39,3.68a16.64,16.64,0,0,1-5.63-.83,10.19,10.19,0,0,1-3.85-2.46,10,10,0,0,1-2.32-3.94h6.29a5.26,5.26,0,0,0,2.16,1.45,8.89,8.89,0,0,0,3.12.49,8.29,8.29,0,0,0,3.7-.71,4.27,4.27,0,0,0,2-1.84,9.22,9.22,0,0,0,.58-3.89A9.49,9.49,0,0,1,157.3,442a10,10,0,0,1-3.74.66,10.28,10.28,0,0,1-7.74-3.3,12.82,12.82,0,0,1,.19-17.07,10,10,0,0,1,7.23-3,9.7,9.7,0,0,1,3.72.72,11.78,11.78,0,0,1,3.5,2.37Zm-5.92,4.75a6,6,0,0,0-4.46,1.81,6.27,6.27,0,0,0-1.75,4.55,6.37,6.37,0,0,0,1.8,4.67,6.08,6.08,0,0,0,4.51,1.81,5.86,5.86,0,0,0,4.39-1.77,6.42,6.42,0,0,0,1.72-4.67,6.36,6.36,0,0,0-1.73-4.62A6,6,0,0,0,154.54,424.68Z"/>
    <path class="cls-1" d="M171.94,411.15h5.67v11.08a13.09,13.09,0,0,1,3.37-2.16,8.69,8.69,0,0,1,3.43-.72,7.73,7.73,0,0,1,5.71,2.34q2,2,2,6v15h-5.63v-10a24.78,24.78,0,0,0-.37-5.35,3.74,3.74,0,0,0-1.29-2.09,3.63,3.63,0,0,0-2.25-.69,4.22,4.22,0,0,0-3,1.15,6.06,6.06,0,0,0-1.73,3.13,26.88,26.88,0,0,0-.25,4.69v9.14h-5.67Z"/>
    <path class="cls-1" d="M219.63,411.92h5.94l11.84,30.77h-6.09l-2.41-6.34H216.36l-2.51,6.34h-6.08Zm3,8.16-4.13,10.56h8.23Z"/>
    <path class="cls-1" d="M258.11,411.15h5.71v31.54h-5.71v-2.4a11.35,11.35,0,0,1-3.36,2.29,9.48,9.48,0,0,1-3.64.7,10.14,10.14,0,0,1-7.63-3.42,11.93,11.93,0,0,1-3.22-8.51,12.23,12.23,0,0,1,3.12-8.64,9.91,9.91,0,0,1,7.56-3.36,9.55,9.55,0,0,1,3.84.77,10.62,10.62,0,0,1,3.33,2.32Zm-6,13.47a5.77,5.77,0,0,0-4.4,1.87,7.48,7.48,0,0,0,0,9.65,5.8,5.8,0,0,0,4.39,1.91,5.89,5.89,0,0,0,4.46-1.87,6.83,6.83,0,0,0,1.78-4.91,6.62,6.62,0,0,0-1.78-4.81A5.93,5.93,0,0,0,252.1,424.62Z"/>
    <path class="cls-1" d="M280.28,419.35a12,12,0,0,1,6.05,1.61,11.62,11.62,0,0,1,4.43,4.37,11.75,11.75,0,0,1,1.59,6,11.94,11.94,0,0,1-1.6,6,11.68,11.68,0,0,1-4.36,4.38,12.07,12.07,0,0,1-6.09,1.58,11.34,11.34,0,0,1-8.36-3.49,12,12,0,0,1,8.34-20.44Zm.09,5.37a5.89,5.89,0,0,0-4.43,1.85,6.6,6.6,0,0,0-1.77,4.74,6.67,6.67,0,0,0,1.75,4.81,5.84,5.84,0,0,0,4.43,1.84,5.94,5.94,0,0,0,4.47-1.86,7.34,7.34,0,0,0,0-9.55A5.93,5.93,0,0,0,280.37,424.72Z"/>
    <path class="cls-1" d="M302.68,419.93v2.51a10.81,10.81,0,0,1,3.35-2.32,9.56,9.56,0,0,1,3.85-.77,9.94,9.94,0,0,1,7.57,3.36,12.23,12.23,0,0,1,3.12,8.64,12,12,0,0,1-3.22,8.51,10.16,10.16,0,0,1-7.64,3.42,9.62,9.62,0,0,1-3.66-.7,11.26,11.26,0,0,1-3.37-2.29V451H297V419.93Zm6,4.69a6,6,0,0,0-4.48,1.84,6.62,6.62,0,0,0-1.78,4.81,6.83,6.83,0,0,0,1.78,4.91,5.94,5.94,0,0,0,4.48,1.87,5.8,5.8,0,0,0,4.4-1.91,7.45,7.45,0,0,0,0-9.65A5.81,5.81,0,0,0,308.69,424.62Z"/>
    <path class="cls-1" d="M326,411.54h5.71v8.39h3.38v4.92H331.7v17.84H326V424.85h-2.93v-4.92H326Z"/>
    <path class="cls-1" d="M340.37,410.56a3.46,3.46,0,0,1,2.57,1.09,3.73,3.73,0,0,1,0,5.24,3.43,3.43,0,0,1-2.54,1.08,3.51,3.51,0,0,1-2.6-1.1,3.65,3.65,0,0,1-1.07-2.67,3.64,3.64,0,0,1,3.63-3.64Zm-2.86,9.37h5.71v22.76h-5.71Z"/>
    <path class="cls-1" d="M359.1,419.35a12,12,0,0,1,6.06,1.61,11.81,11.81,0,0,1,6,10.33,11.94,11.94,0,0,1-1.6,6,11.68,11.68,0,0,1-4.36,4.38,12.07,12.07,0,0,1-6.09,1.58,11.34,11.34,0,0,1-8.36-3.49,12.07,12.07,0,0,1,.45-17.35A11.45,11.45,0,0,1,359.1,419.35Zm.09,5.37a5.89,5.89,0,0,0-4.43,1.85,6.6,6.6,0,0,0-1.77,4.74,6.67,6.67,0,0,0,1.75,4.81,5.84,5.84,0,0,0,4.43,1.84,5.94,5.94,0,0,0,4.47-1.86,7.34,7.34,0,0,0,0-9.55A5.93,5.93,0,0,0,359.19,424.72Z"/>
    <path class="cls-1" d="M375.83,419.93h5.71v2.33a13.61,13.61,0,0,1,3.52-2.27,8.46,8.46,0,0,1,3.23-.64,7.81,7.81,0,0,1,5.75,2.36q2,2,2,5.94v15h-5.65v-10a25.65,25.65,0,0,0-.36-5.41,3.69,3.69,0,0,0-1.28-2,3.53,3.53,0,0,0-2.24-.7,4.14,4.14,0,0,0-3,1.16,6.17,6.17,0,0,0-1.73,3.2,26.61,26.61,0,0,0-.25,4.62v9.13h-5.71Z"/>
  </g>
  <g>
    <path class="cls-2" d="M226.91,303.83c1.58,0,2.83,0,4.08,0,6.91.13,11.7,4.6,12,11.52.23,5,.25,10,.13,15-.16,6.82-5.17,11.4-12.34,11.47q-31.5.31-63,.57c-4.41,0-8.83.1-13.24.06-6.82-.06-11.73-4.78-11.92-11.58q-.19-7.5-.07-15a11.22,11.22,0,0,1,10.66-11.21c3.1-.2,6.23,0,9.29,0,.88-5,.37-8.72-3.39-12.33-13-12.49-25.57-25.49-38.42-38.17-8.14-8-12.15-17.51-11.78-29,1-32.06,1.86-64.13,2.75-96.2.23-8.33,4.68-13.75,11.95-17,8.14-3.64,16.87-1,22.08,6.42,5.08,7.25,6.1,15.63,6.15,24.12.09,17.76-.1,35.52-.14,53.28,0,2.3.21,4.61.32,6.92l.88.48a16.74,16.74,0,0,1,1.41-2.07c6.91-7.53,19.16-8,26-.34,10,11.24,21.36,21.09,33,30.56,9,7.29,13.26,16.59,13.45,27.86.23,13.63.12,27.27.16,40.91Zm-9.72.19c0-16.18.21-31.86-.11-47.53a20.63,20.63,0,0,0-7-15.39c-12.52-11-25.63-21.34-36.66-34-2.91-3.32-8-3.26-11.24-.57-3.47,2.89-3.93,6.88-1.2,11a17.15,17.15,0,0,0,2.24,2.72c6.55,6.62,13.15,13.2,19.7,19.82,2.47,2.49,2.62,5.19.52,7.24s-4.66,1.91-7-.47c-7.41-7.43-14.74-14.93-22.1-22.41-8.72-8.88-12.55-19.38-12.11-32,.59-16.56.32-33.15.29-49.73,0-6.1-.57-12.19-3.55-17.69-3.41-6.29-10.64-7.27-15.34-1.87a11.32,11.32,0,0,0-2.41,6.62c-1,31.66-1.79,63.33-2.82,95-.3,9.16,2.83,16.53,9.29,22.9,14.11,13.91,28,28,42.09,42a7.84,7.84,0,0,1,2.62,6.24c-.11,2.7,0,5.4,0,8Zm-24.3,29v-.62c12.36,0,24.72-.05,37.07,0,2.78,0,3.93-1,3.81-3.8-.16-4-.13-8-.12-12.06,0-2.33-1-3.39-3.38-3.33-5.2.13-10.39.17-15.59.21q-29.56.25-59.13.45c-2.62,0-3.74.91-3.62,3.63.18,3.91.18,7.84.06,11.76-.08,2.8,1,3.8,3.84,3.78C168.18,333,180.54,333,192.89,333Z"/>
    <path class="cls-2" d="M337.46,304.54c2.71,0,5.34-.06,8,0,7.44.2,12,4.89,12,12.33,0,4.41,0,8.83-.06,13.24-.11,7.55-4.89,12.38-12.38,12.33q-38.1-.26-76.22-.64c-7.12-.07-11.9-5-11.94-12.17q0-6.63.1-13.25c.16-8,4.85-12.67,12.78-12.47,2.72.07,3.45-.71,3.43-3.42-.1-13.93-.16-27.86.12-41.79.22-10.92,4.4-20,13.08-27.12,11.76-9.64,23.23-19.59,33.44-31,6.82-7.61,19-7.06,26,.5.51.56,1,1.11,2.11,2.27.17-3,.41-5.25.4-7.53,0-17.66-.37-35.32,0-53a67.07,67.07,0,0,1,3-18.45c3-9.62,10.51-14.58,19.35-14,9.34.61,17.31,8.35,17.68,17.71.66,16.47,1,32.95,1.52,49.42.46,15.79.75,31.58,1.32,47.36.43,11.61-3.64,21.18-11.86,29.28-12.78,12.61-25.25,25.54-38.22,38C337.24,295.75,336.59,299.4,337.46,304.54Zm-9.78-.49c0-2.42.16-4.59,0-6.72-.33-3.53,1-6.06,3.51-8.54,13.77-13.56,27.3-27.35,41.08-40.9,6.54-6.44,9.74-13.88,9.42-23.14-.84-24-1.37-48-2.05-72.06-.23-8.13-.44-16.27-.8-24.4-.16-3.78-3.29-7.06-7.37-8.19a8,8,0,0,0-9.26,3.41,18.32,18.32,0,0,0-2.91,6.34,77.5,77.5,0,0,0-1.69,14q-.19,25.89.18,51.79c.13,9.78-2.67,18.44-9.3,25.58-8,8.63-16.28,17-24.5,25.4-2.66,2.72-5.35,2.88-7.46.72s-1.82-4.77.87-7.44c4.18-4.14,8.44-8.2,12.58-12.39a119.32,119.32,0,0,0,8.6-9.26c3.4-4.25,2.92-8.66-.81-11.7-3.49-2.86-8.46-2.32-11.88,1.32-1.81,1.93-3.44,4.06-5.39,5.83-9.21,8.38-18.3,16.9-27.84,24.89a26.43,26.43,0,0,0-10,21c-.14,14.31-.09,28.63-.1,42.95a8.4,8.4,0,0,0,.35,1.56ZM306.8,332.42V333c12.45,0,24.91-.05,37.36,0,2.79,0,3.92-1,3.84-3.77-.11-4-.08-8.05.05-12.06.09-2.44-1-3.31-3.31-3.33q-37.5-.29-75-.67c-2.39,0-3.4,1-3.39,3.32,0,3.93-.07,7.85-.08,11.77,0,3.6.41,4.06,4.06,4.06Q288.56,332.44,306.8,332.42Z"/>
    <path class="cls-2" d="M250.08,174.77c-1.57,0-3.15.09-4.7,0a9.8,9.8,0,0,1-9.35-9.24c-.15-1.86-.53-3.22-2.19-4.41-2.42-1.73-3.42-4.36-3.74-7.37a6.09,6.09,0,0,0-1.83-3.52c-2.55-2.33-4-5-3.94-8.49a60.09,60.09,0,0,0-8.8-33c-8.18-13.84-7.11-27.95,1.78-41C226.4,54.35,239.63,48.75,255.56,51c24.37,3.38,39.79,27.59,32.35,50.35a51.08,51.08,0,0,1-5,10.28,51.52,51.52,0,0,0-7.19,27.21c0,4.72-.44,9-4.72,12-.53.37-.66,1.54-.7,2.35a11,11,0,0,1-4.39,8.6,3.86,3.86,0,0,0-1.41,2.26c-.83,7.7-4.29,10.88-12.08,10.9h-2.35Zm16.71-43.23c.73-10.07,4.33-18.89,9.45-27.17a26.25,26.25,0,0,0,3.53-19.48c-2.47-12.54-9.93-20.65-22.22-24a29.49,29.49,0,0,0-31.67,11c-7.35,10.16-8.34,20.94-2.35,32.32a178.72,178.72,0,0,1,8.14,18.47c1.08,2.76,1.21,5.89,1.78,8.91h5.37V102.87c-1.39,0-2.56,0-3.73,0a12.75,12.75,0,0,1-3.58-24.79c7.15-2.54,17.8,2.46,17.56,12.6-.07,2.92.05,2.92,2.37,2.27.49-10,4.74-15.27,12.4-15.5A12.55,12.55,0,0,1,277,88.72a12.22,12.22,0,0,1-2.33,8.89c-3.33,4.58-8.17,5.66-13.54,5.31v28.62Zm-16.94-28.88-.8.56v28.14l.78.58c.57-.62,1.62-1.23,1.62-1.85q.17-12.8,0-25.6C251.45,103.87,250.41,103.27,249.85,102.66Zm-16,38.68-.21.71c.64.29,1.28.83,1.92.83q14.41.08,28.83,0c.63,0,1.26-.63,1.9-1l-.33-.56Zm5-48.12c.36-4.5-.63-6.4-3.26-6.34a3.05,3.05,0,0,0-3.24,3.36C232.35,92.83,234.37,93.75,238.87,93.22Zm22.25,0c4.48.54,6.52-.38,6.49-3a3,3,0,0,0-3.22-3.36C261.76,86.82,260.77,88.71,261.12,93.22Zm-.16,60-.24-.59H239.49c1.27,1.65,10.27,2.25,19.34,1.51A7.32,7.32,0,0,0,261,153.23ZM246.14,164c2.44,2.2,7.83,1.86,8.73,0Z"/>
    <path class="cls-2" d="M188.38,140.5c6.18,0,12.36,0,18.54,0,4.13,0,5.59,1.46,5.81,5.63.94,17.94,13.43,32.46,30.51,35.45,22.52,3.95,42.7-12.15,44-35.12.27-4.72,1.58-6,6.38-6q18.24,0,36.49,0c4.41,0,6,1.62,6.07,6,0,2.94,0,5.88,0,8.82a5.17,5.17,0,0,1-3.62,5.43c-3.39,1.27-7.54,1.84-9.9,4.17s-2.39,6.78-4.32,9.72c-3.48,5.33-3,10,0,15.38s2.61,5.91-1.87,10.4c-4.16,4.16-8.35,8.29-12.47,12.5-2,2.09-4.22,2.58-6.9,1.32-3.19-1.5-6.44-3.89-9.69-3.94-3.09,0-6.11,3-9.37,3.66-6.69,1.35-9.88,5.38-11.58,11.69-1.38,5.08-2.49,5.42-7.94,5.43-6.09,0-12.17-.09-18.25,0-3.27.06-5.66-1.07-6.41-4.34-1.62-7-5.1-12-12.76-13.08a7.51,7.51,0,0,1-3.47-1.54c-3.47-2.79-6.65-1.68-10.22,0-8.85,4.17-8,4.26-14.76-2.56-3.59-3.62-7.18-7.25-10.83-10.82-2-1.95-2.5-4.07-1.28-6.64a80.14,80.14,0,0,0,3.53-8.07,6.36,6.36,0,0,0-.05-4c-1.67-4.48-3.54-8.9-5.5-13.27a5.47,5.47,0,0,0-2.36-2.57c-2.75-1.27-5.63-2.27-8.48-3.3a5.32,5.32,0,0,1-3.91-5.55c.05-3.14,0-6.28,0-9.41.07-3.68,1.79-5.35,5.44-5.46h19.13Zm138.18,9.61h-30c-3.69,25.77-23.85,40.6-44.36,41.41a45.72,45.72,0,0,1-28.14-7.75c-12-8.1-18.62-19.52-20.57-33.66H173.44c-.65,2.06,0,3.08,1.91,3.68a38.59,38.59,0,0,1,7.63,3,9.71,9.71,0,0,1,3.68,4.14c2.61,5.77,5.05,11.64,7.26,17.58a10.13,10.13,0,0,1,.32,5.79c-.72,2.71-2.3,5.18-3.29,7.83a3.17,3.17,0,0,0,.42,2.71c3.1,3.39,6.38,6.63,9.6,9.92a95.89,95.89,0,0,1,9.71-4.15,9.18,9.18,0,0,1,5.53.23c6,2.27,12,4.75,17.83,7.42a9.55,9.55,0,0,1,4.08,3.73,41.8,41.8,0,0,1,3,7.63,2.63,2.63,0,0,0,3,2.09q5.88-.19,11.77,0a2.63,2.63,0,0,0,3-2.11c.84-2.51,1.89-4.94,2.79-7.42.8-2.2,2.32-3.31,4.55-4.14,5.84-2.18,11.61-4.6,17.3-7.18a6.82,6.82,0,0,1,6.15-.26c3,1.39,6.07,2.69,9.37,4.15,3.3-3.37,6.64-6.67,9.83-10.12a3,3,0,0,0,.2-2.52c-1-2.55-2.15-5-3.32-7.52a6.78,6.78,0,0,1,.2-6.15c2.61-5.78,4.79-11.75,7.41-17.52A9.63,9.63,0,0,1,317,156.8a38.62,38.62,0,0,1,7.63-3C326.53,153.18,327.2,152.16,326.56,150.11Z"/>
    <path class="cls-2" d="M193.28,100.49c-1.37,0-2.75.09-4.11,0a4.81,4.81,0,0,1-4.69-4.7,4.7,4.7,0,0,1,4.7-4.65c2.73-.11,5.48-.11,8.21,0A4.57,4.57,0,0,1,202,95.79a4.66,4.66,0,0,1-4.65,4.69C196,100.57,194.65,100.49,193.28,100.49Z"/>
    <path class="cls-2" d="M306.91,91.11c1.36,0,2.74-.08,4.1,0a4.74,4.74,0,0,1,4.5,4.56,4.66,4.66,0,0,1-4.31,4.73,73.65,73.65,0,0,1-8.79,0,4.66,4.66,0,0,1,.1-9.32C304,91,305.44,91.11,306.91,91.11Z"/>
    <path class="cls-2" d="M209.08,122.86a12,12,0,0,1-2.42,3.09,52.94,52.94,0,0,1-6.8,4c-2.66,1.39-5.29.68-6.62-1.62s-.61-4.88,2-6.51c2.23-1.39,4.5-2.76,6.85-3.92C205.43,116.25,209,118.36,209.08,122.86Z"/>
    <path class="cls-2" d="M307.39,125.36c-.07,4-3.4,6.32-6.47,4.93a53.92,53.92,0,0,1-8.1-4.68,4.15,4.15,0,0,1-1.36-5.71c1.19-2.31,3.31-3.32,5.64-2.28a55.67,55.67,0,0,1,8.59,5C306.67,123.25,307.06,124.79,307.39,125.36Z"/>
    <path class="cls-2" d="M205,74.77c-4.71-1.94-8.9-3.51-11.63-7-.79-1-.5-3.93.43-4.94a5.8,5.8,0,0,1,5.07-1.46,29.35,29.35,0,0,1,8.52,5c1.07.9,1.57,3.44,1.15,4.89S206.24,73.61,205,74.77Z"/>
    <path class="cls-2" d="M307.4,66.44A11.88,11.88,0,0,1,305,69.53a50.15,50.15,0,0,1-6.81,4c-2.67,1.39-5.3.69-6.62-1.6s-.61-4.89,2-6.51c2.23-1.39,4.5-2.75,6.85-3.92C303.74,59.84,307.32,61.94,307.4,66.44Z"/>
    <path class="cls-2" d="M224.4,318.31a4.59,4.59,0,1,1-4.71,4.54A4.59,4.59,0,0,1,224.4,318.31Z"/>
    <path class="cls-2" d="M275.71,327.5a4.74,4.74,0,0,1-4.65-4.68,4.66,4.66,0,0,1,4.48-4.51,4.61,4.61,0,0,1,4.77,4.49A4.7,4.7,0,0,1,275.71,327.5Z"/>
  </g>
</svg>
