<svg id="Layer_1" data-name="Layer 1" xmlns="http://www.w3.org/2000/svg" viewBox="0 0 500 500" height="150" width="150">
  <defs>
    <style>
      .cls-1 {
        fill: #316b29;
      }

      .cls-2 {
        fill: #a4c69f;
      }
    </style>
  </defs>
  <g>
    <path class="cls-1" d="M31.58,411.92h17v5.77H43v25H37v-25H31.58Z"/>
    <path class="cls-1" d="M62.67,419.35a12,12,0,0,1,6,1.61,11.62,11.62,0,0,1,4.43,4.37,11.75,11.75,0,0,1,1.59,6,12,12,0,0,1-1.6,6,11.68,11.68,0,0,1-4.36,4.38,12.1,12.1,0,0,1-6.09,1.58,11.33,11.33,0,0,1-8.36-3.49,12,12,0,0,1,8.34-20.44Zm.09,5.37a5.89,5.89,0,0,0-4.43,1.85,6.6,6.6,0,0,0-1.77,4.74,6.67,6.67,0,0,0,1.75,4.81A5.82,5.82,0,0,0,62.74,438a5.9,5.9,0,0,0,4.46-1.86,7.34,7.34,0,0,0,0-9.55A5.89,5.89,0,0,0,62.76,424.72Z"/>
    <path class="cls-1" d="M90.09,419.35A12,12,0,0,1,96.15,421a11.6,11.6,0,0,1,4.42,4.37,11.75,11.75,0,0,1,1.59,6,11.94,11.94,0,0,1-1.6,6,11.68,11.68,0,0,1-4.36,4.38,12.07,12.07,0,0,1-6.09,1.58,11.34,11.34,0,0,1-8.36-3.49,12.06,12.06,0,0,1,.46-17.35A11.41,11.41,0,0,1,90.09,419.35Zm.09,5.37a5.89,5.89,0,0,0-4.43,1.85A6.6,6.6,0,0,0,84,431.31a6.71,6.71,0,0,0,1.75,4.81A5.85,5.85,0,0,0,90.16,438a5.94,5.94,0,0,0,4.47-1.86,7.34,7.34,0,0,0,0-9.55A5.93,5.93,0,0,0,90.18,424.72Z"/>
    <path class="cls-1" d="M106.2,411.15h5.71v31.54H106.2Z"/>
    <path class="cls-1" d="M126.36,419.93h2c0-3,.07-4.75.15-5.29a4.33,4.33,0,0,1,1.58-3,5.91,5.91,0,0,1,3.82-1.1,11.74,11.74,0,0,1,4,.82v4.35a7.56,7.56,0,0,0-2-.36,2.1,2.1,0,0,0-1.46.42,1.83,1.83,0,0,0-.34,1.3l0,2.84h3.62v4.83H134.1v17.93h-5.71V424.76h-2Z"/>
    <path class="cls-1" d="M151.76,419.35a12,12,0,0,1,6.05,1.61,11.62,11.62,0,0,1,4.43,4.37,11.75,11.75,0,0,1,1.59,6,12,12,0,0,1-1.6,6,11.68,11.68,0,0,1-4.36,4.38,12.07,12.07,0,0,1-6.09,1.58,11.34,11.34,0,0,1-8.36-3.49,12,12,0,0,1,8.34-20.44Zm.09,5.37a5.89,5.89,0,0,0-4.43,1.85,6.6,6.6,0,0,0-1.77,4.74,6.67,6.67,0,0,0,1.75,4.81,5.84,5.84,0,0,0,4.43,1.84,5.9,5.9,0,0,0,4.46-1.86,7.33,7.33,0,0,0,0-9.55A5.93,5.93,0,0,0,151.85,424.72Z"/>
    <path class="cls-1" d="M167.15,419.93h4.9v2.87a6.05,6.05,0,0,1,2.11-2.57,5.07,5.07,0,0,1,2.89-.88,5.33,5.33,0,0,1,2.32.58l-1.78,4.92a3.84,3.84,0,0,0-1.65-.5,2.61,2.61,0,0,0-2.23,1.63q-.92,1.63-.91,6.4l0,1.11v9.2h-5.67Z"/>
    <path class="cls-1" d="M194.39,411.92h5.82v30.77h-5.82Z"/>
    <path class="cls-1" d="M206.12,419.93h5.71v2.62a9.76,9.76,0,0,1,3.26-2.41,9.47,9.47,0,0,1,3.9-.79,7.34,7.34,0,0,1,3.86,1,7.63,7.63,0,0,1,2.76,3.06,9,9,0,0,1,7.66-4.1,7.94,7.94,0,0,1,4.27,1.13,6.49,6.49,0,0,1,2.65,2.95,15.65,15.65,0,0,1,.81,5.92v13.34h-5.76V431.14c0-2.58-.32-4.32-1-5.24a3.3,3.3,0,0,0-2.89-1.37,4.36,4.36,0,0,0-2.62.84,5,5,0,0,0-1.73,2.31,14.64,14.64,0,0,0-.56,4.74v10.27h-5.76v-11a15.24,15.24,0,0,0-.45-4.43,4,4,0,0,0-1.35-2,3.6,3.6,0,0,0-2.18-.67,4.34,4.34,0,0,0-2.59.85,5.16,5.16,0,0,0-1.74,2.38,14.73,14.73,0,0,0-.58,4.81v10.12h-5.71Z"/>
    <path class="cls-1" d="M252.1,419.93v2.51a10.81,10.81,0,0,1,3.35-2.32,9.56,9.56,0,0,1,3.85-.77,9.94,9.94,0,0,1,7.57,3.36,12.23,12.23,0,0,1,3.12,8.64,12,12,0,0,1-3.22,8.51,10.16,10.16,0,0,1-7.64,3.42,9.62,9.62,0,0,1-3.66-.7,11.26,11.26,0,0,1-3.37-2.29V451h-5.67V419.93Zm6,4.69a6,6,0,0,0-4.48,1.84,6.62,6.62,0,0,0-1.78,4.81,6.83,6.83,0,0,0,1.78,4.91,5.94,5.94,0,0,0,4.48,1.87,5.8,5.8,0,0,0,4.4-1.91,7.45,7.45,0,0,0,0-9.65A5.81,5.81,0,0,0,258.11,424.62Z"/>
    <path class="cls-1" d="M273.38,419.93h4.89v2.87a6.05,6.05,0,0,1,2.11-2.57,5.07,5.07,0,0,1,2.89-.88,5.33,5.33,0,0,1,2.32.58l-1.78,4.92a3.84,3.84,0,0,0-1.65-.5,2.61,2.61,0,0,0-2.23,1.63c-.6,1.09-.91,3.22-.91,6.4l0,1.11v9.2h-5.66Z"/>
    <path class="cls-1" d="M299.11,419.35a12,12,0,0,1,6.05,1.61,11.53,11.53,0,0,1,4.42,4.37,11.75,11.75,0,0,1,1.59,6,12,12,0,0,1-1.59,6,11.7,11.7,0,0,1-4.37,4.38,12.06,12.06,0,0,1-6.08,1.58,11.33,11.33,0,0,1-8.36-3.49,12,12,0,0,1,8.34-20.44Zm.09,5.37a5.88,5.88,0,0,0-4.43,1.85,6.6,6.6,0,0,0-1.77,4.74,6.67,6.67,0,0,0,1.75,4.81,5.82,5.82,0,0,0,4.43,1.84,5.92,5.92,0,0,0,4.46-1.86,7.34,7.34,0,0,0,0-9.55A5.89,5.89,0,0,0,299.2,424.72Z"/>
    <path class="cls-1" d="M313.4,419.93h5.82L325,433.36l5.74-13.43h5.79l-9.69,22.76h-3.7Z"/>
    <path class="cls-1" d="M362.63,433H344.29a6.07,6.07,0,0,0,2.12,3.86,6.65,6.65,0,0,0,4.41,1.44,7.64,7.64,0,0,0,5.5-2.24l4.81,2.26a11.33,11.33,0,0,1-4.31,3.77,13.4,13.4,0,0,1-6,1.23,11.82,11.82,0,0,1-8.73-3.38,11.5,11.5,0,0,1-3.36-8.46,11.89,11.89,0,0,1,3.35-8.65,11.26,11.26,0,0,1,8.42-3.44,11.68,11.68,0,0,1,8.75,3.44,12.44,12.44,0,0,1,3.36,9.09Zm-5.71-4.49a5.72,5.72,0,0,0-2.23-3.1,6.5,6.5,0,0,0-3.86-1.19,6.88,6.88,0,0,0-4.2,1.34,7.48,7.48,0,0,0-2.09,3Z"/>
    <path class="cls-1" d="M367.21,419.93h5.72v2.62a9.63,9.63,0,0,1,3.25-2.41,9.47,9.47,0,0,1,3.9-.79,7.34,7.34,0,0,1,3.86,1,7.63,7.63,0,0,1,2.76,3.06,9,9,0,0,1,7.66-4.1,7.94,7.94,0,0,1,4.27,1.13,6.49,6.49,0,0,1,2.65,2.95,15.65,15.65,0,0,1,.81,5.92v13.34h-5.76V431.14c0-2.58-.32-4.32-1-5.24a3.3,3.3,0,0,0-2.89-1.37,4.36,4.36,0,0,0-2.62.84,5,5,0,0,0-1.73,2.31,14.64,14.64,0,0,0-.56,4.74v10.27h-5.75v-11a15.6,15.6,0,0,0-.45-4.43,4.11,4.11,0,0,0-1.36-2,3.6,3.6,0,0,0-2.18-.67,4.34,4.34,0,0,0-2.59.85,5.16,5.16,0,0,0-1.74,2.38,14.79,14.79,0,0,0-.57,4.81v10.12h-5.72Z"/>
    <path class="cls-1" d="M430.33,433H412a6.11,6.11,0,0,0,2.12,3.86,6.65,6.65,0,0,0,4.41,1.44A7.64,7.64,0,0,0,424,436l4.81,2.26a11.33,11.33,0,0,1-4.31,3.77,13.4,13.4,0,0,1-6,1.23,11.78,11.78,0,0,1-8.72-3.38,11.47,11.47,0,0,1-3.37-8.46,11.86,11.86,0,0,1,3.36-8.65,11.23,11.23,0,0,1,8.41-3.44,11.68,11.68,0,0,1,8.75,3.44,12.45,12.45,0,0,1,3.37,9.09Zm-5.72-4.49a5.72,5.72,0,0,0-2.23-3.1,6.5,6.5,0,0,0-3.86-1.19,6.83,6.83,0,0,0-4.19,1.34,7.39,7.39,0,0,0-2.1,3Z"/>
    <path class="cls-1" d="M435,419.93h5.71v2.33a13.45,13.45,0,0,1,3.52-2.27,8.46,8.46,0,0,1,3.23-.64,7.79,7.79,0,0,1,5.74,2.36q2,2,2,5.94v15h-5.64v-10a25.43,25.43,0,0,0-.37-5.41,3.67,3.67,0,0,0-1.27-2,3.55,3.55,0,0,0-2.25-.7,4.18,4.18,0,0,0-3,1.16,6.16,6.16,0,0,0-1.72,3.2,25.6,25.6,0,0,0-.25,4.62v9.13H435Z"/>
    <path class="cls-1" d="M461.35,411.54h5.71v8.39h3.39v4.92h-3.39v17.84h-5.71V424.85h-2.93v-4.92h2.93Z"/>
  </g>
  <g>
    <path class="cls-2" d="M284.46,120.69v51.25c0,3.45,5.06,10.26,8.37,11.15a6,6,0,0,0,2.72,0c3.32-.72,8.58-7.51,8.58-11q0-23.82,0-47.65v-3.78c1.05.41,1.87.65,2.63,1,9.06,4.52,18.08,9.12,27.17,13.56,6.61,3.22,9.68,8.34,9.6,15.71q-.22,20.28,0,40.57A17,17,0,0,1,336.7,206c-6.63,5.31-13.05,10.9-19.64,16.26a7.41,7.41,0,0,0-2.88,6.68q2,45.75,3.89,91.51a23.81,23.81,0,1,1-47.55-.07q1.86-45.75,3.9-91.5a7.5,7.5,0,0,0-2.93-6.67c-6.82-5.57-13.53-11.29-20.34-16.88a15.64,15.64,0,0,1-6.06-12.82q.09-21.06,0-42.12c0-6.84,3-11.69,9.1-14.72,9.26-4.57,18.48-9.25,27.72-13.86C282.63,121.4,283.38,121.14,284.46,120.69Zm-9.84,15.72c-5.48,2.75-10.52,5.4-15.67,7.8a6.3,6.3,0,0,0-4,6.49q.14,20.43,0,40.87a7.72,7.72,0,0,0,3.07,6.61c6.59,5.37,13,11,19.64,16.26,5,4,6.9,9,6.61,15.33q-2.1,45.59-3.87,91.18a13.93,13.93,0,0,0,14,14.72c8,0,14.12-6.54,13.91-14.83-.09-3.28-.3-6.55-.44-9.83-1.15-27.22-2.24-54.44-3.46-81.66-.27-6,1.56-10.76,6.26-14.56,6.84-5.55,13.62-11.18,20.25-17a7.61,7.61,0,0,0,2.65-4.83c.21-14.44.18-28.89,0-43.33,0-1.44-.85-3.55-2-4.18-5.64-3.19-11.5-6-17.63-9.13,0,10.85-.56,21.13.17,31.32.65,9.29-2.79,16.06-9.76,21.55-1.35,1.07-2.86,1.95-4.26,3-2.5,1.8-8.81,2.42-11.07.59-3.86-3.14-7.86-6.27-11-10.07-1.92-2.34-2.68-5.85-3.32-9-.53-2.55-.12-5.3-.12-8Z"/>
    <path class="cls-2" d="M373,47.54c3.83,3.87,7.33,7.31,10.72,10.87,3.06,3.21,4.09,7.15,4.09,11.55q-.07,60.72-.07,121.45c0,2.37.44,4.06,2.43,5.75a20.45,20.45,0,0,1,7.38,16c.09,36.18.15,72.36,0,108.54-.06,13.34-11.37,23.94-24.73,23.85-13.19-.09-24.26-10.75-24.31-24q-.21-54.11,0-108.22a21,21,0,0,1,7.71-16.45,5.39,5.39,0,0,0,2.12-4.65c0-40.48,0-81-.1-121.45,0-5.72,1.69-10.35,5.89-14.22C367.08,53.78,369.83,50.74,373,47.54Zm14.78,219.87c0-17.41.05-34.83-.06-52.24a18.54,18.54,0,0,0-1.43-7.11c-1.52-3.46-4-5.74-8.37-5.28a47.4,47.4,0,0,1-9.82,0c-4.35-.46-6.82,1.86-8.36,5.29a17.66,17.66,0,0,0-1.41,6.81c-.12,15.26-.06,30.53-.06,45.79q0,29.82,0,59.62c0,5.43,2.06,9.81,6.55,12.83a14.73,14.73,0,0,0,22.94-12.23C387.79,303.06,387.75,285.24,387.75,267.41Zm-9.84-74.55V189c0-39.23-.06-78.46.1-117.68,0-4.38-1.76-7.09-5-9.39-3.61,2.38-5.06,5.4-5,9.81.16,39.13.1,78.25.1,117.38v3.74Z"/>
    <path class="cls-2" d="M176.36,267h-19.7v78.34h-9.92v-3.55c0-25.61.22-51.23-.16-76.84-.1-6.45-2-12.9-3.36-19.28-.65-3-3.31-3.62-6.11-3.39a7.37,7.37,0,0,0-6.86,6c-.8,4.12-1.32,8.29-2.08,12.42-1.3,7.05-7.24,11.67-14,11s-11.56-6.17-11.65-13.21c0-3.27-.19-6.57,0-9.83.43-6.41.27-13,1.81-19.16A48.4,48.4,0,0,1,151.16,193q21.19-.15,42.4.05a5.77,5.77,0,0,0,5.45-3c5.06-7.71,16.92-10.34,24.76-5.49a13.3,13.3,0,0,1,6.53,11.83q.16,21.21,0,42.42a12.86,12.86,0,0,1-6.11,10.8c-7.59,5.13-20.06,2.71-25-4.93-1.47-2.25-3.53-3.21-5.72-2.34-1.64.67-3.66,2.4-4,4-1.78,8.06-3.53,16.1-3.43,24.53.3,23.66.11,47.33.11,71v3.44h-9.73Zm-20.65-10c6.72,0,13.07.07,19.41-.08a3.19,3.19,0,0,0,2.3-1.89c1-3.86,1.51-7.84,2.55-11.69a14,14,0,0,1,11.51-10.64c5.7-1.09,11.3-.07,14.49,5,2.61,4.18,5.8,4.9,10,4.54,3-.26,4.5-1.57,4.51-4.64,0-13.32.06-26.64-.06-40a5.55,5.55,0,0,0-1.62-3.71c-2.59-2.29-9.7-1-11.48,2-2.91,4.91-7.18,7-12.79,6.92-14.54-.07-29.09-.12-43.64,0-17.71.15-33.79,12.57-37.23,30-1.66,8.42-1.07,17.31-1.22,26,0,1,1.65,2.58,2.79,2.87,1.87.47,2.9-1,3.22-2.86.8-4.64,1.38-9.34,2.51-13.89,2-8,9.31-12.9,18.14-12.58,7.42.28,12.8,5.35,14.37,13.52C154.18,249.49,154.93,253.08,155.71,257Z"/>
    <path class="cls-2" d="M187.29,149.26c-3.31-2-6.61-4.07-9.95-6.07a5.44,5.44,0,0,0-7.67,3.18c-.94,3.77-1.8,7.56-2.73,11.45H146.25c-.86-3.52-1.75-7.15-2.62-10.78-1-4-4.8-5.67-8.28-3.56-3.23,2-6.44,3.93-9.5,5.8l-14.7-14.71c1.95-3.19,4-6.57,6.07-10a5.43,5.43,0,0,0-3.17-7.68c-3.77-.94-7.56-1.81-11.45-2.73V93.52l11.09-2.68a5.4,5.4,0,0,0,3.42-8c-2-3.32-4-6.62-6-9.77l14.69-14.71c3.2,1.95,6.57,4,10,6.09a5.38,5.38,0,0,0,7.66-3.17c.94-3.77,1.81-7.56,2.73-11.45h20.68c.83,3.32,1.7,6.74,2.53,10.17,1.21,5,4.74,6.43,9.18,3.71,2.8-1.72,5.6-3.41,8.4-5.11a.93.93,0,0,1,.41-.11C192.25,63.33,197,68.1,202,73.06c-2,3.23-4,6.6-6.08,10a5.36,5.36,0,0,0,3.18,7.64c3.77.94,7.55,1.81,11.43,2.74v20.71c-3.3.83-6.72,1.7-10.15,2.53-5,1.21-6.45,4.7-3.71,9.16l5.33,8.74Zm2.37-15.95a12.47,12.47,0,0,0-1-1.73c-4.63-5.19-4.52-10.34-1.52-16.62,2.15-4.48,4.5-6.86,9.35-7.55s4.74-1,4.14-6.18a69,69,0,0,0-6.74-1.63C191,99.17,189,98,188.25,95a28.24,28.24,0,0,0-2.7-6.51c-1.67-3-1.6-5.63.6-8.38a51.76,51.76,0,0,0,3.5-5.68c-.72-.78-1.25-1.39-1.83-2s-1.2-1.07-1.83-1.61a10.56,10.56,0,0,0-1.94,1.11c-5,4.63-10,4.32-16.05,1.47-4.54-2.13-7.21-4.36-7.88-9.45-.62-4.78-1-4.73-6.14-4.14-.54,2.19-1.29,4.43-1.63,6.74-.43,2.91-1.62,4.77-4.64,5.62a42.38,42.38,0,0,0-7.65,3.16,5.25,5.25,0,0,1-6.19-.44,74.71,74.71,0,0,0-6.58-4l-3.88,3.37a12.66,12.66,0,0,0,1.12,1.88c4.65,5.18,4.52,10.34,1.51,16.61-2.14,4.46-4.46,6.9-9.34,7.58s-4.74,1-4.14,6.16c2.59.62,5.25,1.35,8,1.86a4.57,4.57,0,0,1,3.92,3.27,99.63,99.63,0,0,0,4,9.64A4.3,4.3,0,0,1,128,126c-1.6,2.33-3,4.82-4.36,7.11L127,137a12.22,12.22,0,0,0,2.16-1.24c5.1-4.89,10.24-4.13,16.33-1.37,4.53,2.06,6.89,4.47,7.57,9.35s1,4.74,6.17,4.12c.58-2.39,1.29-4.84,1.73-7.34a5.36,5.36,0,0,1,4-4.75A72.31,72.31,0,0,0,174,132a4.24,4.24,0,0,1,4.8.43c2.33,1.61,4.82,3,7.12,4.37Z"/>
    <path class="cls-2" d="M102.62,177.63v-9.84h3.24q22.13,0,44.25,0c54.46,0,98.76-37.09,108.31-90.64C259,74.1,259.15,71,259.6,67L239,87.74,232.73,81l33.6-33.6C273.5,60,281,73.11,288.72,86.6l-8.48,4.92-11-19.07c-.95,4.94-1.69,9.33-2.63,13.67-9.88,45.32-48.7,82.17-94.63,89.66a130.63,130.63,0,0,1-18.93,1.75c-16.08.25-32.16.1-48.24.1Z"/>
    <path class="cls-2" d="M299,320.79h-9.44V306.41H299Z"/>
    <path class="cls-2" d="M368.3,217.74h9.45v103H368.3Z"/>
    <path class="cls-2" d="M156.77,123.51a19.68,19.68,0,1,1,19.47-20A19.74,19.74,0,0,1,156.77,123.51ZM156.41,94a9.82,9.82,0,1,0,10,9.59A9.91,9.91,0,0,0,156.41,94Z"/>
  </g>
</svg>
