<svg id="Layer_1" data-name="Layer 1" xmlns="http://www.w3.org/2000/svg" viewBox="0 0 500 500" height="150" width="150">
  <defs>
    <style>
      .cls-1 {
        fill: #316b29;
      }

      .cls-2 {
        fill: #a4c69f;
      }
    </style>
  </defs>
  <g>
    <path class="cls-1" d="M44.05,411.92h5.62l13.16,20.25V411.92h5.86v30.77H63.06L49.91,422.5v20.19H44.05Z"/>
    <path class="cls-1" d="M75.07,419.93h5.77v11a14.88,14.88,0,0,0,.45,4.45,3.83,3.83,0,0,0,1.41,1.93,4,4,0,0,0,2.4.69,4.13,4.13,0,0,0,2.42-.68,3.91,3.91,0,0,0,1.48-2,15.24,15.24,0,0,0,.36-4.21V419.93h5.71v9.65c0,4-.32,6.69-.94,8.15a8.88,8.88,0,0,1-3.39,4.11,10.33,10.33,0,0,1-5.69,1.44A10.07,10.07,0,0,1,79,441.6a8.84,8.84,0,0,1-3.25-4.66,28.09,28.09,0,0,1-.67-7.53Z"/>
    <path class="cls-1" d="M117.6,411.15h5.71v31.54H117.6v-2.4a11.23,11.23,0,0,1-3.36,2.29,9.48,9.48,0,0,1-3.64.7,10.14,10.14,0,0,1-7.63-3.42,12,12,0,0,1-3.22-8.51,12.23,12.23,0,0,1,3.12-8.64,9.91,9.91,0,0,1,7.56-3.36,9.56,9.56,0,0,1,3.85.77,10.7,10.7,0,0,1,3.32,2.32Zm-6,13.47a5.74,5.74,0,0,0-4.39,1.87,7.45,7.45,0,0,0,0,9.65,5.78,5.78,0,0,0,4.39,1.91,5.91,5.91,0,0,0,4.46-1.87,6.87,6.87,0,0,0,1.77-4.91,6.65,6.65,0,0,0-1.77-4.81A6,6,0,0,0,111.59,424.62Z"/>
    <path class="cls-1" d="M145.9,419.93h5.69v19.5q0,5.77-2.32,8.49-3.12,3.69-9.39,3.68a16.64,16.64,0,0,1-5.63-.83,10.19,10.19,0,0,1-3.85-2.46,10,10,0,0,1-2.32-3.94h6.3a5.16,5.16,0,0,0,2.15,1.45,8.89,8.89,0,0,0,3.12.49,8.29,8.29,0,0,0,3.7-.71,4.35,4.35,0,0,0,2-1.84,9.42,9.42,0,0,0,.57-3.89,9.49,9.49,0,0,1-3.16,2.16,10,10,0,0,1-3.74.66,10.28,10.28,0,0,1-7.74-3.3,12.82,12.82,0,0,1,.19-17.07,10,10,0,0,1,7.23-3,9.7,9.7,0,0,1,3.72.72,11.78,11.78,0,0,1,3.5,2.37ZM140,424.68a5.92,5.92,0,0,0-4.45,1.81,6.24,6.24,0,0,0-1.76,4.55,6.37,6.37,0,0,0,1.8,4.67,6.08,6.08,0,0,0,4.51,1.81,5.86,5.86,0,0,0,4.39-1.77,6.42,6.42,0,0,0,1.72-4.67,6.36,6.36,0,0,0-1.73-4.62A6,6,0,0,0,140,424.68Z"/>
    <path class="cls-1" d="M180.16,433H161.82a6.07,6.07,0,0,0,2.12,3.86,6.65,6.65,0,0,0,4.41,1.44,7.64,7.64,0,0,0,5.5-2.24l4.81,2.26a11.33,11.33,0,0,1-4.31,3.77,13.4,13.4,0,0,1-6,1.23,11.82,11.82,0,0,1-8.73-3.38,11.5,11.5,0,0,1-3.36-8.46,11.89,11.89,0,0,1,3.35-8.65,11.26,11.26,0,0,1,8.42-3.44,11.68,11.68,0,0,1,8.75,3.44,12.45,12.45,0,0,1,3.37,9.09Zm-5.71-4.49a5.72,5.72,0,0,0-2.23-3.1,6.5,6.5,0,0,0-3.86-1.19,6.83,6.83,0,0,0-4.19,1.34,7.39,7.39,0,0,0-2.1,3Z"/>
    <path class="cls-1" d="M198.72,423.11l-3.54,3.54c-1.43-1.43-2.74-2.14-3.91-2.14a2.45,2.45,0,0,0-1.5.41,1.21,1.21,0,0,0-.55,1,1.23,1.23,0,0,0,.35.84,6.53,6.53,0,0,0,1.7,1.06l2.09,1.05a12.16,12.16,0,0,1,4.54,3.32,6.92,6.92,0,0,1-1,9,8.55,8.55,0,0,1-6,2,9.5,9.5,0,0,1-7.95-3.89l3.51-3.83a8.13,8.13,0,0,0,2.36,1.89,5.19,5.19,0,0,0,2.39.72,2.88,2.88,0,0,0,1.82-.54,1.57,1.57,0,0,0,.69-1.26c0-.87-.83-1.73-2.49-2.57l-1.92-1q-5.52-2.79-5.52-7a6,6,0,0,1,2.08-4.61,7.52,7.52,0,0,1,5.32-1.91,9.25,9.25,0,0,1,7.49,3.76Z"/>
    <path class="cls-1" d="M235.54,430.6l3.49,4L237.44,436l-1.56,1.42,4.94,5.23h-7.1l-2-2.09a18,18,0,0,1-9,2.87,7.94,7.94,0,0,1-5.72-2.08,7,7,0,0,1-2.19-5.31,9.25,9.25,0,0,1,1.24-4.62,16.24,16.24,0,0,1,4.24-4.5q-3-4-3-7.07a6.81,6.81,0,0,1,2-4.5,8.1,8.1,0,0,1,11.1,0,6.34,6.34,0,0,1,1,7.8,24.61,24.61,0,0,1-4.09,4.77c2.5,2.95,4.11,4.78,4.84,5.51Q232.79,432.94,235.54,430.6Zm-7.65,5.93a66.18,66.18,0,0,1-4.55-5.26c-2.06,1.72-3.1,3.21-3.1,4.5a2.21,2.21,0,0,0,.85,1.65,3.1,3.1,0,0,0,2.14.75A9.74,9.74,0,0,0,227.89,436.53Zm-3.48-12.71c1.55-1.32,2.32-2.49,2.32-3.51a1.76,1.76,0,0,0-.52-1.3,1.93,1.93,0,0,0-1.38-.5,1.78,1.78,0,0,0-1.35.57,1.8,1.8,0,0,0-.56,1.31A5.88,5.88,0,0,0,224.41,423.82Z"/>
    <path class="cls-1" d="M257.77,411.92H264q5.1,0,7.26.91a7.52,7.52,0,0,1,3.48,3,9.34,9.34,0,0,1,1.31,5,8.52,8.52,0,0,1-1.45,5.08A8.84,8.84,0,0,1,270.2,429l7.29,13.68h-6.41l-6.92-13h-.53v13h-5.86Zm5.86,12h1.83a7.14,7.14,0,0,0,3.85-.74,2.76,2.76,0,0,0,1.05-2.43,2.94,2.94,0,0,0-.52-1.75,2.8,2.8,0,0,0-1.39-1.07,10.53,10.53,0,0,0-3.22-.33h-1.6Z"/>
    <path class="cls-1" d="M304.4,433H286.05a6.12,6.12,0,0,0,2.13,3.86,6.62,6.62,0,0,0,4.4,1.44,7.62,7.62,0,0,0,5.5-2.24l4.81,2.26a11.26,11.26,0,0,1-4.31,3.77,13.4,13.4,0,0,1-6,1.23,11.78,11.78,0,0,1-8.72-3.38,11.47,11.47,0,0,1-3.37-8.46,11.86,11.86,0,0,1,3.36-8.65,11.25,11.25,0,0,1,8.42-3.44,11.68,11.68,0,0,1,8.74,3.44,12.41,12.41,0,0,1,3.37,9.09Zm-5.71-4.49a5.77,5.77,0,0,0-2.23-3.1,6.53,6.53,0,0,0-3.87-1.19,6.85,6.85,0,0,0-4.19,1.34,7.49,7.49,0,0,0-2.1,3Z"/>
    <path class="cls-1" d="M309,419.93h5.71v2.62a9.72,9.72,0,0,1,3.25-2.41,9.55,9.55,0,0,1,3.91-.79,7.31,7.31,0,0,1,3.85,1,7.56,7.56,0,0,1,2.76,3.06,9,9,0,0,1,7.67-4.1,8,8,0,0,1,4.27,1.13,6.46,6.46,0,0,1,2.64,2.95,15.65,15.65,0,0,1,.81,5.92v13.34H338.1V431.14c0-2.58-.32-4.32-1-5.24a3.29,3.29,0,0,0-2.88-1.37,4.39,4.39,0,0,0-2.63.84,4.94,4.94,0,0,0-1.72,2.31,14.31,14.31,0,0,0-.57,4.74v10.27h-5.75v-11a15.6,15.6,0,0,0-.45-4.43,4,4,0,0,0-1.35-2,3.62,3.62,0,0,0-2.18-.67,4.32,4.32,0,0,0-2.59.85,5,5,0,0,0-1.74,2.38,14.46,14.46,0,0,0-.58,4.81v10.12H309Z"/>
    <path class="cls-1" d="M351.52,410.56a3.46,3.46,0,0,1,2.57,1.09,3.73,3.73,0,0,1,0,5.24,3.45,3.45,0,0,1-2.54,1.08,3.51,3.51,0,0,1-2.6-1.1,3.65,3.65,0,0,1-1.07-2.67,3.64,3.64,0,0,1,3.63-3.64Zm-2.86,9.37h5.71v22.76h-5.71Z"/>
    <path class="cls-1" d="M359.56,419.93h5.71v2.33a13.61,13.61,0,0,1,3.52-2.27,8.46,8.46,0,0,1,3.23-.64,7.79,7.79,0,0,1,5.74,2.36,8.13,8.13,0,0,1,2,5.94v15H374.1v-10a24.75,24.75,0,0,0-.37-5.41,3.67,3.67,0,0,0-1.27-2,3.54,3.54,0,0,0-2.24-.7,4.19,4.19,0,0,0-3,1.16,6.16,6.16,0,0,0-1.72,3.2,25.6,25.6,0,0,0-.25,4.62v9.13h-5.71Z"/>
    <path class="cls-1" d="M402.06,411.15h5.72v31.54h-5.72v-2.4a11.19,11.19,0,0,1-3.35,2.29,9.48,9.48,0,0,1-3.64.7,10.13,10.13,0,0,1-7.63-3.42,11.93,11.93,0,0,1-3.22-8.51,12.27,12.27,0,0,1,3.11-8.64,9.94,9.94,0,0,1,7.57-3.36,9.55,9.55,0,0,1,3.84.77,10.47,10.47,0,0,1,3.32,2.32Zm-6,13.47a5.77,5.77,0,0,0-4.4,1.87,7.48,7.48,0,0,0,0,9.65,5.78,5.78,0,0,0,4.39,1.91,5.89,5.89,0,0,0,4.46-1.87,6.87,6.87,0,0,0,1.78-4.91,6.66,6.66,0,0,0-1.78-4.81A5.93,5.93,0,0,0,396.06,424.62Z"/>
    <path class="cls-1" d="M436.35,433H418a6.12,6.12,0,0,0,2.13,3.86,6.64,6.64,0,0,0,4.4,1.44A7.62,7.62,0,0,0,430,436l4.81,2.26a11.26,11.26,0,0,1-4.31,3.77,13.4,13.4,0,0,1-6,1.23,11.78,11.78,0,0,1-8.72-3.38,11.47,11.47,0,0,1-3.37-8.46,11.86,11.86,0,0,1,3.36-8.65,11.25,11.25,0,0,1,8.42-3.44,11.66,11.66,0,0,1,8.74,3.44,12.41,12.41,0,0,1,3.37,9.09Zm-5.71-4.49a5.77,5.77,0,0,0-2.23-3.1,6.51,6.51,0,0,0-3.87-1.19,6.85,6.85,0,0,0-4.19,1.34,7.48,7.48,0,0,0-2.09,3Z"/>
    <path class="cls-1" d="M439.63,419.93h4.9v2.87a6.05,6.05,0,0,1,2.11-2.57,5.07,5.07,0,0,1,2.89-.88,5.33,5.33,0,0,1,2.32.58l-1.78,4.92a3.84,3.84,0,0,0-1.65-.5,2.61,2.61,0,0,0-2.23,1.63q-.92,1.63-.91,6.4l0,1.11v9.2h-5.67Z"/>
    <path class="cls-1" d="M468.61,423.11l-3.54,3.54q-2.16-2.14-3.91-2.14a2.51,2.51,0,0,0-1.51.41,1.23,1.23,0,0,0-.54,1,1.19,1.19,0,0,0,.35.84,6.17,6.17,0,0,0,1.7,1.06l2.09,1.05a12.24,12.24,0,0,1,4.54,3.32,7,7,0,0,1-1,9,8.55,8.55,0,0,1-6,2,9.5,9.5,0,0,1-7.95-3.89l3.51-3.83a8.09,8.09,0,0,0,2.35,1.89,5.23,5.23,0,0,0,2.4.72,2.88,2.88,0,0,0,1.82-.54,1.57,1.57,0,0,0,.69-1.26c0-.87-.83-1.73-2.49-2.57l-1.92-1q-5.53-2.79-5.53-7a6.07,6.07,0,0,1,2.08-4.61,7.56,7.56,0,0,1,5.33-1.91,9.19,9.19,0,0,1,4.17,1A9.35,9.35,0,0,1,468.61,423.11Z"/>
  </g>
  <g>
    <path class="cls-2" d="M338.71,45.58h6.49c13.09,4.21,13.91,14.67,12.76,26.27h3.61c4.62,0,9.24-.1,13.85,0,5.52.18,9.38,3.84,9.42,9.29.13,16.6.16,33.21-.09,49.81a11.18,11.18,0,0,1-3,6.69,6.76,6.76,0,0,0-2,5.11q0,75,0,150a43.52,43.52,0,0,1-.17,4.71,18.92,18.92,0,0,1-18.73,17.32c-4,.12-8.05,0-12.08,0H328.33c-2.94,8.09-5.21,9.69-13.54,9.69H272.27c-2.3,14.54-9.46,22.3-20.81,22.79a22.08,22.08,0,0,1-14.44-4.1c-6.24-4.57-8.86-11-9.14-18.69h-3.5q-20.48,0-41,0c-6.12,0-9.46-2.53-11.23-8.33a14.24,14.24,0,0,0-.55-1.35c-10.36,0-20.57.05-30.79,0a26.74,26.74,0,0,1-7-.87c-8.63-2.44-13.67-9.76-13.68-19.68q0-43,0-86.07,0-33,0-66a4.61,4.61,0,0,0-1.86-4.25c-2.42-1.83-3.29-4.53-3.29-7.54q0-24.32,0-48.64c0-3,.79-5.92,3.34-7.47A16.67,16.67,0,0,1,125.74,72c5.26-.35,10.56-.11,16.08-.11,0-3.69-.1-7,0-10.34.21-6.32,3.24-11,8.71-14.06a45.63,45.63,0,0,1,4.23-1.87h6.48c13.29,4.1,13.92,14.76,12.91,26h28.76c0-1.35,0-2.42,0-3.49,0-2.45-.1-4.92.09-7.36.62-8.22,5.7-12.68,13.06-15.14H222c10.68,4.16,13.47,8.29,13.47,20v6.08h29.06c0-3.35,0-6.48,0-9.61.11-5.19,2-9.69,6.18-12.79,2.16-1.58,4.84-2.46,7.28-3.65h5.9C294.63,50.12,297,53.81,297,65.73v5.89H325.7c0-3.55-.08-6.89,0-10.21.17-6.1,3.07-10.63,8.25-13.7A43.21,43.21,0,0,1,338.71,45.58ZM171.93,306c0-2.46.15-4.61,0-6.73a8.32,8.32,0,0,1,3-7.25,109.25,109.25,0,0,0,8.49-9c9.39-11,14.85-23.44,14.11-38.23-.28-5.59-.11-11.2,0-16.8.32-20.53,9.19-36.22,27-46.45,3.11-1.78,4-3.57,4-7a21.24,21.24,0,0,1,26.08-20.72c10.23,2.24,16.91,10.63,16.81,21.55,0,2.89.8,4.34,3.44,5.81,16.64,9.3,26,23.53,27.35,42.63.56,8,.31,16.1.26,24.15,0,8.77,1.84,17.12,6.7,24.34A155.85,155.85,0,0,0,324,290.92c2.84,3.07,4.55,5.93,4,10.09a43.93,43.93,0,0,0,0,5h30.53c8.58,0,12.37-3.8,12.37-12.42V140.44H261.63c-4.47,0-6.62-1.46-6.62-4.46s2.12-4.38,6.65-4.38H372.18a7.58,7.58,0,0,0,2.34-.07c.59-.19,1.43-.85,1.45-1.34.14-2.89.07-5.79.07-8.63H123.9v6c0,4,0,4,3.91,4H235.68a29,29,0,0,1,2.95,0c2.5.25,4,1.64,4.09,4.17s-1.35,4-3.74,4.53a16.53,16.53,0,0,1-3.23.1H129.17c-.07,1-.14,1.45-.14,1.93q0,76.33,0,152.66c0,6.85,4.25,11,11.12,11,7.36,0,14.73,0,22.1,0ZM312.7,292.47c-.72-1-1.06-1.55-1.49-2C299,276.58,292.42,260.78,293.59,242a111.82,111.82,0,0,0-.49-21.18c-2.66-20.54-19.87-35.75-41.13-37-20.25-1.2-39.27,12.45-44,32.32-1.47,6.1-1.27,12.64-1.58,19-.34,7.05.14,14.18-.68,21.17-1.47,12.71-7.84,23.29-15.89,33-.78.92-1.53,1.86-2.67,3.25h49.61c1,0,2.23-.31,2.89.16,1.38,1,3,2.24,3.51,3.73.7,2-.56,3.85-2.71,4.55a11.85,11.85,0,0,1-3.48.39q-26.22,0-52.46,0h-3.71v10c0,4.38,0,4.38,4.39,4.38H314.85a5.57,5.57,0,0,0,2.32-.08c.8-.42,1.9-1.27,1.93-2,.19-4,.09-8,.09-12.34H262.12a13.07,13.07,0,0,1-2.94-.16c-2.41-.56-3.78-2.12-3.57-4.65a4.07,4.07,0,0,1,4-4c1.07-.1,2.16-.06,3.24-.06ZM123.92,112.29H376.08v-3.42c0-8.84,0-17.68-.09-26.51a2.19,2.19,0,0,0-1.49-1.57c-5.36-.12-10.72-.08-16.33-.08,0,2.43,0,4.47,0,6.51a16.23,16.23,0,0,1-32.46.14c-.05-2.13,0-4.26,0-6.5H297c0,1.9,0,3.64,0,5.39-.13,10-7,17.17-16.36,17.09-9.17-.07-16.06-7.35-16.16-17.08,0-1.74,0-3.48,0-5.39H235.45c0,2.17.06,4.21,0,6.25-.31,9.25-7.44,16.27-16.41,16.22s-15.8-7-16.07-16.18c-.07-2,0-4.08,0-6.21H174.29c0,2.19,0,4.14,0,6.09A16.24,16.24,0,1,1,141.81,87c0-2,0-4,0-6.25-5.61,0-10.82,0-16,.07-.64,0-1.79,1-1.8,1.56C123.89,92.23,123.92,102.14,123.92,112.29ZM288.19,74.6c0-4.12.07-8.25,0-12.37-.11-4.67-3.21-7.84-7.43-7.79a7.38,7.38,0,0,0-7.34,7.65q-.18,12.38,0,24.75a7.39,7.39,0,0,0,7.34,7.65c4.22.05,7.32-3.13,7.43-7.81C288.26,82.66,288.19,78.63,288.19,74.6Zm-122.74-.19c0-4,0-8.06,0-12.09-.07-4.63-3.14-7.87-7.36-7.88s-7.38,3.25-7.41,7.85q-.09,12.23,0,24.45c0,4.56,3.3,7.82,7.52,7.74s7.17-3.25,7.24-7.7C165.5,82.66,165.45,78.53,165.45,74.41Zm46.34-.1c0,4.12-.07,8.25,0,12.37.1,4.56,3,7.68,7.13,7.8s7.56-3,7.63-7.64q.19-12.37,0-24.75c-.07-4.6-3.41-7.76-7.64-7.64s-7,3.22-7.13,7.78C211.72,66.25,211.79,70.28,211.79,74.31Zm137.54.07c0-4,0-8.06,0-12.08-.07-4.61-3.18-7.87-7.41-7.86s-7.32,3.24-7.36,7.87q-.07,12.09,0,24.17c0,4.68,3,7.92,7.23,8s7.49-3.24,7.55-8C349.37,82.43,349.33,78.41,349.33,74.38ZM237.24,324.73a11.52,11.52,0,0,0,5.66,11.79c4.77,2.58,9.72,3,14.5-.17,4-2.68,6.14-7.36,5.27-11.62Zm.1-149.17h25.31a12,12,0,0,0-6-11.51c-4.56-2.85-9.34-2.33-13.68.26A11.35,11.35,0,0,0,237.34,175.56Z"/>
    <path class="cls-2" d="M237.24,324.73h25.43c.87,4.26-1.26,8.94-5.27,11.62-4.78,3.19-9.73,2.75-14.5.17A11.52,11.52,0,0,1,237.24,324.73Z"/>
    <path class="cls-2" d="M237.34,175.56A11.35,11.35,0,0,1,243,164.31c4.34-2.59,9.12-3.11,13.68-.26a12,12,0,0,1,6,11.51Z"/>
    <path class="cls-2" d="M346.48,207.69c-1,5.46-1.94,11-3.19,16.37-.76,3.3-3.2,4.61-5.87,3.72-2.48-.83-3.41-3.13-2.54-6.3,6.89-25-4.19-47.4-28.36-57.19-3.1-1.26-4.3-3.34-3.38-5.84s3.35-3.61,6.58-2.36c19.72,7.66,31.42,22,35.45,42.7a33.89,33.89,0,0,1,.55,4.37c.09,1.47,0,2.94,0,4.41Z"/>
    <path class="cls-2" d="M153.4,207.68c.7-22.71,14.5-42.93,35.51-51.12a18.4,18.4,0,0,1,2.51-.82,4.28,4.28,0,0,1,5.44,2.74c.81,2.22-.2,4.38-2.59,5.52-.53.25-1.1.43-1.65.64a45.76,45.76,0,0,0-27.85,55.74c.16.56.38,1.11.51,1.69.64,2.77-.42,5-2.75,5.71a4.19,4.19,0,0,1-5.66-3.2C155.52,219,154.54,213.32,153.4,207.68Z"/>
    <path class="cls-2" d="M327.78,207.73c-.68,3.56-1.21,7.15-2.11,10.65-.79,3.06-3.17,4.33-5.77,3.49-2.41-.78-3.55-3.06-2.64-6a27.4,27.4,0,0,0-12.39-32c-1.37-.76-2.81-1.4-4.25-2-3.07-1.33-4.31-3.39-3.43-5.84.95-2.65,3.41-3.55,6.54-2.42C317.84,178.72,327.49,192.59,327.78,207.73Z"/>
    <path class="cls-2" d="M172.1,207.33c.6-14.8,9.82-28.17,23.44-33.45,3.66-1.42,6.09-.74,7.18,2s-.26,4.76-3.75,6.2c-13.59,5.62-20.2,18.93-16.43,33.09.13.47.32.93.41,1.41a4.39,4.39,0,0,1-3,5.32,4.08,4.08,0,0,1-5.37-2.82C173.52,215.22,172.9,211.25,172.1,207.33Z"/>
  </g>
</svg>
