<svg id="Layer_1" data-name="Layer 1" xmlns="http://www.w3.org/2000/svg" viewBox="0 0 500 500" height="150" width="150">
  <defs>
    <style>
      .cls-1 {
        fill: #316b29;
      }

      .cls-2 {
        fill: #a4c69f;
      }
    </style>
  </defs>
  <g>
    <path class="cls-1" d="M135.16,416.1l-4.34,3.83q-2.28-3.18-4.65-3.18a2.85,2.85,0,0,0-1.89.62,1.79,1.79,0,0,0-.73,1.39,2.4,2.4,0,0,0,.52,1.47,40.73,40.73,0,0,0,4.3,3.95c2.23,1.87,3.59,3.05,4.06,3.53a12.27,12.27,0,0,1,2.53,3.45,8.5,8.5,0,0,1,.74,3.58,8.22,8.22,0,0,1-2.62,6.26,9.56,9.56,0,0,1-6.82,2.47,10.13,10.13,0,0,1-5.73-1.62,12.76,12.76,0,0,1-4.18-5.06l4.93-3q2.22,4.08,5.11,4.08a3.73,3.73,0,0,0,2.53-.88,2.59,2.59,0,0,0,1-2,3.51,3.51,0,0,0-.78-2.09,22,22,0,0,0-3.41-3.2q-5-4.09-6.5-6.33a8.06,8.06,0,0,1-1.46-4.44,7.23,7.23,0,0,1,2.44-5.49,8.43,8.43,0,0,1,6-2.29,9.54,9.54,0,0,1,4.39,1.06A16.13,16.13,0,0,1,135.16,416.1Z"/>
    <path class="cls-1" d="M140.64,419.93h5.77v11a15.32,15.32,0,0,0,.44,4.45,3.91,3.91,0,0,0,1.42,1.93,4,4,0,0,0,2.4.69,4.13,4.13,0,0,0,2.42-.68,3.91,3.91,0,0,0,1.48-2,15.24,15.24,0,0,0,.36-4.21V419.93h5.71v9.65c0,4-.32,6.69-.94,8.15a8.88,8.88,0,0,1-3.39,4.11,10.35,10.35,0,0,1-5.69,1.44,10.07,10.07,0,0,1-6.06-1.68,8.84,8.84,0,0,1-3.25-4.66,28.09,28.09,0,0,1-.67-7.53Z"/>
    <path class="cls-1" d="M180.3,423.11l-3.53,3.54c-1.44-1.43-2.74-2.14-3.92-2.14a2.45,2.45,0,0,0-1.5.41,1.21,1.21,0,0,0-.55,1,1.23,1.23,0,0,0,.35.84,6.53,6.53,0,0,0,1.7,1.06l2.1,1.05a12.19,12.19,0,0,1,4.53,3.32,6.92,6.92,0,0,1-1,9,8.54,8.54,0,0,1-6,2,9.5,9.5,0,0,1-8-3.89l3.51-3.83a8.13,8.13,0,0,0,2.36,1.89,5.19,5.19,0,0,0,2.39.72,2.86,2.86,0,0,0,1.82-.54,1.57,1.57,0,0,0,.69-1.26c0-.87-.83-1.73-2.49-2.57l-1.92-1q-5.52-2.79-5.52-7a6,6,0,0,1,2.08-4.61,7.53,7.53,0,0,1,5.32-1.91,9.21,9.21,0,0,1,7.49,3.76Z"/>
    <path class="cls-1" d="M185.91,411.54h5.71v8.39H195v4.92h-3.39v17.84h-5.71V424.85H183v-4.92h2.93Z"/>
    <path class="cls-1" d="M214.86,419.93h5.71v22.76h-5.71v-2.4a11.23,11.23,0,0,1-3.36,2.29,9.48,9.48,0,0,1-3.64.7,10.14,10.14,0,0,1-7.63-3.42,12,12,0,0,1-3.22-8.51,12.23,12.23,0,0,1,3.12-8.64,9.91,9.91,0,0,1,7.56-3.36,9.56,9.56,0,0,1,3.85.77,10.7,10.7,0,0,1,3.32,2.32Zm-6,4.69a5.74,5.74,0,0,0-4.39,1.87,7.45,7.45,0,0,0,0,9.65,5.76,5.76,0,0,0,4.39,1.91,5.92,5.92,0,0,0,4.46-1.87,6.87,6.87,0,0,0,1.77-4.91,6.65,6.65,0,0,0-1.77-4.81A6,6,0,0,0,208.85,424.62Z"/>
    <path class="cls-1" d="M228.57,410.56a3.49,3.49,0,0,1,2.58,1.09,3.62,3.62,0,0,1,1.07,2.64,3.57,3.57,0,0,1-1.06,2.6,3.46,3.46,0,0,1-2.55,1.08,3.53,3.53,0,0,1-2.6-1.1,3.69,3.69,0,0,1-1.07-2.67,3.64,3.64,0,0,1,3.63-3.64Zm-2.86,9.37h5.71v22.76h-5.71Z"/>
    <path class="cls-1" d="M236.61,419.93h5.71v2.33a13.61,13.61,0,0,1,3.52-2.27,8.46,8.46,0,0,1,3.23-.64,7.77,7.77,0,0,1,5.74,2.36q2,2,2,5.94v15h-5.65v-10a25.65,25.65,0,0,0-.36-5.41,3.69,3.69,0,0,0-1.28-2,3.53,3.53,0,0,0-2.24-.7,4.19,4.19,0,0,0-3,1.16,6.23,6.23,0,0,0-1.72,3.2,26.61,26.61,0,0,0-.25,4.62v9.13h-5.71Z"/>
    <path class="cls-1" d="M279.12,419.93h5.71v22.76h-5.71v-2.4a11.23,11.23,0,0,1-3.36,2.29,9.48,9.48,0,0,1-3.64.7,10.14,10.14,0,0,1-7.63-3.42,12,12,0,0,1-3.22-8.51,12.23,12.23,0,0,1,3.12-8.64,9.91,9.91,0,0,1,7.56-3.36,9.56,9.56,0,0,1,3.85.77,10.7,10.7,0,0,1,3.32,2.32Zm-6,4.69a5.74,5.74,0,0,0-4.39,1.87,7.45,7.45,0,0,0,0,9.65,5.78,5.78,0,0,0,4.39,1.91,5.91,5.91,0,0,0,4.46-1.87,6.87,6.87,0,0,0,1.77-4.91,6.65,6.65,0,0,0-1.77-4.81A6,6,0,0,0,273.11,424.62Z"/>
    <path class="cls-1" d="M296.27,411.15v11.29a10.81,10.81,0,0,1,3.35-2.32,9.56,9.56,0,0,1,3.85-.77,9.94,9.94,0,0,1,7.57,3.36,12.23,12.23,0,0,1,3.12,8.64,11.93,11.93,0,0,1-3.23,8.51,10.13,10.13,0,0,1-7.63,3.42,9.62,9.62,0,0,1-3.66-.7,11.26,11.26,0,0,1-3.37-2.29v2.4H290.6V411.15Zm6,13.47a5.94,5.94,0,0,0-4.47,1.84,6.62,6.62,0,0,0-1.78,4.81,6.83,6.83,0,0,0,1.78,4.91,5.93,5.93,0,0,0,4.47,1.87,5.81,5.81,0,0,0,4.41-1.91,7.45,7.45,0,0,0,0-9.65A5.82,5.82,0,0,0,302.27,424.62Z"/>
    <path class="cls-1" d="M321.11,410.56a3.49,3.49,0,0,1,2.58,1.09,3.62,3.62,0,0,1,1.07,2.64,3.57,3.57,0,0,1-1.06,2.6,3.46,3.46,0,0,1-2.55,1.08,3.49,3.49,0,0,1-2.59-1.1,3.66,3.66,0,0,1-1.08-2.67,3.51,3.51,0,0,1,1.07-2.57A3.47,3.47,0,0,1,321.11,410.56Zm-2.85,9.37H324v22.76h-5.71Z"/>
    <path class="cls-1" d="M328.53,411.15h5.71v31.54h-5.71Z"/>
    <path class="cls-1" d="M341.65,410.56a3.49,3.49,0,0,1,2.58,1.09,3.76,3.76,0,0,1,0,5.24A3.45,3.45,0,0,1,341.7,418a3.5,3.5,0,0,1-2.6-1.1A3.66,3.66,0,0,1,338,414.2a3.65,3.65,0,0,1,3.63-3.64Zm-2.85,9.37h5.71v22.76H338.8Z"/>
    <path class="cls-1" d="M350.39,411.54h5.71v8.39h3.39v4.92H356.1v17.84h-5.71V424.85h-2.93v-4.92h2.93Z"/>
    <path class="cls-1" d="M360,419.93h5.84l5.91,14.28,6.53-14.28h5.85L369.88,451H364l4.68-10Z"/>
  </g>
  <g>
    <path class="cls-2" d="M221.71,354.23c-2.9-1.21-6-2-8.66-3.7-6.8-4.3-10.3-10.68-10.43-18.78,0-1.78-.19-3-2.21-3.7-2.29-.83-3.34-2.94-3.3-5.42a5.68,5.68,0,0,1,3.37-5.42c.64-.32,1.3-.57,2.1-.92,0-4.08.09-8.18-.08-12.28a3.63,3.63,0,0,0-1.71-2.43c-6.24-3.64-9.52-9-9.18-16.21.19-4,.27-8.39,1.86-11.95,1.38-3.12,4.85-5.28,7.29-8a6.05,6.05,0,0,0,1.75-3A41.1,41.1,0,0,0,193.94,233c-4.94-6.54-9.58-13.32-14.61-19.8-29.38-37.9-21.28-89.67,11.16-119.7,48.7-45.07,127.33-21.85,145,42.83,7.49,27.52,2.79,53-14.22,76.1-5.6,7.59-11.05,15.29-16.65,22.88-6.13,8.29-7.8,17.69-7.08,27.69a3.3,3.3,0,0,0,1.45,2.27c6.7,3.71,9.62,9.39,9.58,17,0,5.22-.18,10.3-3.72,14.54-.91,1.1-1.83,2.51-3.05,3-4.36,1.64-4.72,4.92-4.36,8.84.23,2.54,0,5.12,0,7,1.86,1.58,3.66,2.56,4.66,4.08a5.78,5.78,0,0,1-2.77,8.48,2.75,2.75,0,0,0-1.93,2.94c-.38,11.93-6.61,19.57-18.31,22.64a3.84,3.84,0,0,0-.78.45Zm63.42-90.79c0-1.34,0-2.36,0-3.37a49.48,49.48,0,0,1,9.72-32.35q8.19-11.35,16.51-22.61c14-18.88,18.51-39.9,12.94-62.61C311.73,91.17,259,69.27,216.09,90.61c-41.42,20.58-56.84,76.27-27.25,114.77,6.06,7.88,11.78,16,17.49,24.17a46.9,46.9,0,0,1,8.55,29c0,1.6,0,3.2,0,4.89Zm-.19,40.05a47.07,47.07,0,0,1-6.19-.06,11.73,11.73,0,0,1-5.09-1.65c-2.08-1.48-2.57-3.87-1.77-6.37a5.39,5.39,0,0,1,5.17-4.11c4.19-.15,8.39-.09,12.59-.13,4.88-.05,6.48-1.63,6.51-6.42,0-.62,0-1.23,0-1.85,0-5.69-1.33-7-7.08-7h-76.2c-8.51,0-9.18.7-9,9.36.06,4.08,1.71,5.82,5.78,5.9,3.89.08,7.78,0,11.67,0,4.45.06,7,2.25,7.13,5.93s-2.59,6.22-7.08,6.36c-2.1.07-4.2,0-6.2,0v12.92h69.79ZM215.08,329c-.69,8.22,3.48,12.86,11.3,12.89,3.28,0,6.56,0,9.83,0,12.71,0,25.41,0,38.11,0,7.35,0,12.09-6,10.32-12.88Z"/>
    <path class="cls-2" d="M317.67,38.72c4.92,3.1,5.57,5.78,2.61,10.94-3.72,6.48-7.43,13-11.2,19.42a5.88,5.88,0,0,1-6.42,3.19,5.47,5.47,0,0,1-4.93-4.78,8.11,8.11,0,0,1,.88-4.66q5.7-10.36,11.78-20.5c.85-1.41,2.37-2.42,3.59-3.61Z"/>
    <path class="cls-2" d="M186,38.72c1.57,1.81,3.43,3.45,4.67,5.47,3.67,6,7.15,12.18,10.61,18.34,2.25,4,1,8-2.79,9.43a5.71,5.71,0,0,1-7.41-2.64C186.87,62.2,182.7,55,178.7,47.76c-1.94-3.54-.65-6.35,3.64-9Z"/>
    <path class="cls-2" d="M343.58,206.94a13.94,13.94,0,0,1,2.74,1q10.4,5.91,20.72,12a5.93,5.93,0,0,1,3.21,6.43,5.39,5.39,0,0,1-4.47,4.87,8.24,8.24,0,0,1-4.94-.79c-7-3.83-13.87-7.87-20.74-11.92a6.11,6.11,0,0,1-3.13-7C337.73,208.8,340.1,207,343.58,206.94Z"/>
    <path class="cls-2" d="M136.46,231.62c-3.37-.23-5.46-1.48-6.43-4.2s-.33-5.35,2.06-6.81q11.26-6.84,22.84-13.19c2.65-1.45,5.89-.08,7.42,2.5a5.88,5.88,0,0,1-1.55,8c-2.15,1.55-4.54,2.76-6.83,4.1-4.69,2.73-9.36,5.47-14.08,8.14A30.07,30.07,0,0,1,136.46,231.62Z"/>
    <path class="cls-2" d="M136.44,87.16a20.52,20.52,0,0,1,3.28,1.31q9.87,5.59,19.66,11.33c3.69,2.16,4.84,5.57,3.08,8.76s-5.48,4-9.31,1.83c-6.75-3.86-13.48-7.73-20.17-11.68-2.84-1.68-3.86-4.23-3.1-7S132.87,87.19,136.44,87.16Z"/>
    <path class="cls-2" d="M343.15,111.73c-3.23-.21-5.21-1.62-6.08-4.36s-.17-5.16,2.1-6.54c7.51-4.56,15.11-9,22.83-13.18,2.84-1.54,6.1-.06,7.59,2.71s1,6.13-1.87,7.86c-7.34,4.45-14.82,8.67-22.28,12.92A7.89,7.89,0,0,1,343.15,111.73Z"/>
    <path class="cls-2" d="M130.35,153.23c4,0,8,0,12,0,3.82.06,6.42,2.45,6.54,5.87s-2.47,6.31-6.41,6.38q-12,.19-23.92,0c-4.12-.07-6.5-2.57-6.46-6.26s2.48-5.93,6.64-6C122.58,153.18,126.47,153.23,130.35,153.23Z"/>
    <path class="cls-2" d="M369.52,165.55c-3.78,0-7.56.06-11.34,0-4.46-.1-7.11-2.6-7-6.42s2.69-5.85,7.12-5.87q11.34-.06,22.68,0c4.43,0,6.92,2.22,6.95,6s-2.43,6.09-6.77,6.3H369.52Z"/>
    <path class="cls-2" d="M227.83,182.88a24.68,24.68,0,0,1,.93-3.18,5.9,5.9,0,0,1,9.29-2.16,81.26,81.26,0,0,1,8,8c2.12,2.42,1.83,5.59-.49,8.1-2,2.19-4.18,4.23-6.27,6.35-1.83,1.85-3.89,3-6.6,2.22a6.09,6.09,0,0,1-4.57-5.56,8.4,8.4,0,0,0-.43-1.24c-3.44,0-7-.15-10.54,0-14.19.7-21.7-13.79-14.83-25.58,1.8-3.1,3.54-6.24,5.37-9.33,2.28-3.86,5.72-5,9-3.1s3.81,5.47,1.61,9.38c-1.71,3-3.53,6-5.2,9.07-2.4,4.43-.78,7.16,4.22,7.2,3.17,0,6.35,0,9.52,0A6.83,6.83,0,0,0,227.83,182.88Z"/>
    <path class="cls-2" d="M281.28,166.55c-3.07,1.41-5.71,1.61-8.06-.58s-2.16-4.7-1.4-7.41c.72-2.56,1.34-5.15,2.1-7.7,1.22-4.1,4.05-5.73,8.23-4.74,2.29.54,4.54,1.23,6.82,1.81,2.86.72,5.63,1.63,6.46,4.91s-.71,5.74-3.47,7.56c2,3.48,4,6.81,5.88,10.23,6.17,11.29-.86,24-13.71,24.65-4.29.22-8.6.16-12.89.08-4-.09-6.39-2.39-6.48-5.91s2.35-6.17,6.42-6.33c3.79-.15,7.58,0,11.37-.08,5-.12,6.51-2.95,4-7.28C284.88,172.74,283.12,169.75,281.28,166.55Z"/>
    <path class="cls-2" d="M240.28,128.66c2.84,1.85,4.21,4.12,3.55,7.21s-3.13,4.33-6,5c-2.38.6-4.73,1.3-7.12,1.87-4.55,1.1-7.27-.49-8.58-5-.71-2.46-1.34-4.94-2-7.4-.79-2.84-.82-5.54,1.66-7.61,2.32-1.94,4.86-1.88,7.74-.27,1.85-3.17,3.84-6.25,5.49-9.5,6.47-12.74,23-11.53,29.4-.26,1.87,3.3,3.84,6.53,5.68,9.85,2,3.64,1.17,7.29-2,9.06s-6.49.66-8.59-2.84c-1.89-3.16-3.62-6.43-5.55-9.56-2.61-4.23-5.87-4.15-8.36.13C243.86,122.4,242.14,125.42,240.28,128.66Z"/>
    <path class="cls-2" d="M249.92,291.23a6.08,6.08,0,1,1-6,6.06A6,6,0,0,1,249.92,291.23Z"/>
  </g>
</svg>
