<svg width="18" height="18" viewBox="0 0 18 18" fill="none" xmlns="http://www.w3.org/2000/svg">
<path d="M3.48784 1.73377C3.43292 1.93545 3.41846 2.146 3.44532 2.35328C3.47218 2.56057 3.53981 2.76049 3.64432 2.9415C3.74883 3.12252 3.88815 3.28105 4.05424 3.40795C4.22032 3.53485 4.40989 3.62761 4.61201 3.68089L11.7416 5.57966L1.33411 11.5884C0.970447 11.7984 0.705083 12.1442 0.596398 12.5498C0.487713 12.9554 0.54461 13.3876 0.754573 13.7513C0.964536 14.1149 1.31037 14.3803 1.71598 14.489C2.1216 14.5977 2.55378 14.5408 2.91745 14.3308L13.3249 8.32207L11.4045 15.4458C11.2954 15.8531 11.3525 16.2871 11.5633 16.6522C11.7742 17.0174 12.1214 17.2838 12.5287 17.393C12.936 17.5021 13.3699 17.445 13.7351 17.2341C14.1002 17.0233 14.3667 16.6761 14.4758 16.2688L17.3735 5.45442C17.423 5.25194 17.4321 5.04167 17.4002 4.83567C17.378 4.62965 17.313 4.43055 17.2094 4.25109C17.1058 4.07164 16.9658 3.9158 16.7985 3.79355C16.6361 3.66292 16.4494 3.56564 16.2493 3.50731L5.43496 0.609606C5.23328 0.554681 5.02273 0.540228 4.81544 0.567086C4.60816 0.593944 4.40824 0.661578 4.22722 0.766087C4.04621 0.870597 3.88768 1.00991 3.76077 1.176C3.63387 1.34209 3.54111 1.53166 3.48784 1.73377Z" fill="#294294"/>
</svg>
