<svg width="224" height="77" viewBox="0 0 224 77" fill="none" xmlns="http://www.w3.org/2000/svg">
<path d="M44.2402 35.9241C44.4692 37.3569 45.0369 38.3944 45.9451 39.0345C46.8534 39.6745 48.204 39.9956 50.001 39.9956C50.8994 39.9956 51.6491 39.8957 52.252 39.6941C52.8549 39.4945 53.3364 39.2263 53.6986 38.8916C54.0607 38.5568 54.3191 38.1654 54.4718 37.7171C54.6244 37.2689 54.7008 36.7951 54.7008 36.298C54.7008 35.8967 54.6538 35.5091 54.5579 35.1372C54.462 34.7653 54.276 34.4247 53.9981 34.1193C53.7201 33.814 53.3384 33.5458 52.851 33.3168C52.3636 33.0877 51.7372 32.9057 50.9738 32.7726L48.3939 32.3146C47.3799 32.1423 46.4834 31.9133 45.7004 31.6275C44.9175 31.3398 44.2539 30.9737 43.7078 30.5235C43.1636 30.0752 42.7525 29.5154 42.4746 28.846C42.1966 28.1765 42.0596 27.3661 42.0596 26.4089C42.0596 25.4518 42.2553 24.6512 42.6468 23.9445C43.0383 23.2379 43.5688 22.6448 44.2382 22.1672C44.9077 21.6895 45.7005 21.3353 46.6165 21.1062C47.5346 20.8772 48.527 20.7617 49.5977 20.7617C50.9542 20.7617 52.0856 20.9105 52.9939 21.2061C53.9021 21.5016 54.6421 21.899 55.2156 22.3962C55.7891 22.8934 56.2237 23.461 56.5192 24.1011C56.8148 24.7412 57.0399 25.395 57.1926 26.0644L54.7282 26.5518C54.5755 25.9783 54.3798 25.4674 54.141 25.0192C53.9021 24.5709 53.587 24.197 53.1955 23.9015C52.804 23.6059 52.3205 23.3808 51.749 23.2281C51.1754 23.0754 50.4786 22.9991 49.6564 22.9991C48.7208 22.9991 47.9359 23.0852 47.3056 23.2575C46.6753 23.4297 46.1683 23.6646 45.7866 23.9602C45.4049 24.2577 45.1328 24.6101 44.9703 25.0211C44.8079 25.4322 44.7276 25.8667 44.7276 26.3248C44.7276 26.822 44.7902 27.2565 44.9136 27.6284C45.0369 28.0003 45.2483 28.3253 45.5439 28.6032C45.8394 28.8812 46.227 29.1102 46.7046 29.2903C47.1822 29.4723 47.7753 29.6289 48.482 29.764L51.3477 30.2808C53.4695 30.682 55.0257 31.3456 56.0201 32.2735C57.0125 33.2013 57.5097 34.5617 57.5097 36.3586C57.5097 37.1808 57.3512 37.95 57.036 38.6665C56.7209 39.3829 56.253 40.0093 55.6325 40.5437C55.012 41.078 54.233 41.4989 53.2973 41.8043C52.3616 42.1096 51.2615 42.2623 50.001 42.2623C48.7404 42.2623 47.7029 42.1429 46.7183 41.9041C45.7337 41.6653 44.8783 41.2875 44.1521 40.7727C43.4259 40.2559 42.8426 39.5982 42.4041 38.7957C41.9637 37.9931 41.6975 37.0379 41.6016 35.93H44.2382L44.2402 35.9241Z" fill="#294294"/>
<path d="M70.0674 39.7089C69.533 40.3588 68.8538 40.9186 68.0316 41.3864C67.2095 41.8543 66.1877 42.0892 64.9643 42.0892C64.2185 42.0892 63.5354 41.9991 62.9149 41.8171C62.2944 41.635 61.758 41.359 61.3098 40.9852C60.8596 40.6133 60.5111 40.1493 60.2625 39.5954C60.0139 39.0414 59.8906 38.3916 59.8906 37.6458C59.8906 36.6338 60.1059 35.8116 60.5346 35.1813C60.9653 34.551 61.5388 34.0539 62.2552 33.6898C62.9716 33.3276 63.7781 33.0693 64.6766 32.9166C65.575 32.7639 66.5009 32.668 67.4561 32.6308L70.0067 32.5447V31.9711C70.0067 30.7105 69.7385 29.8023 69.2041 29.2483C68.6698 28.6944 67.7987 28.4164 66.5949 28.4164C65.391 28.4164 64.5415 28.6122 63.9876 29.0036C63.4336 29.3951 63.0695 29.9354 62.8992 30.6225L60.6345 30.3641C60.9026 29.0076 61.5427 28.0191 62.5547 27.3966C63.5667 26.7761 64.9428 26.4648 66.683 26.4648C67.7537 26.4648 68.6561 26.594 69.3921 26.8524C70.1281 27.1108 70.7251 27.4788 71.1831 27.9564C71.6412 28.434 71.972 29.0271 72.1716 29.7338C72.3732 30.4404 72.4731 31.2351 72.4731 32.1121V41.7427H70.0654V39.707L70.0674 39.7089ZM70.0106 34.3201L67.6323 34.4062C66.6184 34.4453 65.7786 34.5393 65.1092 34.6939C64.4397 34.8466 63.9093 35.0522 63.5178 35.3105C63.1263 35.5689 62.8483 35.888 62.6859 36.2716C62.5234 36.6533 62.4431 37.0938 62.4431 37.591C62.4431 38.3367 62.6682 38.9338 63.1165 39.382C63.5648 39.8322 64.3066 40.0554 65.3382 40.0554C66.8102 40.0554 67.9553 39.6933 68.7774 38.967C69.5995 38.2408 70.0106 37.2464 70.0106 35.9859V34.324V34.3201Z" fill="#294294"/>
<path d="M76.2578 26.9248H78.7222V29.1896C79.3917 28.2716 80.1257 27.5904 80.9283 27.1402C81.7308 26.6919 82.553 26.4668 83.3927 26.4668C84.5006 26.4668 85.3932 26.7056 86.0724 27.1832C86.7497 27.6608 87.2528 28.3499 87.5777 29.2464C88.2472 28.3283 89.0106 27.6374 89.8699 27.1676C90.7292 26.6997 91.6472 26.4648 92.622 26.4648C94.0745 26.4648 95.1961 26.8622 95.9908 27.655C96.7836 28.4477 97.1809 29.724 97.1809 31.4818V41.7427H94.6872V32.0553C94.6872 31.3859 94.6304 30.828 94.5149 30.3778C94.3994 29.9295 94.233 29.5752 94.0138 29.3168C93.7946 29.0585 93.5225 28.8784 93.1975 28.7727C92.8726 28.6689 92.5007 28.6141 92.0798 28.6141C91.659 28.6141 91.1814 28.6905 90.7038 28.8431C90.2261 28.9958 89.7583 29.264 89.3003 29.6457C88.9186 29.9706 88.6034 30.3621 88.3548 30.8202C88.1062 31.2782 87.9829 31.8048 87.9829 32.3959V41.7407H85.4891V32.0808C85.4891 30.781 85.264 29.8786 84.8158 29.3716C84.3655 28.8647 83.7215 28.6122 82.8818 28.6122C81.907 28.6122 80.9909 29.0134 80.1296 29.816C79.8047 30.1214 79.4935 30.5128 79.1979 30.9905C78.9023 31.4681 78.7536 32.1082 78.7536 32.9107V41.7388H76.2598V26.9209L76.2578 26.9248Z" fill="#294294"/>
<path d="M110.161 39.7089C109.627 40.3588 108.948 40.9186 108.125 41.3864C107.303 41.8543 106.281 42.0892 105.058 42.0892C104.312 42.0892 103.629 41.9991 103.009 41.8171C102.388 41.635 101.852 41.359 101.404 40.9852C100.953 40.6133 100.605 40.1493 100.356 39.5954C100.108 39.0414 99.9844 38.3916 99.9844 37.6458C99.9844 36.6338 100.2 35.8116 100.628 35.1813C101.059 34.551 101.633 34.0539 102.349 33.6898C103.065 33.3276 103.872 33.0693 104.77 32.9166C105.669 32.7639 106.595 32.668 107.55 32.6308L110.1 32.5447V31.9711C110.1 30.7105 109.832 29.8023 109.298 29.2483C108.764 28.6944 107.894 28.4164 106.691 28.4164C105.487 28.4164 104.635 28.6122 104.081 29.0036C103.527 29.3951 103.163 29.9354 102.993 30.6225L100.728 30.3641C100.996 29.0076 101.636 28.0191 102.648 27.3966C103.66 26.7761 105.037 26.4648 106.777 26.4648C107.847 26.4648 108.75 26.594 109.486 26.8524C110.222 27.1108 110.819 27.4788 111.277 27.9564C111.735 28.434 112.066 29.0271 112.265 29.7338C112.465 30.4404 112.567 31.2351 112.567 32.1121V41.7427H110.159V39.707L110.161 39.7089ZM110.104 34.3201L107.726 34.4062C106.714 34.4453 105.872 34.5393 105.203 34.6939C104.533 34.8466 104.003 35.0522 103.612 35.3105C103.22 35.5689 102.942 35.888 102.78 36.2716C102.617 36.6533 102.537 37.0938 102.537 37.591C102.537 38.3367 102.762 38.9338 103.21 39.382C103.658 39.8322 104.4 40.0554 105.432 40.0554C106.904 40.0554 108.049 39.6933 108.871 38.967C109.693 38.2408 110.104 37.2464 110.104 35.9859V34.324V34.3201Z" fill="#294294"/>
<path d="M118.878 44.0329C119.087 44.9314 119.494 45.5715 120.095 45.9532C120.698 46.3349 121.638 46.5267 122.918 46.5267C124.484 46.5267 125.57 46.0921 126.171 45.223C126.774 44.3539 127.074 43.0875 127.074 41.4256V38.9338C126.5 39.7363 125.807 40.3568 124.995 40.7972C124.182 41.2377 123.231 41.4569 122.143 41.4569C121.054 41.4569 120.14 41.2612 119.348 40.8697C118.555 40.4782 117.899 39.9438 117.384 39.2646C116.868 38.5873 116.482 37.7984 116.224 36.9C115.965 36.0015 115.836 35.0365 115.836 34.0049C115.836 32.8774 115.989 31.8517 116.294 30.9239C116.599 29.998 117.04 29.2033 117.613 28.5456C118.187 27.8859 118.88 27.375 119.692 27.0129C120.504 26.6508 121.417 26.4688 122.429 26.4688C123.251 26.4688 124.067 26.6371 124.879 26.9699C125.692 27.3046 126.432 27.9212 127.101 28.8177V26.9268H129.565V39.337C129.565 40.6172 129.475 42.6842 129.293 43.708C129.111 44.7298 128.777 45.5989 128.291 46.3172C127.804 47.0337 127.13 47.5837 126.271 47.9654C125.412 48.3471 124.302 48.5389 122.945 48.5389C120.996 48.5389 119.467 48.1905 118.359 47.4917C117.251 46.7949 116.601 45.6439 116.409 44.0388H118.874L118.878 44.0329ZM127.132 33.7739C127.132 32.7991 127.017 31.9829 126.788 31.3232C126.559 30.6636 126.244 30.1233 125.842 29.7044C125.441 29.2836 124.977 28.9841 124.453 28.802C123.926 28.62 123.378 28.5299 122.804 28.5299C122.194 28.5299 121.624 28.6298 121.1 28.8314C120.573 29.033 120.115 29.3521 119.723 29.7925C119.332 30.2329 119.027 30.7947 118.805 31.4837C118.586 32.1708 118.477 33.0027 118.477 33.9775C118.477 34.9523 118.596 35.8116 118.835 36.5007C119.074 37.1877 119.383 37.7436 119.766 38.1625C120.148 38.5834 120.593 38.8887 121.1 39.0806C121.606 39.2724 122.117 39.3664 122.632 39.3664C123.282 39.3664 123.879 39.2607 124.423 39.0512C124.967 38.8418 125.441 38.5266 125.842 38.1058C126.244 37.6849 126.559 37.1564 126.788 36.5144C127.017 35.8743 127.132 35.1246 127.132 34.2653V33.7779V33.7739Z" fill="#294294"/>
<path d="M133.406 26.9224H135.871V29.2146C136.425 28.3925 137.074 27.7622 137.82 27.3237C138.566 26.8853 139.359 26.6641 140.199 26.6641C140.715 26.6641 141.154 26.7032 141.518 26.7796L141.203 29.1011C141.011 29.0639 140.821 29.0287 140.629 29.0013C140.437 28.9719 140.228 28.9582 139.999 28.9582C139.541 28.9582 139.071 29.0404 138.593 29.2009C138.116 29.3634 137.666 29.6355 137.247 30.0172C136.826 30.3813 136.497 30.8001 136.258 31.2778C136.019 31.7554 135.9 32.3093 135.9 32.9396V41.7383H133.406V26.9205V26.9224Z" fill="#294294"/>
<path d="M152.558 39.7089C152.023 40.3588 151.344 40.9186 150.522 41.3864C149.7 41.8543 148.678 42.0892 147.455 42.0892C146.709 42.0892 146.026 41.9991 145.405 41.8171C144.785 41.635 144.248 41.359 143.8 40.9852C143.35 40.6133 143.001 40.1493 142.755 39.5954C142.506 39.0414 142.383 38.3916 142.383 37.6458C142.383 36.6338 142.598 35.8116 143.027 35.1813C143.457 34.551 144.029 34.0539 144.747 33.6898C145.464 33.3276 146.27 33.0693 147.169 32.9166C148.067 32.7639 148.993 32.668 149.948 32.6308L152.499 32.5447V31.9711C152.499 30.7105 152.231 29.8023 151.696 29.2483C151.162 28.6944 150.293 28.4164 149.089 28.4164C147.885 28.4164 147.034 28.6122 146.48 29.0036C145.926 29.3951 145.562 29.9354 145.391 30.6225L143.127 30.3641C143.395 29.0076 144.035 28.0191 145.047 27.3966C146.059 26.7761 147.435 26.4648 149.175 26.4648C150.246 26.4648 151.148 26.594 151.884 26.8524C152.62 27.1108 153.217 27.4788 153.675 27.9564C154.133 28.434 154.464 29.0271 154.664 29.7338C154.863 30.4404 154.965 31.2351 154.965 32.1121V41.7427H152.558V39.707V39.7089ZM152.501 34.3201L150.123 34.4062C149.111 34.4453 148.269 34.5393 147.599 34.6939C146.93 34.8466 146.399 35.0522 146.008 35.3105C145.617 35.5689 145.339 35.888 145.176 36.2716C145.014 36.6533 144.933 37.0938 144.933 37.591C144.933 38.3367 145.158 38.9338 145.607 39.382C146.055 39.8322 146.797 40.0554 147.828 40.0554C149.3 40.0554 150.446 39.6933 151.268 38.967C152.09 38.2408 152.501 37.2464 152.501 35.9859V34.324V34.3201Z" fill="#294294"/>
<path d="M45.078 51.3523H41.6016V50.1445H49.9246V51.3523H46.4482V60.6619H45.078V51.3523Z" fill="#EC672C"/>
<path d="M49.5586 53.0433H50.8251V54.2216C51.1089 53.7988 51.4436 53.4759 51.8273 53.2488C52.2109 53.0237 52.6181 52.9102 53.0507 52.9102C53.3149 52.9102 53.542 52.9297 53.728 52.9689L53.5655 54.1629C53.4676 54.1434 53.3697 54.1257 53.2699 54.112C53.1701 54.0983 53.0644 54.0905 52.945 54.0905C52.7101 54.0905 52.4693 54.1316 52.2227 54.2158C51.978 54.2999 51.747 54.4389 51.5298 54.6347C51.3144 54.8206 51.1441 55.0379 51.0208 55.2826C50.8975 55.5273 50.8368 55.8131 50.8368 56.138V60.6597H49.5547V53.0433H49.5586Z" fill="#EC672C"/>
<path d="M59.4002 59.6185C59.1242 59.9533 58.7758 60.2391 58.3549 60.4798C57.9321 60.7206 57.4075 60.84 56.7792 60.84C56.3955 60.84 56.0451 60.793 55.7261 60.6991C55.407 60.6051 55.131 60.4642 54.902 60.2723C54.671 60.0805 54.4909 59.8436 54.3637 59.5579C54.2365 59.274 54.1719 58.9393 54.1719 58.5556C54.1719 58.035 54.2815 57.6122 54.5027 57.2892C54.7239 56.9642 55.0175 56.7098 55.3874 56.5238C55.7554 56.3379 56.1704 56.2048 56.6324 56.1265C57.0943 56.0482 57.57 55.9992 58.0613 55.9797L59.3728 55.9346V55.6391C59.3728 54.9911 59.2358 54.5253 58.9598 54.2395C58.6838 53.9557 58.2375 53.8128 57.6189 53.8128C57.0004 53.8128 56.5639 53.9126 56.2781 54.1142C55.9923 54.3158 55.8063 54.5938 55.7183 54.9461L54.5536 54.813C54.6906 54.1162 55.0194 53.6072 55.5401 53.2882C56.0608 52.9691 56.7674 52.8086 57.662 52.8086C58.212 52.8086 58.676 52.8751 59.0537 53.0083C59.4315 53.1414 59.7388 53.3293 59.9737 53.5759C60.2086 53.8206 60.3789 54.126 60.4827 54.49C60.5864 54.8541 60.6373 55.2613 60.6373 55.7134V60.6638H59.4002V59.6185ZM59.3708 56.8488L58.1474 56.8938C57.6268 56.9134 57.1942 56.9623 56.8516 57.0406C56.5071 57.1189 56.235 57.2246 56.0334 57.3577C55.8318 57.4908 55.6889 57.6552 55.6067 57.851C55.5225 58.0467 55.4814 58.2738 55.4814 58.5282C55.4814 58.9119 55.5969 59.2192 55.8279 59.4482C56.0588 59.6792 56.4386 59.7947 56.9691 59.7947C57.7246 59.7947 58.3138 59.6088 58.7366 59.2349C59.1594 58.861 59.3708 58.3501 59.3708 57.7022V56.8488Z" fill="#EC672C"/>
<path d="M62.582 53.0435H63.8485V54.2082C64.2224 53.7071 64.6334 53.3488 65.0856 53.1335C65.5378 52.9182 66.0134 52.8086 66.5145 52.8086C67.3778 52.8086 68.0198 53.0435 68.4368 53.5152C68.8537 53.987 69.0631 54.678 69.0631 55.5921V60.6599H67.781V55.8426C67.781 55.136 67.6538 54.6369 67.3974 54.3471C67.1409 54.0574 66.7494 53.9126 66.219 53.9126C65.9332 53.9126 65.6513 53.9615 65.3714 54.0594C65.0915 54.1573 64.839 54.3158 64.6119 54.5311C64.3672 54.7465 64.1793 54.9755 64.0521 55.2162C63.9248 55.457 63.8602 55.7682 63.8602 56.1519V60.6599H62.5781V53.0435H62.582Z" fill="#EC672C"/>
<path d="M71.8035 58.4362C71.8916 58.9667 72.1148 59.3367 72.473 59.5481C72.8312 59.7595 73.3205 59.8652 73.9391 59.8652C74.5576 59.8652 75.047 59.7556 75.3171 59.5344C75.5873 59.3132 75.7223 59.0215 75.7223 58.6574C75.7223 58.5106 75.7047 58.3697 75.6714 58.2385C75.6362 58.1054 75.5696 57.988 75.4718 57.8842C75.3739 57.7805 75.2369 57.6905 75.0588 57.6122C74.8826 57.5339 74.6516 57.4693 74.3658 57.4203L73.393 57.2735C72.9604 57.205 72.5826 57.1169 72.2576 57.0093C71.9327 56.9016 71.6587 56.7607 71.4336 56.5884C71.2085 56.4162 71.0382 56.2048 70.9246 55.9542C70.8111 55.7037 70.7543 55.4022 70.7543 55.0479C70.7543 54.6936 70.8307 54.3804 70.9833 54.1044C71.136 53.8304 71.3474 53.5955 71.6176 53.4056C71.8877 53.2138 72.2068 53.067 72.5748 52.9632C72.9428 52.8595 73.344 52.8086 73.7747 52.8086C74.3247 52.8086 74.7847 52.8634 75.1527 52.9711C75.5207 53.0787 75.8222 53.2275 76.059 53.4134C76.2939 53.5994 76.4759 53.8206 76.6032 54.077C76.7304 54.3315 76.8283 54.6016 76.8987 54.8874L75.7341 55.0792C75.6656 54.8737 75.5873 54.6917 75.4992 54.5331C75.4111 54.3765 75.2936 54.2454 75.1449 54.1436C74.9981 54.0398 74.818 53.9615 74.6066 53.9087C74.3952 53.8558 74.1329 53.8284 73.8177 53.8284C73.4634 53.8284 73.1698 53.8597 72.933 53.9243C72.6981 53.9889 72.5082 54.0751 72.3653 54.1827C72.2224 54.2904 72.1226 54.4117 72.0639 54.5429C72.0051 54.676 71.9758 54.815 71.9758 54.9618C71.9758 55.1184 71.9954 55.2593 72.0345 55.3807C72.0737 55.504 72.148 55.6117 72.2557 55.7056C72.3633 55.7996 72.5102 55.8798 72.6981 55.9483C72.884 56.0168 73.1248 56.0756 73.4204 56.1245L74.5263 56.3007C75.4189 56.4475 76.061 56.7039 76.4485 57.066C76.8361 57.4301 77.0299 57.9606 77.0299 58.6574C77.0299 58.9824 76.9653 59.2779 76.8381 59.5481C76.7108 59.8182 76.519 60.0551 76.2645 60.2547C76.0081 60.4563 75.691 60.6129 75.3073 60.7265C74.9237 60.84 74.4774 60.8968 73.9665 60.8968C73.5045 60.8968 73.0759 60.8517 72.6765 60.7637C72.2772 60.6756 71.9268 60.5346 71.6234 60.3448C71.3181 60.1529 71.0734 59.9004 70.8874 59.5853C70.7015 59.2721 70.5919 58.8884 70.5625 58.4362H71.7996H71.8035Z" fill="#EC672C"/>
<path d="M79.1237 54.0577H77.9297V53.0418H79.1237V52.3783C79.1237 51.9652 79.1844 51.6129 79.3077 51.3173C79.431 51.0217 79.5974 50.779 79.8088 50.5872C80.0202 50.3954 80.2649 50.2525 80.5448 50.1605C80.8247 50.0665 81.1223 50.0195 81.4355 50.0195C81.6606 50.0195 81.8779 50.0313 82.0834 50.0567C82.2889 50.0822 82.5062 50.1292 82.7313 50.1977L82.5258 51.1999C82.3692 51.1509 82.2184 51.1196 82.0756 51.104C81.9327 51.0903 81.7937 51.0824 81.6567 51.0824C81.3121 51.0824 81.0185 51.1725 80.7719 51.3545C80.5272 51.5365 80.4039 51.8674 80.4039 52.3489V53.0418H82.3339V54.0577H80.4039V60.6582H79.1218V54.0577H79.1237Z" fill="#EC672C"/>
<path d="M86.7073 60.8968C86.1279 60.8968 85.6111 60.8028 85.1609 60.6168C84.7088 60.4309 84.3271 60.1647 84.0119 59.8221C83.6968 59.4776 83.456 59.0568 83.2896 58.5557C83.1232 58.0545 83.0391 57.4947 83.0391 56.8762C83.0391 56.2576 83.1271 55.6978 83.3033 55.1967C83.4795 54.6956 83.73 54.2689 84.055 53.9146C84.3799 53.5603 84.7694 53.2882 85.2255 53.0963C85.6816 52.9045 86.1905 52.8086 86.7504 52.8086C87.3102 52.8086 87.8309 52.9026 88.2831 53.0885C88.7352 53.2745 89.1208 53.5426 89.4399 53.8911C89.759 54.2395 90.0017 54.6603 90.17 55.1497C90.3364 55.641 90.4206 56.195 90.4206 56.8135C90.4206 57.4321 90.3345 58.0076 90.1622 58.5087C89.9899 59.0098 89.7453 59.4365 89.4262 59.7908C89.1071 60.1451 88.7157 60.4172 88.2557 60.609C87.7937 60.8008 87.2789 60.8968 86.7093 60.8968H86.7073ZM86.721 59.8378C87.134 59.8378 87.4864 59.7634 87.7819 59.6166C88.0775 59.4698 88.3202 59.2623 88.5121 58.998C88.7039 58.7338 88.8429 58.4167 88.931 58.0487C89.0191 57.6807 89.0641 57.2755 89.0641 56.8331C89.0641 56.3907 89.0191 56.0031 88.931 55.6391C88.8429 55.275 88.7019 54.9637 88.5121 54.7034C88.3202 54.4431 88.0775 54.2395 87.7819 54.0927C87.4864 53.9459 87.134 53.8715 86.721 53.8715C86.308 53.8715 85.9576 53.9459 85.6679 54.0927C85.3782 54.2395 85.1374 54.4431 84.9456 54.7034C84.7538 54.9637 84.6148 55.275 84.5267 55.6391C84.4386 56.0031 84.3936 56.4044 84.3936 56.8468C84.3936 57.2892 84.4386 57.6924 84.5267 58.0545C84.6148 58.4186 84.7518 58.7318 84.9397 58.998C85.1257 59.2623 85.3665 59.4698 85.662 59.6166C85.9557 59.7634 86.31 59.8378 86.723 59.8378H86.721Z" fill="#EC672C"/>
<path d="M92.1445 53.0433H93.411V54.2216C93.6948 53.7988 94.0296 53.4759 94.4132 53.2488C94.7969 53.0237 95.204 52.9102 95.6366 52.9102C95.9009 52.9102 96.1279 52.9297 96.3139 52.9689L96.1514 54.1629C96.0536 54.1434 95.9557 54.1257 95.8559 54.112C95.756 54.0983 95.6503 54.0905 95.5309 54.0905C95.296 54.0905 95.0553 54.1316 94.8086 54.2158C94.5639 54.2999 94.333 54.4389 94.1157 54.6347C93.9004 54.8206 93.7301 55.0379 93.6067 55.2826C93.4834 55.5273 93.4227 55.8131 93.4227 56.138V60.6597H92.1406V53.0433H92.1445Z" fill="#EC672C"/>
<path d="M97.5312 53.0435H98.7977V54.2082C99.1422 53.7364 99.52 53.386 99.933 53.1551C100.346 52.9241 100.767 52.8086 101.199 52.8086C101.769 52.8086 102.229 52.9319 102.578 53.1766C102.926 53.4213 103.184 53.7756 103.351 54.2375C103.695 53.7658 104.087 53.4095 104.529 53.1688C104.971 52.928 105.443 52.8086 105.944 52.8086C106.69 52.8086 107.268 53.0122 107.675 53.4193C108.082 53.8265 108.285 54.4822 108.285 55.3866V60.6599H107.003V55.6802C107.003 55.3357 106.974 55.0499 106.915 54.8189C106.857 54.5879 106.77 54.4059 106.657 54.2747C106.543 54.1416 106.404 54.0496 106.238 53.9948C106.072 53.942 105.88 53.9145 105.664 53.9145C105.449 53.9145 105.202 53.9537 104.958 54.032C104.713 54.1103 104.472 54.2473 104.235 54.445C104.04 54.6114 103.877 54.813 103.75 55.0499C103.623 55.2848 103.558 55.5549 103.558 55.8602V60.6619H102.276V55.6978C102.276 55.0303 102.161 54.5664 101.93 54.306C101.699 54.0457 101.368 53.9165 100.935 53.9165C100.434 53.9165 99.9624 54.122 99.522 54.5351C99.3556 54.6917 99.1951 54.8933 99.0424 55.1399C98.8897 55.3846 98.8134 55.7134 98.8134 56.1265V60.6638H97.5312V53.0474V53.0435Z" fill="#EC672C"/>
<path d="M110.203 50.1445H111.573V51.6322H110.203V50.1445ZM110.248 53.0455H111.53V60.6619H110.248V53.0455Z" fill="#EC672C"/>
<path d="M113.535 53.0435H114.802V54.2082C115.176 53.7071 115.587 53.3488 116.039 53.1335C116.491 52.9182 116.967 52.8086 117.468 52.8086C118.331 52.8086 118.973 53.0435 119.39 53.5152C119.807 53.987 120.016 54.678 120.016 55.5921V60.6599H118.734V55.8426C118.734 55.136 118.607 54.6369 118.35 54.3471C118.094 54.0574 117.703 53.9126 117.172 53.9126C116.886 53.9126 116.604 53.9615 116.325 54.0594C116.045 54.1573 115.792 54.3158 115.565 54.5311C115.32 54.7465 115.132 54.9755 115.005 55.2162C114.878 55.457 114.813 55.7682 114.813 56.1519V60.6599H113.531V53.0435H113.535Z" fill="#EC672C"/>
<path d="M123.228 61.3685C123.336 61.8305 123.545 62.1593 123.854 62.3551C124.164 62.5508 124.647 62.6487 125.305 62.6487C126.109 62.6487 126.667 62.4255 126.977 61.9792C127.286 61.5329 127.44 60.8811 127.44 60.0277V59.2173C127.147 59.6303 126.791 59.9494 126.372 60.1745C125.955 60.3996 125.465 60.5131 124.906 60.5131C124.346 60.5131 123.876 60.4133 123.469 60.2117C123.062 60.01 122.725 59.736 122.461 59.3876C122.196 59.0391 121.997 58.634 121.864 58.172C121.731 57.71 121.664 57.2148 121.664 56.6843C121.664 56.1049 121.742 55.5764 121.899 55.1008C122.056 54.6251 122.283 54.216 122.576 53.8774C122.872 53.5387 123.226 53.2764 123.645 53.0885C124.062 52.9026 124.532 52.8086 125.052 52.8086C125.475 52.8086 125.894 52.8947 126.311 53.067C126.728 53.2392 127.11 53.5563 127.452 54.0163V53.0435H128.719V59.4228C128.719 60.0805 128.672 60.6717 128.578 61.1982C128.484 61.7228 128.314 62.1711 128.063 62.5391C127.812 62.9071 127.466 63.1889 127.024 63.3866C126.581 63.5824 126.012 63.6822 125.315 63.6822C124.312 63.6822 123.528 63.5021 122.958 63.1439C122.388 62.7857 122.054 62.1945 121.956 61.3685H123.222H123.228ZM127.472 56.5669C127.472 56.0658 127.413 55.6469 127.296 55.3083C127.178 54.9696 127.016 54.6917 126.81 54.4763C126.605 54.261 126.366 54.1064 126.096 54.0124C125.826 53.9185 125.544 53.8715 125.248 53.8715C124.933 53.8715 124.641 53.9224 124.371 54.0261C124.101 54.1299 123.864 54.2943 123.665 54.5194C123.463 54.7445 123.306 55.0342 123.193 55.3885C123.079 55.7428 123.023 56.1695 123.023 56.6706C123.023 57.1717 123.083 57.6141 123.207 57.9665C123.33 58.3208 123.488 58.6046 123.686 58.8219C123.882 59.0372 124.111 59.1957 124.371 59.2936C124.632 59.3915 124.894 59.4404 125.16 59.4404C125.495 59.4404 125.8 59.3876 126.08 59.278C126.36 59.1703 126.603 59.0078 126.81 58.7925C127.016 58.5772 127.178 58.3051 127.296 57.9743C127.413 57.6454 127.472 57.2598 127.472 56.8174V56.5669Z" fill="#EC672C"/>
<path d="M138.769 55.256H142.701V59.4684C142.437 59.7131 142.143 59.9284 141.824 60.1085C141.505 60.2906 141.171 60.4432 140.822 60.5646C140.474 60.6879 140.116 60.778 139.748 60.8367C139.38 60.8954 139.017 60.9248 138.665 60.9248C137.89 60.9248 137.199 60.7995 136.596 60.5489C135.993 60.2984 135.48 59.9382 135.063 59.4665C134.646 58.9947 134.329 58.4173 134.114 57.7361C133.899 57.0529 133.789 56.2797 133.789 55.4165C133.789 54.5533 133.907 53.7468 134.143 53.0598C134.378 52.3727 134.705 51.7933 135.122 51.3215C135.539 50.8498 136.038 50.4916 136.618 50.2469C137.197 50.0022 137.831 49.8789 138.518 49.8789C139.107 49.8789 139.628 49.9494 140.08 50.0923C140.532 50.2352 140.918 50.4387 141.237 50.703C141.556 50.9672 141.818 51.2843 142.026 51.6523C142.232 52.0203 142.39 52.4314 142.498 52.8816L141.186 53.1028C141.108 52.7994 141.002 52.5195 140.869 52.2631C140.736 52.0086 140.568 51.7894 140.36 51.6073C140.155 51.4253 139.9 51.2863 139.601 51.1884C139.301 51.0906 138.941 51.0416 138.518 51.0416C137.968 51.0416 137.487 51.1473 137.074 51.3587C136.661 51.5701 136.318 51.8677 136.042 52.2494C135.766 52.633 135.559 53.0911 135.416 53.6274C135.273 54.1638 135.202 54.7549 135.202 55.4028C135.202 56.0507 135.271 56.6419 135.408 57.1782C135.545 57.7146 135.758 58.1726 136.048 58.5563C136.338 58.9399 136.698 59.2335 137.13 59.441C137.563 59.6466 138.074 59.7503 138.663 59.7503C139.194 59.7503 139.693 59.6857 140.159 59.5585C140.624 59.4312 141.045 59.2296 141.417 58.9536V56.4344H138.765V55.256H138.769Z" fill="#EC672C"/>
<path d="M147.95 60.8968C147.37 60.8968 146.853 60.8028 146.403 60.6168C145.951 60.4309 145.569 60.1647 145.254 59.8221C144.939 59.4776 144.698 59.0568 144.532 58.5557C144.365 58.0545 144.281 57.4947 144.281 56.8762C144.281 56.2576 144.369 55.6978 144.546 55.1967C144.722 54.6956 144.972 54.2689 145.297 53.9146C145.622 53.5603 146.012 53.2882 146.468 53.0963C146.924 52.9045 147.433 52.8086 147.993 52.8086C148.552 52.8086 149.073 52.9026 149.525 53.0885C149.977 53.2745 150.363 53.5426 150.682 53.8911C151.001 54.2395 151.244 54.6603 151.412 55.1497C151.579 55.641 151.663 56.195 151.663 56.8135C151.663 57.4321 151.577 58.0076 151.404 58.5087C151.232 59.0098 150.987 59.4365 150.668 59.7908C150.349 60.1451 149.958 60.4172 149.498 60.609C149.036 60.8008 148.521 60.8968 147.951 60.8968H147.95ZM147.965 59.8378C148.378 59.8378 148.731 59.7634 149.026 59.6166C149.32 59.4698 149.564 59.2623 149.756 58.998C149.948 58.7338 150.087 58.4167 150.175 58.0487C150.263 57.6807 150.308 57.2755 150.308 56.8331C150.308 56.3907 150.263 56.0031 150.175 55.6391C150.087 55.275 149.946 54.9637 149.756 54.7034C149.564 54.4431 149.322 54.2395 149.026 54.0927C148.731 53.9459 148.378 53.8715 147.965 53.8715C147.552 53.8715 147.202 53.9459 146.912 54.0927C146.622 54.2395 146.382 54.4431 146.19 54.7034C145.998 54.9637 145.859 55.275 145.771 55.6391C145.683 56.0031 145.638 56.4044 145.638 56.8468C145.638 57.2892 145.683 57.6924 145.771 58.0545C145.859 58.4186 145.996 58.7318 146.184 58.998C146.37 59.2623 146.611 59.4698 146.906 59.6166C147.2 59.7634 147.554 59.8378 147.967 59.8378H147.965Z" fill="#EC672C"/>
<path d="M152.203 53.043H153.691L155.959 59.2304L158.273 53.043H159.686L156.623 60.6594H155.253L152.203 53.043Z" fill="#EC672C"/>
<path d="M167.052 58.5243C166.925 59.2603 166.598 59.8397 166.073 60.2625C165.547 60.6853 164.793 60.8968 163.813 60.8968C162.654 60.8968 161.765 60.5464 161.147 59.8437C160.528 59.1409 160.219 58.1622 160.219 56.9055C160.219 56.2478 160.307 55.6625 160.483 55.1517C160.659 54.6408 160.908 54.214 161.227 53.8695C161.546 53.525 161.928 53.2627 162.368 53.0807C162.81 52.8986 163.292 52.8086 163.811 52.8086C164.4 52.8086 164.905 52.9025 165.328 53.0885C165.75 53.2745 166.097 53.5328 166.367 53.8617C166.637 54.1906 166.839 54.582 166.972 55.0323C167.105 55.4825 167.172 55.9797 167.172 56.5199V57.1678H161.515C161.515 57.5515 161.565 57.9077 161.669 58.2366C161.773 58.5654 161.92 58.8512 162.112 59.092C162.303 59.3328 162.54 59.5207 162.826 59.6597C163.11 59.7967 163.439 59.8652 163.813 59.8652C164.451 59.8652 164.919 59.7458 165.212 59.505C165.506 59.2642 165.707 58.9374 165.815 58.5263H167.052V58.5243ZM165.889 56.2106C165.889 55.8465 165.85 55.5177 165.772 55.2241C165.694 54.9305 165.57 54.676 165.404 54.4646C165.238 54.2532 165.02 54.0888 164.756 53.9713C164.492 53.8539 164.173 53.7951 163.799 53.7951C163.122 53.7951 162.593 54.0007 162.215 54.4137C161.838 54.8267 161.614 55.4257 161.546 56.2106H165.891H165.889Z" fill="#EC672C"/>
<path d="M168.863 53.0433H170.13V54.2216C170.414 53.7988 170.748 53.4759 171.132 53.2488C171.516 53.0237 171.923 52.9102 172.355 52.9102C172.62 52.9102 172.847 52.9297 173.033 52.9689L172.87 54.1629C172.772 54.1434 172.674 54.1257 172.575 54.112C172.475 54.0983 172.369 54.0905 172.25 54.0905C172.015 54.0905 171.774 54.1316 171.527 54.2158C171.283 54.2999 171.05 54.4389 170.834 54.6347C170.619 54.8206 170.449 55.0379 170.325 55.2826C170.202 55.5273 170.141 55.8131 170.141 56.138V60.6597H168.859V53.0433H168.863Z" fill="#EC672C"/>
<path d="M174.254 53.0435H175.52V54.2082C175.894 53.7071 176.305 53.3488 176.757 53.1335C177.21 52.9182 177.685 52.8086 178.186 52.8086C179.052 52.8086 179.692 53.0435 180.109 53.5152C180.526 53.987 180.735 54.678 180.735 55.5921V60.6599H179.453V55.8426C179.453 55.136 179.326 54.6369 179.069 54.3471C178.815 54.0574 178.421 53.9126 177.891 53.9126C177.605 53.9126 177.323 53.9615 177.043 54.0594C176.763 54.1573 176.511 54.3158 176.284 54.5311C176.039 54.7465 175.851 54.9755 175.724 55.2162C175.597 55.457 175.532 55.7682 175.532 56.1519V60.6599H174.25V53.0435H174.254Z" fill="#EC672C"/>
<path d="M187.4 59.6185C187.126 59.9533 186.776 60.2391 186.355 60.4798C185.934 60.7206 185.408 60.84 184.779 60.84C184.396 60.84 184.045 60.793 183.726 60.6991C183.407 60.6051 183.131 60.4642 182.902 60.2723C182.671 60.0805 182.491 59.8436 182.364 59.5579C182.236 59.274 182.172 58.9393 182.172 58.5556C182.172 58.035 182.281 57.6122 182.503 57.2892C182.724 56.9662 183.017 56.7098 183.387 56.5238C183.755 56.3379 184.17 56.2048 184.632 56.1265C185.094 56.0482 185.57 55.9992 186.061 55.9797L187.373 55.9346V55.6391C187.373 54.9911 187.236 54.5253 186.96 54.2395C186.684 53.9557 186.237 53.8128 185.619 53.8128C185 53.8128 184.564 53.9126 184.278 54.1142C183.994 54.3158 183.806 54.5938 183.718 54.9461L182.554 54.813C182.691 54.1162 183.019 53.6072 183.54 53.2882C184.061 52.9691 184.767 52.8086 185.662 52.8086C186.212 52.8086 186.676 52.8751 187.054 53.0083C187.432 53.1414 187.739 53.3293 187.974 53.5759C188.209 53.8206 188.379 54.126 188.483 54.49C188.586 54.8541 188.637 55.2613 188.637 55.7134V60.6638H187.4V59.6185ZM187.371 56.8488L186.147 56.8938C185.627 56.9134 185.194 56.9623 184.852 57.0406C184.507 57.1189 184.235 57.2246 184.033 57.3577C183.832 57.4908 183.689 57.6552 183.607 57.851C183.523 58.0467 183.481 58.2738 183.481 58.5282C183.481 58.9119 183.597 59.2192 183.828 59.4482C184.059 59.6792 184.439 59.7947 184.969 59.7947C185.725 59.7947 186.314 59.6088 186.737 59.2349C187.159 58.861 187.371 58.3501 187.371 57.7022V56.8488Z" fill="#EC672C"/>
<path d="M190.582 53.0435H191.849V54.2082C192.222 53.7071 192.633 53.3488 193.086 53.1335C193.538 52.9182 194.013 52.8086 194.515 52.8086C195.38 52.8086 196.02 53.0435 196.437 53.5152C196.854 53.987 197.063 54.678 197.063 55.5921V60.6599H195.781V55.8426C195.781 55.136 195.654 54.6369 195.397 54.3471C195.143 54.0574 194.749 53.9126 194.219 53.9126C193.933 53.9126 193.651 53.9615 193.371 54.0594C193.091 54.1573 192.839 54.3158 192.612 54.5311C192.367 54.7465 192.179 54.9755 192.052 55.2162C191.925 55.457 191.86 55.7682 191.86 56.1519V60.6599H190.578V53.0435H190.582Z" fill="#EC672C"/>
<path d="M205.578 58.0819C205.45 58.9569 205.116 59.644 204.575 60.1451C204.035 60.6462 203.274 60.8968 202.291 60.8968C201.712 60.8968 201.199 60.8028 200.753 60.6168C200.306 60.4309 199.932 60.1627 199.633 59.8143C199.333 59.4659 199.106 59.0431 198.956 58.5478C198.803 58.0526 198.727 57.4947 198.727 56.8762C198.727 56.2576 198.811 55.7115 198.977 55.2123C199.144 54.7112 199.384 54.2845 199.699 53.9302C200.013 53.5759 200.396 53.3019 200.848 53.1061C201.301 52.9104 201.812 52.8125 202.381 52.8125C203.295 52.8125 204.002 53.0357 204.503 53.4819C205.004 53.9282 205.323 54.5448 205.46 55.3298L204.178 55.5647C204.129 55.32 204.063 55.0929 203.978 54.8874C203.894 54.6819 203.779 54.5018 203.632 54.3491C203.485 54.1964 203.305 54.079 203.094 53.9948C202.882 53.9106 202.63 53.8695 202.334 53.8695C201.931 53.8695 201.588 53.9459 201.303 54.0985C201.019 54.2512 200.784 54.4626 200.604 54.7328C200.422 55.0029 200.289 55.32 200.206 55.6821C200.122 56.0462 200.081 56.4338 200.081 56.8468C200.081 57.2598 200.12 57.6474 200.199 58.0095C200.277 58.3736 200.404 58.6907 200.582 58.9589C200.758 59.229 200.989 59.4424 201.275 59.599C201.559 59.7556 201.909 59.8339 202.32 59.8339C202.939 59.8339 203.399 59.6773 203.698 59.3621C203.998 59.0489 204.192 58.6202 204.28 58.08H205.576L205.578 58.0819Z" fill="#EC672C"/>
<path d="M213.654 58.5243C213.527 59.2603 213.2 59.8397 212.675 60.2625C212.148 60.6853 211.395 60.8968 210.414 60.8968C209.255 60.8968 208.367 60.5464 207.748 59.8437C207.13 59.1409 206.82 58.1622 206.82 56.9055C206.82 56.2478 206.908 55.6625 207.085 55.1517C207.261 54.6408 207.509 54.214 207.828 53.8695C208.147 53.525 208.529 53.2627 208.97 53.0807C209.412 52.8986 209.894 52.8086 210.412 52.8086C211.001 52.8086 211.506 52.9025 211.929 53.0885C212.352 53.2745 212.699 53.5328 212.969 53.8617C213.239 54.1906 213.44 54.582 213.573 55.0323C213.707 55.4844 213.773 55.9797 213.773 56.5199V57.1678H208.116C208.116 57.5515 208.167 57.9077 208.271 58.2366C208.375 58.5654 208.521 58.8512 208.713 59.092C208.905 59.3328 209.142 59.5207 209.428 59.6597C209.711 59.7967 210.04 59.8652 210.414 59.8652C211.052 59.8652 211.52 59.7458 211.814 59.505C212.107 59.2642 212.309 58.9374 212.417 58.5263H213.654V58.5243ZM212.489 56.2106C212.489 55.8465 212.45 55.5177 212.372 55.2241C212.293 54.9285 212.17 54.676 212.004 54.4646C211.837 54.2532 211.62 54.0888 211.356 53.9713C211.091 53.8539 210.772 53.7951 210.399 53.7951C209.721 53.7951 209.193 54.0007 208.815 54.4137C208.437 54.8267 208.214 55.4257 208.146 56.2106H212.491H212.489Z" fill="#EC672C"/>
<path d="M33.28 35.9924C32.3169 35.1448 30.9741 34.6789 29.4962 34.6789C29.4493 34.6789 29.1889 34.6789 28.7759 34.677C21.3963 34.6495 13.9482 34.6535 12.8521 34.6652C12.1259 34.6535 10.4151 34.6515 6.22222 34.677C5.864 34.6789 5.62715 34.6809 5.56843 34.6809C4.09252 34.6809 2.74775 35.1467 1.78469 35.9943C0.780519 36.8771 0.226562 38.1416 0.226562 39.551C0.226562 40.6609 0.678732 41.714 1.4989 42.5146C2.31907 43.3152 3.40154 43.7575 4.5486 43.7575C6.43166 43.7575 7.96434 42.2914 7.96434 40.4886C7.96434 39.1008 6.79379 37.5466 5.22979 37.5466C3.96724 37.5466 3.06681 38.2963 2.99243 39.414C2.92979 40.3457 3.51311 41.0856 4.47813 41.297C4.85396 41.3792 5.22588 41.1424 5.30809 40.7666C5.3903 40.3907 5.15149 40.0188 4.77762 39.9366C4.36068 39.8446 4.37635 39.6175 4.38418 39.5079C4.41941 38.9931 4.98902 38.9383 5.23175 38.9383C5.95404 38.9383 6.57455 39.7898 6.57455 40.4866C6.57455 41.5221 5.6663 42.3638 4.55252 42.3638C2.96503 42.3638 1.62418 41.0758 1.62418 39.551C1.62418 37.4702 3.20971 36.0726 5.57234 36.0726C5.63107 36.0726 5.87183 36.0726 6.23396 36.0687C8.96655 36.053 10.9083 36.0472 12.0417 36.0491C12.122 36.0707 12.2081 36.0765 12.2942 36.0667C12.3568 36.0628 12.5271 36.0589 12.8658 36.055C13.0361 36.0569 13.1477 36.0609 13.1985 36.0648C13.2847 36.0765 13.3688 36.0707 13.4491 36.0511C14.9054 36.0432 22.6295 36.0452 28.77 36.0687C29.185 36.0687 29.4473 36.0707 29.4943 36.0707C31.855 36.0707 33.4424 37.4683 33.4424 39.549C33.4424 41.0739 32.1016 42.3619 30.5141 42.3619C29.3984 42.3619 28.4921 41.5202 28.4921 40.4847C28.4921 39.7878 29.1126 38.9364 29.8349 38.9364C30.0776 38.9364 30.6492 38.9912 30.6824 39.506C30.6903 39.6156 30.7059 39.8426 30.289 39.9346C29.9132 40.0169 29.6763 40.3888 29.7585 40.7646C29.8407 41.1404 30.2127 41.3773 30.5885 41.2951C31.5535 41.0837 32.1368 40.3438 32.0742 39.412C31.9978 38.2943 31.0994 37.5446 29.8368 37.5446C28.2709 37.5446 27.1023 39.0969 27.1023 40.4866C27.1023 42.2895 28.635 43.7556 30.518 43.7556C31.6651 43.7556 32.7475 43.3152 33.5677 42.5126C34.3879 41.712 34.8401 40.6589 34.8401 39.549C34.8401 38.1377 34.2861 36.8752 33.2819 35.9924H33.28Z" fill="#D09C0A"/>
<path d="M17.5671 19.0979C17.4046 19.0979 17.2734 18.9628 17.2734 18.7965V13.9772C17.2734 13.8108 17.4046 13.6758 17.5671 13.6758C17.7295 13.6758 17.8607 13.8108 17.8607 13.9772V18.7965C17.8607 18.9628 17.7295 19.0979 17.5671 19.0979Z" fill="#D09C0A"/>
<path d="M24.9071 39.1515H10.1578C9.77413 39.1515 9.46094 38.8403 9.46094 38.4547C9.46094 38.069 9.77217 37.7578 10.1578 37.7578H24.9071C25.2908 37.7578 25.604 38.069 25.604 38.4547C25.604 38.8403 25.2928 39.1515 24.9071 39.1515Z" fill="#D09C0A"/>
<path d="M30.0176 32.9484H5.05622C4.67257 32.9484 4.35938 32.6372 4.35938 32.2515C4.35938 31.8659 4.67061 31.5547 5.05622 31.5547H30.0176C30.4012 31.5547 30.7144 31.8659 30.7144 32.2515C30.7144 32.6372 30.4032 32.9484 30.0176 32.9484Z" fill="#D09C0A"/>
<path d="M8.67341 60.8028C8.28975 60.8028 7.97656 60.4915 7.97656 60.1059V44.6695C7.97656 44.2858 8.2878 43.9727 8.67341 43.9727C9.05903 43.9727 9.37026 44.2839 9.37026 44.6695V60.1059C9.37026 60.4896 9.05903 60.8028 8.67341 60.8028Z" fill="#D09C0A"/>
<path d="M26.3922 60.8028C26.0085 60.8028 25.6953 60.4915 25.6953 60.1059V44.6695C25.6953 44.2858 26.0065 43.9727 26.3922 43.9727C26.7778 43.9727 27.089 44.2839 27.089 44.6695V60.1059C27.089 60.4896 26.7778 60.8028 26.3922 60.8028Z" fill="#D09C0A"/>
<path d="M14.5797 58.9478C14.196 58.9478 13.8828 58.6366 13.8828 58.251V41.6773C13.8828 41.2937 14.194 40.9805 14.5797 40.9805C14.9653 40.9805 15.2765 41.2917 15.2765 41.6773V58.251C15.2765 58.6347 14.9653 58.9478 14.5797 58.9478Z" fill="#D09C0A"/>
<path d="M20.4859 58.9478C20.1023 58.9478 19.7891 58.6366 19.7891 58.251V41.6773C19.7891 41.2937 20.1003 40.9805 20.4859 40.9805C20.8715 40.9805 21.1828 41.2917 21.1828 41.6773V58.251C21.1828 58.6347 20.8715 58.9478 20.4859 58.9478Z" fill="#D09C0A"/>
<path d="M23.3161 13.7804C21.6875 14.6456 21.2373 13.3282 20.1802 13.3243C19.3287 13.3204 19.0547 13.4848 18.1641 13.9233V17.3077L18.3226 17.1863C19.6576 16.3583 20.4582 16.881 21.1824 17.2959C21.9067 17.7109 23.0087 17.1628 23.3161 16.924V13.7804Z" fill="#D09C0A"/>
<path d="M14.4844 20.8324C14.7897 20.2922 15.4239 19.7069 15.4239 19.7069C16.573 18.5383 18.4384 18.4326 19.7264 19.7265C19.7264 19.7265 20.2941 20.2648 20.6445 20.8324C20.5485 20.7717 20.0553 20.5545 20.0553 20.5545C18.4776 19.8087 16.6317 19.8243 15.0657 20.5408C15.0657 20.5408 14.6782 20.7228 14.4844 20.8324Z" fill="#D09C0A"/>
<path d="M25.604 29.85H9.46875V29.2177C9.46875 24.5962 13.0881 20.8359 17.5354 20.8359C21.9827 20.8359 25.602 24.5962 25.602 29.2177V29.85H25.604ZM10.7607 28.5855H24.3121C24.0047 24.9564 21.0842 22.1004 17.5354 22.1004C13.9865 22.1004 11.066 24.9564 10.7587 28.5855H10.7607Z" fill="#D09C0A"/>
</svg>
