<svg width="60" height="60" viewBox="0 0 60 60" fill="none" xmlns="http://www.w3.org/2000/svg">
<rect x="0.508712" y="58.9718" width="58.1043" height="58.1043" rx="29.0522" transform="rotate(-90 0.508712 58.9718)" stroke="white" stroke-width="1.0018"/>
<path d="M29.3133 39.1219C29.5112 39.324 29.7796 39.4375 30.0595 39.4375C30.3393 39.4375 30.6077 39.324 30.8056 39.1219L36.7758 33.0236C36.968 32.8203 37.0744 32.548 37.072 32.2653C37.0696 31.9827 36.9586 31.7123 36.7629 31.5124C36.5673 31.3125 36.3026 31.1992 36.0259 31.1967C35.7491 31.1942 35.4826 31.3029 35.2835 31.4993L31.1148 35.7574L31.1148 21.4813C31.1148 21.1954 31.0036 20.9212 30.8057 20.7191C30.6078 20.5169 30.3394 20.4033 30.0595 20.4033C29.7796 20.4033 29.5111 20.5169 29.3132 20.7191C29.1153 20.9212 29.0041 21.1954 29.0041 21.4813L29.0041 35.7574L24.8354 31.4993C24.6364 31.3029 24.3698 31.1942 24.0931 31.1967C23.8164 31.1992 23.5517 31.3125 23.356 31.5124C23.1603 31.7123 23.0493 31.9827 23.0469 32.2653C23.0445 32.548 23.1509 32.8203 23.3431 33.0236L29.3133 39.1219Z" fill="white"/>
</svg>
